<?xml version="1.0" encoding="UTF-8"?>
<!DOCTYPE svg PUBLIC "-//W3C//DTD SVG 1.1//EN" "http://www.w3.org/Graphics/SVG/1.1/DTD/svg11.dtd">
<!-- Creator: CorelDRAW -->
<svg xmlns="http://www.w3.org/2000/svg" xml:space="preserve" width="31.9647mm" height="14.7964mm" version="1.1" style="shape-rendering:geometricPrecision; text-rendering:geometricPrecision; image-rendering:optimizeQuality; fill-rule:evenodd; clip-rule:evenodd"
viewBox="0 0 187.62 86.85"
 xmlns:xlink="http://www.w3.org/1999/xlink"
 xmlns:xodm="http://www.corel.com/coreldraw/odm/2003">
 <defs>
  <style type="text/css">
   <![CDATA[
    .fil1 {fill:#AD8B4B}
    .fil0 {fill:#2B2A29;fill-rule:nonzero}
   ]]>
  </style>
 </defs>
 <g id="Layer_x0020_1">
  <metadata id="CorelCorpID_0Corel-Layer"/>
  <path class="fil0" d="M0.63 86.53c-0.17,0 -0.32,-0.06 -0.44,-0.19 -0.13,-0.13 -0.19,-0.27 -0.19,-0.44 0,-0.11 0.01,-0.22 0.03,-0.35l7.82 -20.41c0.08,-0.21 0.2,-0.38 0.35,-0.5 0.15,-0.13 0.37,-0.19 0.66,-0.19l2.14 0c0.27,0 0.49,0.06 0.65,0.19 0.16,0.13 0.28,0.29 0.36,0.5l7.79 20.41c0.04,0.13 0.06,0.24 0.06,0.35 0,0.17 -0.06,0.32 -0.19,0.44 -0.13,0.13 -0.27,0.19 -0.44,0.19l-1.61 0c-0.25,0 -0.44,-0.06 -0.55,-0.19 -0.12,-0.13 -0.19,-0.24 -0.24,-0.35l-1.74 -4.48 -10.34 0 -1.74 4.48c-0.02,0.11 -0.09,0.22 -0.22,0.35 -0.13,0.13 -0.32,0.19 -0.57,0.19l-1.61 0zm5.05 -7.73l8.52 0 -4.26 -11.2 -4.26 11.2zm19.09 7.73c-0.21,0 -0.38,-0.07 -0.52,-0.2 -0.14,-0.14 -0.2,-0.31 -0.2,-0.52l0 -20.94c0,-0.21 0.07,-0.38 0.2,-0.52 0.14,-0.14 0.31,-0.21 0.52,-0.21l1.48 0c0.23,0 0.41,0.07 0.54,0.21 0.13,0.14 0.19,0.31 0.19,0.52l0 20.94c0,0.21 -0.06,0.38 -0.19,0.52 -0.13,0.14 -0.3,0.2 -0.54,0.2l-1.48 0zm8.84 0c-0.21,0 -0.38,-0.07 -0.52,-0.2 -0.14,-0.14 -0.2,-0.31 -0.2,-0.52l0 -20.94c0,-0.21 0.07,-0.38 0.2,-0.52 0.14,-0.14 0.31,-0.21 0.52,-0.21l1.48 0c0.23,0 0.41,0.07 0.54,0.21 0.13,0.14 0.19,0.31 0.19,0.52l0 20.94c0,0.21 -0.06,0.38 -0.19,0.52 -0.13,0.14 -0.3,0.2 -0.54,0.2l-1.48 0zm16.95 0c-0.23,0 -0.41,-0.07 -0.54,-0.2 -0.13,-0.14 -0.19,-0.31 -0.19,-0.52l0 -20.6c0,-0.23 0.06,-0.41 0.19,-0.55 0.13,-0.14 0.31,-0.2 0.54,-0.2l8.01 0c1.56,0 2.91,0.25 4.05,0.76 1.15,0.5 2.03,1.26 2.67,2.26 0.63,1 0.95,2.24 0.95,3.74 0,1.49 -0.32,2.73 -0.95,3.72 -0.63,0.99 -1.52,1.74 -2.67,2.24 -1.15,0.5 -2.5,0.76 -4.05,0.76l-5.58 0 0 7.89c0,0.21 -0.07,0.38 -0.21,0.52 -0.14,0.14 -0.32,0.2 -0.55,0.2l-1.67 0zm2.4 -11.26l5.46 0c1.56,0 2.72,-0.35 3.5,-1.04 0.78,-0.69 1.17,-1.7 1.17,-3.03 0,-1.3 -0.38,-2.31 -1.14,-3.03 -0.76,-0.71 -1.93,-1.07 -3.53,-1.07l-5.46 0 0 8.17zm18.62 11.26c-0.21,0 -0.38,-0.07 -0.52,-0.2 -0.14,-0.14 -0.21,-0.31 -0.21,-0.52l0 -14.92c0,-0.21 0.07,-0.39 0.21,-0.54 0.14,-0.15 0.31,-0.22 0.52,-0.22l1.45 0c0.21,0 0.39,0.07 0.54,0.22 0.15,0.15 0.22,0.33 0.22,0.54l0 1.39c0.42,-0.71 1,-1.25 1.73,-1.61 0.74,-0.36 1.62,-0.54 2.65,-0.54l1.26 0c0.21,0 0.38,0.07 0.5,0.21 0.13,0.14 0.19,0.31 0.19,0.52l0 1.29c0,0.21 -0.06,0.38 -0.19,0.5 -0.13,0.13 -0.29,0.19 -0.5,0.19l-1.89 0c-1.14,0 -2.03,0.33 -2.68,0.99 -0.65,0.66 -0.98,1.56 -0.98,2.7l0 9.27c0,0.21 -0.07,0.38 -0.22,0.52 -0.15,0.14 -0.33,0.2 -0.54,0.2l-1.55 0zm18.84 0.32c-1.6,0 -2.93,-0.3 -4.01,-0.91 -1.07,-0.61 -1.89,-1.46 -2.46,-2.54 -0.57,-1.08 -0.88,-2.32 -0.95,-3.71 -0.02,-0.36 -0.03,-0.81 -0.03,-1.37 0,-0.56 0.01,-1 0.03,-1.34 0.06,-1.41 0.38,-2.65 0.96,-3.72 0.58,-1.07 1.4,-1.91 2.48,-2.52 1.07,-0.61 2.4,-0.91 3.97,-0.91 1.58,0 2.9,0.3 3.97,0.91 1.07,0.61 1.9,1.45 2.48,2.52 0.58,1.07 0.9,2.31 0.96,3.72 0.02,0.34 0.03,0.78 0.03,1.34 0,0.56 -0.01,1.01 -0.03,1.37 -0.06,1.39 -0.38,2.62 -0.95,3.71 -0.57,1.08 -1.39,1.93 -2.46,2.54 -1.07,0.61 -2.41,0.91 -4.01,0.91zm0 -2.43c1.3,0 2.34,-0.42 3.12,-1.25 0.78,-0.83 1.2,-2.04 1.26,-3.64 0.02,-0.32 0.03,-0.71 0.03,-1.2 0,-0.48 -0.01,-0.88 -0.03,-1.2 -0.06,-1.6 -0.48,-2.81 -1.26,-3.64 -0.78,-0.83 -1.82,-1.25 -3.12,-1.25 -1.3,0 -2.35,0.41 -3.14,1.25 -0.79,0.83 -1.2,2.04 -1.25,3.64 -0.02,0.32 -0.03,0.71 -0.03,1.2 0,0.48 0.01,0.88 0.03,1.2 0.04,1.6 0.46,2.81 1.25,3.64 0.79,0.83 1.83,1.25 3.14,1.25zm18.56 2.43c-1.16,0 -2.16,-0.2 -3,-0.61 -0.84,-0.41 -1.53,-0.97 -2.07,-1.67 -0.54,-0.7 -0.94,-1.51 -1.2,-2.41 -0.26,-0.9 -0.42,-1.86 -0.46,-2.87 -0.02,-0.34 -0.03,-0.65 -0.03,-0.95 0,-0.29 0.01,-0.61 0.03,-0.95 0.04,-0.99 0.19,-1.93 0.46,-2.84 0.26,-0.9 0.66,-1.71 1.2,-2.43 0.54,-0.71 1.22,-1.28 2.07,-1.69 0.84,-0.41 1.84,-0.62 3,-0.62 1.24,0 2.27,0.22 3.09,0.66 0.82,0.44 1.49,0.99 2.02,1.64l0 -7.25c0,-0.21 0.07,-0.38 0.2,-0.52 0.14,-0.14 0.31,-0.21 0.52,-0.21l1.51 0c0.21,0 0.38,0.07 0.52,0.21 0.14,0.14 0.21,0.31 0.21,0.52l0 20.94c0,0.21 -0.07,0.38 -0.21,0.52 -0.14,0.14 -0.31,0.2 -0.52,0.2l-1.42 0c-0.23,0 -0.41,-0.07 -0.54,-0.2 -0.13,-0.14 -0.19,-0.31 -0.19,-0.52l0 -1.32c-0.53,0.67 -1.21,1.24 -2.05,1.69 -0.84,0.45 -1.89,0.68 -3.15,0.68zm0.66 -2.55c1.05,0 1.89,-0.24 2.52,-0.73 0.63,-0.48 1.1,-1.1 1.42,-1.85 0.32,-0.75 0.48,-1.51 0.5,-2.29 0.02,-0.34 0.03,-0.74 0.03,-1.21 0,-0.47 -0.01,-0.88 -0.03,-1.21 -0.02,-0.74 -0.19,-1.46 -0.52,-2.18 -0.33,-0.71 -0.81,-1.3 -1.45,-1.77 -0.64,-0.46 -1.47,-0.69 -2.48,-0.69 -1.07,0 -1.92,0.24 -2.55,0.71 -0.63,0.47 -1.08,1.09 -1.36,1.86 -0.27,0.77 -0.43,1.59 -0.47,2.48 -0.02,0.61 -0.02,1.22 0,1.83 0.04,0.88 0.2,1.71 0.47,2.48 0.27,0.77 0.73,1.39 1.36,1.86 0.63,0.47 1.48,0.71 2.55,0.71zm19.41 2.55c-1.35,0 -2.49,-0.3 -3.42,-0.9 -0.94,-0.6 -1.65,-1.44 -2.13,-2.51 -0.48,-1.07 -0.73,-2.3 -0.73,-3.69l0 -8.89c0,-0.21 0.07,-0.38 0.2,-0.52 0.14,-0.14 0.31,-0.21 0.52,-0.21l1.58 0c0.21,0 0.38,0.07 0.52,0.21 0.14,0.14 0.2,0.31 0.2,0.52l0 8.74c0,3.13 1.37,4.7 4.1,4.7 1.3,0 2.35,-0.42 3.14,-1.25 0.79,-0.83 1.18,-1.98 1.18,-3.45l0 -8.74c0,-0.21 0.07,-0.38 0.2,-0.52 0.14,-0.14 0.31,-0.21 0.52,-0.21l1.55 0c0.23,0 0.41,0.07 0.54,0.21 0.13,0.14 0.19,0.31 0.19,0.52l0 14.95c0,0.21 -0.06,0.38 -0.19,0.52 -0.13,0.14 -0.3,0.2 -0.54,0.2l-1.45 0c-0.21,0 -0.38,-0.07 -0.52,-0.2 -0.14,-0.14 -0.2,-0.31 -0.2,-0.52l0 -1.39c-0.57,0.74 -1.26,1.32 -2.07,1.77 -0.81,0.44 -1.88,0.66 -3.2,0.66zm20.67 0c-1.49,0 -2.78,-0.29 -3.86,-0.87 -1.08,-0.58 -1.92,-1.41 -2.51,-2.49 -0.59,-1.08 -0.9,-2.38 -0.95,-3.89 -0.02,-0.32 -0.03,-0.74 -0.03,-1.26 0,-0.53 0.01,-0.95 0.03,-1.26 0.04,-1.51 0.36,-2.81 0.95,-3.89 0.59,-1.08 1.42,-1.91 2.51,-2.49 1.08,-0.58 2.37,-0.87 3.86,-0.87 1.22,0 2.27,0.17 3.14,0.5 0.87,0.34 1.59,0.77 2.16,1.29 0.57,0.53 0.99,1.09 1.28,1.7 0.28,0.61 0.44,1.19 0.46,1.73 0.02,0.21 -0.04,0.38 -0.19,0.5 -0.15,0.13 -0.33,0.19 -0.54,0.19l-1.51 0c-0.21,0 -0.37,-0.05 -0.47,-0.14 -0.11,-0.09 -0.21,-0.26 -0.32,-0.49 -0.38,-1.03 -0.89,-1.76 -1.55,-2.18 -0.65,-0.42 -1.46,-0.63 -2.43,-0.63 -1.26,0 -2.29,0.39 -3.08,1.17 -0.79,0.78 -1.21,2.03 -1.28,3.75 -0.02,0.76 -0.02,1.49 0,2.21 0.06,1.75 0.49,3 1.28,3.77 0.79,0.77 1.81,1.15 3.08,1.15 0.97,0 1.78,-0.21 2.43,-0.63 0.65,-0.42 1.17,-1.15 1.55,-2.18 0.11,-0.23 0.21,-0.39 0.32,-0.49 0.11,-0.09 0.26,-0.14 0.47,-0.14l1.51 0c0.21,0 0.39,0.06 0.54,0.19 0.15,0.13 0.21,0.29 0.19,0.5 -0.02,0.44 -0.12,0.89 -0.28,1.36 -0.17,0.46 -0.44,0.93 -0.8,1.4 -0.37,0.47 -0.83,0.89 -1.37,1.26 -0.55,0.37 -1.2,0.66 -1.97,0.88 -0.77,0.22 -1.63,0.33 -2.6,0.33zm18.37 -0.32c-1.18,0 -2.13,-0.23 -2.87,-0.68 -0.74,-0.45 -1.27,-1.09 -1.61,-1.92 -0.34,-0.83 -0.5,-1.81 -0.5,-2.95l0 -8.33 -2.46 0c-0.21,0 -0.38,-0.07 -0.52,-0.2 -0.14,-0.14 -0.21,-0.31 -0.21,-0.52l0 -1.07c0,-0.21 0.07,-0.38 0.21,-0.52 0.14,-0.14 0.31,-0.21 0.52,-0.21l2.46 0 0 -5.27c0,-0.21 0.07,-0.38 0.2,-0.52 0.14,-0.14 0.31,-0.21 0.52,-0.21l1.48 0c0.21,0 0.38,0.07 0.52,0.21 0.14,0.14 0.2,0.31 0.2,0.52l0 5.27 3.91 0c0.21,0 0.38,0.07 0.52,0.21 0.14,0.14 0.2,0.31 0.2,0.52l0 1.07c0,0.21 -0.07,0.38 -0.2,0.52 -0.14,0.14 -0.31,0.2 -0.52,0.2l-3.91 0 0 8.11c0,0.99 0.17,1.77 0.5,2.33 0.34,0.57 0.94,0.85 1.8,0.85l1.92 0c0.21,0 0.38,0.07 0.52,0.2 0.14,0.14 0.21,0.31 0.21,0.52l0 1.14c0,0.21 -0.07,0.38 -0.21,0.52 -0.14,0.14 -0.31,0.2 -0.52,0.2l-2.18 0zm12.78 0.32c-1.18,0 -2.19,-0.15 -3.03,-0.44 -0.84,-0.29 -1.52,-0.65 -2.05,-1.07 -0.53,-0.42 -0.92,-0.84 -1.18,-1.26 -0.26,-0.42 -0.4,-0.76 -0.43,-1.01 -0.02,-0.23 0.05,-0.41 0.22,-0.54 0.17,-0.13 0.34,-0.19 0.5,-0.19l1.39 0c0.13,0 0.23,0.02 0.3,0.05 0.07,0.03 0.17,0.12 0.3,0.27 0.27,0.29 0.58,0.59 0.92,0.88 0.34,0.29 0.75,0.54 1.25,0.73 0.49,0.19 1.11,0.28 1.85,0.28 1.07,0 1.96,-0.21 2.65,-0.62 0.69,-0.41 1.04,-1.01 1.04,-1.81 0,-0.53 -0.14,-0.95 -0.43,-1.26 -0.28,-0.32 -0.79,-0.6 -1.51,-0.85 -0.73,-0.25 -1.72,-0.52 -2.98,-0.79 -1.26,-0.29 -2.26,-0.66 -3,-1.09 -0.74,-0.43 -1.26,-0.95 -1.58,-1.55 -0.32,-0.6 -0.47,-1.28 -0.47,-2.03 0,-0.78 0.23,-1.53 0.69,-2.26 0.46,-0.73 1.14,-1.32 2.03,-1.78 0.89,-0.46 2.01,-0.69 3.36,-0.69 1.09,0 2.03,0.14 2.81,0.41 0.78,0.27 1.42,0.62 1.92,1.03 0.5,0.41 0.88,0.81 1.14,1.21 0.25,0.4 0.39,0.74 0.41,1.01 0.02,0.21 -0.04,0.38 -0.19,0.52 -0.15,0.14 -0.32,0.2 -0.5,0.2l-1.32 0c-0.15,0 -0.27,-0.03 -0.36,-0.09 -0.1,-0.06 -0.18,-0.14 -0.27,-0.22 -0.21,-0.27 -0.46,-0.55 -0.74,-0.82 -0.28,-0.27 -0.65,-0.5 -1.1,-0.68 -0.45,-0.18 -1.05,-0.27 -1.78,-0.27 -1.05,0 -1.84,0.22 -2.37,0.66 -0.53,0.44 -0.79,1 -0.79,1.67 0,0.4 0.12,0.76 0.35,1.07 0.23,0.32 0.67,0.6 1.32,0.85 0.65,0.25 1.62,0.53 2.9,0.82 1.39,0.27 2.48,0.64 3.28,1.1 0.8,0.46 1.37,1 1.7,1.61 0.34,0.61 0.5,1.31 0.5,2.11 0,0.88 -0.26,1.69 -0.77,2.43 -0.52,0.74 -1.27,1.32 -2.27,1.75 -1,0.43 -2.23,0.65 -3.71,0.65z"/>
  <path class="fil1" d="M71.4 15.78c-2.23,0.04 -11.26,-0.25 -12.65,0.15 -1.67,0.48 -2.28,2.45 -1.46,3.88 1,1.76 2.83,1 5.08,1.39 0.78,6.38 1.16,13.17 1.65,19.58 0.41,5.37 0.48,11.94 9.22,11.94l41.14 0c8.73,0 8.8,-6.54 9.22,-11.94 0.51,-6.46 0.87,-13.19 1.65,-19.58 2.11,-0.38 3.91,0.32 4.97,-1.22 0.97,-1.42 0.38,-3.56 -1.36,-4.05 -1.39,-0.4 -10.42,-0.11 -12.65,-0.15l-8.05 -12.19c-0.62,-0.95 -1.71,-3.21 -3.21,-3.53 -1.9,-0.4 -3.54,1.17 -3.16,3.14 0.16,0.85 1.96,3.33 2.55,4.21 1.12,1.66 4.84,6.76 5.39,8.39l-31.85 0c0.53,-1.59 4.28,-6.74 5.39,-8.39 0.59,-0.89 2.38,-3.35 2.55,-4.21 0.38,-1.97 -1.24,-3.54 -3.16,-3.13 -1.5,0.32 -2.41,2.3 -3.21,3.52 -0.89,1.37 -1.81,2.73 -2.71,4.06 -1.79,2.63 -3.85,5.56 -5.34,8.13zm8.33 10.84c-2.56,1 -1.74,5.5 -1.74,10.21 0,1.68 -1.01,9.94 3.77,7.7 2.49,-1.16 1.5,-7.21 1.5,-10.24 0,-2.86 0.78,-9.36 -3.53,-7.67zm26.45 -0.06c-2.66,0.87 -1.83,5.31 -1.83,9.99 0,3.05 -0.92,9.33 3.45,8.11 2.87,-0.8 1.82,-7.06 1.82,-10.08 0,-3.06 0.86,-9.43 -3.44,-8.02zm-15.01 3.22l0 10.71c0,2.33 0.18,4.08 2.38,4.25 2.33,0.18 2.9,-1.46 2.9,-3.69l-0 -11.27c0,-4.62 -5.28,-4.6 -5.28,0z"/>
 </g>
</svg>
