<?xml version="1.0" encoding="UTF-8"?>
<!DOCTYPE svg PUBLIC "-//W3C//DTD SVG 1.1//EN" "http://www.w3.org/Graphics/SVG/1.1/DTD/svg11.dtd">
<!-- Creator: CorelDRAW -->
<svg xmlns="http://www.w3.org/2000/svg" xml:space="preserve" width="14.5895mm" height="16.5599mm" version="1.1" style="shape-rendering:geometricPrecision; text-rendering:geometricPrecision; image-rendering:optimizeQuality; fill-rule:evenodd; clip-rule:evenodd"
viewBox="0 0 44.7 50.74"
 xmlns:xlink="http://www.w3.org/1999/xlink"
 xmlns:xodm="http://www.corel.com/coreldraw/odm/2003">
 <defs>
  <style type="text/css">
   <![CDATA[
    .fil0 {fill:#AD8B4B}
    .fil1 {fill:#2B2A29;fill-rule:nonzero}
   ]]>
  </style>
 </defs>
 <g id="Layer_x0020_1">
  <metadata id="CorelCorpID_0Corel-Layer"/>
  <g id="_1720497363920">
   <path class="fil0" d="M12.71 32.92l5.15 -0.03c1.75,0.01 1.29,-0.37 1.29,-3.99 0,-1.17 0.01,-2.35 -0,-3.52l6.41 0.02c0.04,1.34 -0.08,6.26 0.02,6.93 0.09,0.58 0.59,0.56 1.2,0.55l5.22 0.03c1.91,0 1.97,-0.65 1.97,-1.9l0.01 -12.28c0,-0.79 0.08,-0.66 -0.33,-1.06 -0.31,-0.3 -0.5,-0.43 -0.76,-0.69 -1.05,-1.03 -2.64,-2.4 -3.76,-3.43l-6.77 -6.16 -11.49 10.48c-0.24,0.32 -0.1,1.79 -0.1,2.31l0 9.77c0,1.96 -0.34,2.96 1.95,2.96z"/>
   <path class="fil0" d="M15.19 5.84c-0,-1.29 -0,-2.58 -0,-3.87 0,-1.75 -0.23,-1.45 -2.42,-1.46 -1.45,-0.01 -1.1,0.67 -1.1,2.72l-0.01 5.81c-0.07,0.27 -1.57,1.51 -1.95,1.89l-1.06 0.92c-0.36,0.31 -0.63,0.63 -0.98,0.93 -0.36,0.31 -0.68,0.61 -1.03,0.95 -0.54,0.51 -1.54,1.25 -1.09,2.6 0.3,0.91 1.15,1.65 2.41,1.42 0.89,-0.16 1.68,-1.21 2.23,-1.66 0.71,-0.58 1.32,-1.2 1.99,-1.83 0.32,-0.3 0.71,-0.59 1.03,-0.89l2.02 -1.88c0.19,-0.17 0.32,-0.25 0.49,-0.43l3.55 -3.25c0.53,-0.44 2.77,-2.64 3.08,-2.81l2.53 2.3c0.38,0.4 0.84,0.72 1.27,1.11 0.24,0.23 0.39,0.37 0.61,0.57 0.22,0.2 0.41,0.42 0.64,0.62l5.68 5.15c0.21,0.19 0.38,0.4 0.6,0.59 1.51,1.36 2.96,3.2 4.59,2.16 1.09,-0.7 1.38,-2.17 0.38,-3.24 -0.2,-0.21 -0.4,-0.38 -0.61,-0.57 -0.22,-0.19 -0.42,-0.41 -0.65,-0.6 -0.45,-0.37 -0.84,-0.78 -1.29,-1.16l-9.43 -8.6c-0.68,-0.55 -2.42,-2.36 -3.18,-2.89 -1.49,-1.02 -2.37,0.03 -3.16,0.78l-3.13 2.88c-0.32,0.29 -1.76,1.63 -2.01,1.75z"/>
  </g>
  <path class="fil1" d="M0.38 50.57c-0.12,0 -0.21,-0.04 -0.28,-0.11 -0.07,-0.07 -0.1,-0.16 -0.1,-0.27l0 -10.75c0,-0.12 0.03,-0.22 0.1,-0.29 0.07,-0.07 0.16,-0.11 0.28,-0.11l0.84 0c0.12,0 0.22,0.04 0.29,0.11 0.07,0.07 0.11,0.17 0.11,0.29l0 4.54 5.66 0 0 -4.54c0,-0.12 0.04,-0.22 0.11,-0.29 0.07,-0.07 0.16,-0.11 0.27,-0.11l0.84 0c0.12,0 0.22,0.04 0.29,0.11 0.07,0.07 0.11,0.17 0.11,0.29l0 10.75c0,0.11 -0.04,0.2 -0.11,0.27 -0.07,0.07 -0.17,0.11 -0.29,0.11l-0.84 0c-0.11,0 -0.2,-0.04 -0.27,-0.11 -0.07,-0.07 -0.11,-0.16 -0.11,-0.27l0 -4.72 -5.66 0 0 4.72c0,0.11 -0.04,0.2 -0.11,0.27 -0.07,0.07 -0.17,0.11 -0.29,0.11l-0.84 0z"/>
  <path id="_1" class="fil1" d="M15.65 50.74c-0.83,0 -1.53,-0.16 -2.09,-0.48 -0.56,-0.32 -0.99,-0.76 -1.28,-1.33 -0.3,-0.57 -0.46,-1.21 -0.49,-1.93 -0.01,-0.19 -0.02,-0.43 -0.02,-0.72 0,-0.29 0.01,-0.52 0.02,-0.7 0.03,-0.74 0.2,-1.38 0.5,-1.94 0.3,-0.56 0.73,-1 1.29,-1.32 0.56,-0.32 1.25,-0.48 2.07,-0.48 0.82,0 1.51,0.16 2.07,0.48 0.56,0.32 0.99,0.76 1.29,1.32 0.3,0.56 0.47,1.21 0.5,1.94 0.01,0.18 0.02,0.41 0.02,0.7 0,0.29 -0.01,0.53 -0.02,0.72 -0.03,0.72 -0.2,1.37 -0.49,1.93 -0.3,0.57 -0.72,1.01 -1.28,1.33 -0.56,0.32 -1.26,0.48 -2.09,0.48zm0 -1.27c0.68,0 1.22,-0.22 1.63,-0.65 0.41,-0.43 0.63,-1.07 0.66,-1.9 0.01,-0.16 0.02,-0.37 0.02,-0.63 0,-0.25 -0.01,-0.46 -0.02,-0.63 -0.03,-0.83 -0.25,-1.47 -0.66,-1.9 -0.41,-0.43 -0.95,-0.65 -1.63,-0.65 -0.68,0 -1.23,0.22 -1.64,0.65 -0.41,0.43 -0.63,1.07 -0.65,1.9 -0.01,0.16 -0.02,0.37 -0.02,0.63 0,0.25 0.01,0.46 0.02,0.63 0.02,0.83 0.24,1.47 0.65,1.9 0.41,0.43 0.96,0.65 1.64,0.65z"/>
  <path id="_2" class="fil1" d="M22.58 50.57c-0.11,0 -0.2,-0.04 -0.27,-0.11 -0.07,-0.07 -0.11,-0.16 -0.11,-0.27l0 -7.8c0,-0.11 0.04,-0.2 0.11,-0.27 0.07,-0.07 0.16,-0.11 0.27,-0.11l0.74 0c0.11,0 0.2,0.04 0.27,0.11 0.07,0.07 0.11,0.16 0.11,0.27l0 0.58c0.25,-0.34 0.57,-0.61 0.95,-0.81 0.38,-0.2 0.85,-0.3 1.38,-0.3 1.24,-0.01 2.12,0.49 2.63,1.51 0.25,-0.46 0.62,-0.83 1.1,-1.1 0.48,-0.27 1.03,-0.41 1.65,-0.41 0.57,0 1.09,0.13 1.56,0.4 0.47,0.26 0.83,0.66 1.1,1.19 0.27,0.53 0.4,1.2 0.4,2l0 4.76c0,0.11 -0.04,0.2 -0.11,0.27 -0.07,0.07 -0.16,0.11 -0.27,0.11l-0.77 0c-0.11,0 -0.2,-0.04 -0.27,-0.11 -0.07,-0.07 -0.11,-0.16 -0.11,-0.27l0 -4.61c0,-0.61 -0.09,-1.1 -0.26,-1.45 -0.18,-0.35 -0.41,-0.6 -0.71,-0.74 -0.3,-0.14 -0.62,-0.21 -0.97,-0.21 -0.29,0 -0.58,0.07 -0.87,0.21 -0.3,0.14 -0.54,0.39 -0.73,0.74 -0.19,0.35 -0.29,0.83 -0.29,1.45l0 4.61c0,0.11 -0.04,0.2 -0.11,0.27 -0.07,0.07 -0.16,0.11 -0.27,0.11l-0.77 0c-0.11,0 -0.2,-0.04 -0.27,-0.11 -0.07,-0.07 -0.11,-0.16 -0.11,-0.27l0 -4.61c0,-0.61 -0.09,-1.1 -0.28,-1.45 -0.19,-0.35 -0.43,-0.6 -0.72,-0.74 -0.3,-0.14 -0.61,-0.21 -0.94,-0.21 -0.29,0 -0.58,0.07 -0.87,0.21 -0.3,0.14 -0.54,0.39 -0.73,0.74 -0.19,0.35 -0.29,0.83 -0.29,1.43l0 4.63c0,0.11 -0.04,0.2 -0.11,0.27 -0.07,0.07 -0.16,0.11 -0.27,0.11l-0.79 0z"/>
  <path id="_3" class="fil1" d="M40.86 50.74c-1.13,0 -2.03,-0.35 -2.7,-1.05 -0.67,-0.7 -1.04,-1.65 -1.1,-2.86 -0.01,-0.14 -0.02,-0.33 -0.02,-0.55 0,-0.23 0.01,-0.41 0.02,-0.55 0.04,-0.78 0.22,-1.46 0.54,-2.05 0.32,-0.59 0.75,-1.04 1.31,-1.36 0.55,-0.32 1.2,-0.48 1.95,-0.48 0.83,0 1.53,0.18 2.1,0.53 0.57,0.35 1,0.85 1.29,1.5 0.3,0.65 0.44,1.41 0.44,2.27l0 0.28c0,0.12 -0.04,0.21 -0.11,0.28 -0.07,0.07 -0.16,0.1 -0.27,0.1l-5.7 0c0,0.01 0,0.03 0,0.07 0,0.03 0,0.06 0,0.08 0.02,0.45 0.12,0.87 0.3,1.26 0.18,0.39 0.43,0.71 0.76,0.95 0.33,0.24 0.72,0.36 1.19,0.36 0.39,0 0.72,-0.06 0.99,-0.18 0.26,-0.12 0.48,-0.26 0.64,-0.4 0.16,-0.15 0.27,-0.26 0.33,-0.34 0.1,-0.14 0.18,-0.23 0.23,-0.26 0.05,-0.03 0.14,-0.04 0.26,-0.04l0.79 0c0.11,0 0.2,0.03 0.27,0.09 0.07,0.06 0.1,0.15 0.09,0.26 -0.01,0.16 -0.1,0.36 -0.26,0.6 -0.16,0.24 -0.4,0.47 -0.71,0.7 -0.31,0.23 -0.68,0.42 -1.12,0.57 -0.44,0.15 -0.94,0.22 -1.51,0.22zm-2.24 -5.07l4.51 0 0 -0.05c0,-0.49 -0.09,-0.93 -0.27,-1.32 -0.18,-0.38 -0.44,-0.69 -0.78,-0.91 -0.34,-0.22 -0.75,-0.34 -1.22,-0.34 -0.47,0 -0.88,0.11 -1.21,0.34 -0.33,0.23 -0.59,0.53 -0.77,0.91 -0.18,0.38 -0.26,0.82 -0.26,1.32l0 0.05z"/>
 </g>
</svg>
