<?xml version="1.0" encoding="UTF-8"?>
<!DOCTYPE svg PUBLIC "-//W3C//DTD SVG 1.1//EN" "http://www.w3.org/Graphics/SVG/1.1/DTD/svg11.dtd">
<!-- Creator: CorelDRAW -->
<svg xmlns="http://www.w3.org/2000/svg" xml:space="preserve" width="80.8741mm" height="14.8849mm" version="1.1" style="shape-rendering:geometricPrecision; text-rendering:geometricPrecision; image-rendering:optimizeQuality; fill-rule:evenodd; clip-rule:evenodd"
viewBox="0 0 521.81 96.04"
 xmlns:xlink="http://www.w3.org/1999/xlink"
 xmlns:xodm="http://www.corel.com/coreldraw/odm/2003">
 <defs>
  <style type="text/css">
   <![CDATA[
    .fil0 {fill:#0D0D0D;fill-rule:nonzero}
    .fil1 {fill:#CC9933;fill-rule:nonzero}
   ]]>
  </style>
 </defs>
 <g id="Layer_x0020_1">
  <metadata id="CorelCorpID_0Corel-Layer"/>
  <path class="fil0" d="M13.55 0.3l13.02 0 13.5 42.4 -11.82 0 -2.19 -8.3 -11.98 0 -2.19 8.3 -11.88 0 13.55 -42.4zm10.45 26.33l-3.94 -14.93 -3.94 14.93 7.88 0zm15.87 -5.55c0,-2.59 0.49,-5.13 1.46,-7.61 0.98,-2.49 2.4,-4.75 4.27,-6.78 1.87,-2.03 4.15,-3.65 6.84,-4.87 2.69,-1.21 5.72,-1.82 9.11,-1.82 4.06,0 7.6,0.85 10.63,2.54 3.03,1.69 5.27,3.93 6.75,6.72l-8.9 6.33c-0.52,-1.39 -1.26,-2.47 -2.24,-3.22 -0.97,-0.76 -2.03,-1.28 -3.16,-1.58 -1.13,-0.3 -2.24,-0.45 -3.31,-0.45 -1.67,0 -3.12,0.33 -4.33,0.99 -1.21,0.66 -2.21,1.52 -2.99,2.6 -0.78,1.07 -1.35,2.27 -1.73,3.58 -0.38,1.31 -0.57,2.63 -0.57,3.94 0,1.47 0.22,2.89 0.66,4.24 0.44,1.35 1.07,2.56 1.91,3.61 0.84,1.05 1.86,1.88 3.08,2.48 1.21,0.6 2.58,0.9 4.09,0.9 1.07,0 2.17,-0.17 3.28,-0.51 1.11,-0.34 2.13,-0.89 3.05,-1.64 0.92,-0.76 1.61,-1.77 2.09,-3.05l9.49 5.67c-0.84,2.07 -2.23,3.84 -4.18,5.31 -1.95,1.47 -4.16,2.6 -6.63,3.37 -2.47,0.78 -4.92,1.16 -7.34,1.16 -3.15,0 -6.02,-0.63 -8.63,-1.88 -2.61,-1.25 -4.86,-2.93 -6.75,-5.02 -1.89,-2.09 -3.35,-4.44 -4.39,-7.05 -1.03,-2.61 -1.55,-5.26 -1.55,-7.97zm43.93 21.62l0 -42.4 19.47 0c2.07,0 3.98,0.42 5.73,1.25 1.75,0.84 3.26,1.96 4.54,3.37 1.27,1.41 2.26,3 2.96,4.75 0.7,1.75 1.05,3.52 1.05,5.31 0,1.63 -0.24,3.2 -0.72,4.72 -0.48,1.51 -1.17,2.9 -2.09,4.15 -0.92,1.25 -2.01,2.34 -3.28,3.25l8.96 15.59 -12.78 0 -7.46 -13.02 -4.72 0 0 13.02 -11.64 0zm11.64 -23.17l7.35 0c0.48,0 0.94,-0.18 1.37,-0.54 0.44,-0.36 0.81,-0.88 1.1,-1.55 0.3,-0.68 0.45,-1.49 0.45,-2.45 0,-1 -0.17,-1.82 -0.51,-2.48 -0.34,-0.66 -0.76,-1.16 -1.25,-1.52 -0.5,-0.36 -0.99,-0.54 -1.46,-0.54l-7.05 0 0 9.08zm35.09 -19.23l7.58 17.32 7.76 -17.32 12.66 0 -14.63 28.36 0 14.03 -11.58 0 0 -14.15 -14.39 -28.24 12.6 0zm31.51 42.4l0 -42.4 11.64 0 0 32.24 19.23 0 0 10.15 -30.87 0zm35.27 0l0 -42.4 11.64 0 0 42.4 -11.64 0zm16.94 -21.62c0,-2.59 0.49,-5.13 1.46,-7.61 0.98,-2.49 2.4,-4.75 4.27,-6.78 1.87,-2.03 4.15,-3.65 6.84,-4.87 2.69,-1.21 5.72,-1.82 9.11,-1.82 4.06,0 7.6,0.85 10.63,2.54 3.03,1.69 5.27,3.93 6.75,6.72l-8.9 6.33c-0.52,-1.39 -1.26,-2.47 -2.24,-3.22 -0.97,-0.76 -2.03,-1.28 -3.16,-1.58 -1.13,-0.3 -2.24,-0.45 -3.31,-0.45 -1.67,0 -3.12,0.33 -4.33,0.99 -1.21,0.66 -2.21,1.52 -2.99,2.6 -0.78,1.07 -1.35,2.27 -1.73,3.58 -0.38,1.31 -0.57,2.63 -0.57,3.94 0,1.47 0.22,2.89 0.66,4.24 0.44,1.35 1.07,2.56 1.91,3.61 0.84,1.05 1.86,1.88 3.08,2.48 1.21,0.6 2.58,0.9 4.09,0.9 1.07,0 2.17,-0.17 3.28,-0.51 1.11,-0.34 2.13,-0.89 3.05,-1.64 0.92,-0.76 1.61,-1.77 2.09,-3.05l9.49 5.67c-0.84,2.07 -2.23,3.84 -4.18,5.31 -1.95,1.47 -4.16,2.6 -6.63,3.37 -2.47,0.78 -4.92,1.16 -7.34,1.16 -3.15,0 -6.02,-0.63 -8.63,-1.88 -2.61,-1.25 -4.86,-2.93 -6.75,-5.02 -1.89,-2.09 -3.35,-4.44 -4.39,-7.05 -1.03,-2.61 -1.55,-5.26 -1.55,-7.97zm55.04 0c0,-2.59 0.49,-5.13 1.46,-7.61 0.98,-2.49 2.4,-4.75 4.27,-6.78 1.87,-2.03 4.15,-3.65 6.84,-4.87 2.69,-1.21 5.72,-1.82 9.11,-1.82 4.06,0 7.6,0.85 10.63,2.54 3.03,1.69 5.27,3.93 6.75,6.72l-8.9 6.33c-0.52,-1.39 -1.26,-2.47 -2.24,-3.22 -0.97,-0.76 -2.03,-1.28 -3.16,-1.58 -1.13,-0.3 -2.24,-0.45 -3.31,-0.45 -1.67,0 -3.12,0.33 -4.33,0.99 -1.21,0.66 -2.21,1.52 -2.99,2.6 -0.78,1.07 -1.35,2.27 -1.73,3.58 -0.38,1.31 -0.57,2.63 -0.57,3.94 0,1.47 0.22,2.89 0.66,4.24 0.44,1.35 1.07,2.56 1.91,3.61 0.84,1.05 1.86,1.88 3.08,2.48 1.21,0.6 2.58,0.9 4.09,0.9 1.07,0 2.17,-0.17 3.28,-0.51 1.11,-0.34 2.13,-0.89 3.05,-1.64 0.92,-0.76 1.61,-1.77 2.09,-3.05l9.49 5.67c-0.84,2.07 -2.23,3.84 -4.18,5.31 -1.95,1.47 -4.16,2.6 -6.63,3.37 -2.47,0.78 -4.92,1.16 -7.34,1.16 -3.15,0 -6.02,-0.63 -8.63,-1.88 -2.61,-1.25 -4.86,-2.93 -6.75,-5.02 -1.89,-2.09 -3.35,-4.44 -4.39,-7.05 -1.03,-2.61 -1.55,-5.26 -1.55,-7.97zm62.44 21.91c-3.38,0 -6.29,-0.56 -8.72,-1.67 -2.43,-1.11 -4.41,-2.64 -5.94,-4.59 -1.53,-1.95 -2.66,-4.19 -3.37,-6.71 -0.72,-2.53 -1.07,-5.17 -1.07,-7.96l0 -21.77 11.64 0 0 21.76c0,1.39 0.14,2.72 0.42,3.99 0.28,1.27 0.72,2.41 1.31,3.4 0.6,0.99 1.36,1.77 2.3,2.35 0.94,0.58 2.08,0.87 3.43,0.87 1.39,0 2.57,-0.29 3.52,-0.87 0.95,-0.58 1.72,-1.37 2.3,-2.38 0.58,-1.01 1.01,-2.16 1.28,-3.43 0.28,-1.27 0.42,-2.58 0.42,-3.93l0 -21.76 11.64 0 0 21.77c0,2.95 -0.39,5.68 -1.16,8.23 -0.78,2.54 -1.94,4.77 -3.49,6.68 -1.55,1.91 -3.53,3.38 -5.94,4.44 -2.41,1.05 -5.26,1.58 -8.57,1.58zm51.87 -28.78c0,0 -0.34,-0.2 -1.01,-0.6 -0.68,-0.4 -1.57,-0.85 -2.69,-1.34 -1.11,-0.5 -2.33,-0.95 -3.64,-1.34 -1.31,-0.4 -2.61,-0.6 -3.88,-0.6 -0.99,0 -1.81,0.16 -2.45,0.48 -0.64,0.31 -0.96,0.85 -0.96,1.59 0,0.71 0.32,1.28 0.96,1.72 0.64,0.43 1.54,0.83 2.72,1.17 1.17,0.36 2.58,0.8 4.21,1.3 2.63,0.8 4.9,1.7 6.81,2.73 1.91,1.03 3.38,2.34 4.42,3.93 1.03,1.6 1.55,3.72 1.55,6.36 0,2.53 -0.46,4.65 -1.37,6.36 -0.92,1.72 -2.15,3.1 -3.7,4.12 -1.55,1.03 -3.28,1.76 -5.2,2.22 -1.91,0.45 -3.86,0.68 -5.85,0.68 -2.03,0 -4.15,-0.21 -6.36,-0.63 -2.21,-0.42 -4.35,-0.99 -6.42,-1.73 -2.07,-0.74 -3.96,-1.6 -5.67,-2.6l5.02 -10.21c0,0 0.4,0.24 1.19,0.72 0.8,0.48 1.85,1.01 3.16,1.61 1.31,0.6 2.78,1.13 4.39,1.61 1.61,0.48 3.23,0.72 4.87,0.72 1.27,0 2.16,-0.16 2.66,-0.49 0.5,-0.32 0.75,-0.75 0.75,-1.27 0,-0.84 -0.44,-1.47 -1.31,-1.93 -0.88,-0.46 -2.02,-0.9 -3.43,-1.3 -1.41,-0.42 -2.98,-0.91 -4.69,-1.45 -2.47,-0.84 -4.5,-1.77 -6.09,-2.82 -1.59,-1.05 -2.77,-2.3 -3.52,-3.74 -0.76,-1.44 -1.13,-3.18 -1.13,-5.24 0,-3.12 0.74,-5.73 2.21,-7.82 1.47,-2.1 3.41,-3.69 5.82,-4.78 2.41,-1.08 5.01,-1.63 7.79,-1.63 2.07,0 4.07,0.25 6,0.75 1.93,0.5 3.74,1.1 5.43,1.82 1.69,0.72 3.18,1.39 4.45,2.03l-5.02 9.61zm44.53 -3.76l-12.18 0 0 32.24 -11.64 0 0 -32.24 -12.24 0 0 -10.15 36.07 0 0 10.15zm23.03 32.54c-3.22,0 -6.15,-0.61 -8.78,-1.82 -2.63,-1.21 -4.89,-2.85 -6.78,-4.9 -1.89,-2.05 -3.34,-4.36 -4.36,-6.93 -1.01,-2.57 -1.52,-5.22 -1.52,-7.97 0,-2.83 0.54,-5.51 1.61,-8.06 1.07,-2.55 2.58,-4.83 4.51,-6.84 1.93,-2.01 4.22,-3.59 6.87,-4.75 2.65,-1.15 5.54,-1.73 8.69,-1.73 3.22,0 6.15,0.61 8.78,1.82 2.63,1.21 4.88,2.86 6.75,4.93 1.87,2.07 3.31,4.39 4.33,6.96 1.02,2.57 1.52,5.2 1.52,7.91 0,2.79 -0.53,5.45 -1.58,8 -1.05,2.55 -2.55,4.83 -4.48,6.84 -1.93,2.01 -4.21,3.6 -6.84,4.78 -2.63,1.17 -5.53,1.76 -8.72,1.76zm-9.61 -21.5c0,1.43 0.2,2.82 0.6,4.15 0.4,1.33 1,2.53 1.79,3.58 0.8,1.05 1.8,1.89 3.02,2.51 1.21,0.62 2.66,0.93 4.33,0.93 1.67,0 3.12,-0.32 4.36,-0.96 1.23,-0.64 2.24,-1.5 3.02,-2.6 0.78,-1.09 1.35,-2.31 1.73,-3.64 0.38,-1.33 0.57,-2.7 0.57,-4.09 0,-1.43 -0.2,-2.81 -0.6,-4.12 -0.4,-1.31 -0.99,-2.5 -1.79,-3.55 -0.8,-1.05 -1.81,-1.88 -3.05,-2.48 -1.23,-0.6 -2.67,-0.9 -4.3,-0.9 -1.67,0 -3.12,0.32 -4.33,0.96 -1.21,0.64 -2.22,1.48 -3.02,2.54 -0.8,1.05 -1.38,2.25 -1.76,3.58 -0.38,1.33 -0.57,2.7 -0.57,4.09zm68.59 21.2l0 -22.33 -7.11 15.7 -6.21 0 -7.11 -15.7 0 22.33 -11.64 0 0 -42.4 12.72 0 9.14 19.94 9.2 -19.94 12.66 0 0 42.4 -11.64 0z"/>
  <path class="fil1" d="M170.61 54.86c1.12,0 1.98,0.39 2.58,1.16 0.6,0.77 0.9,1.72 0.9,2.84 0,0.77 -0.17,1.48 -0.52,2.13 -0.34,0.65 -0.99,0.97 -1.94,0.97 -0.69,0 -1.01,-0.28 -0.97,-0.84 0.04,-0.56 0.06,-1.14 0.06,-1.74 0,-0.95 -0.43,-1.42 -1.29,-1.42 -1.03,0 -2.34,0.49 -3.94,1.48 -1.59,0.99 -3.16,2.22 -4.71,3.68 -1.55,1.46 -2.86,2.99 -3.94,4.58 -1.08,1.59 -1.61,2.99 -1.61,4.2 0,1.46 0.54,2.56 1.61,3.29 1.08,0.73 2.39,1.1 3.94,1.1 2.24,0 4.95,-0.65 8.13,-1.94 3.18,-1.29 6.3,-2.71 9.36,-4.26 3.06,-1.55 5.7,-2.97 7.94,-4.26 2.24,-1.29 3.49,-1.94 3.74,-1.94 0.95,0 1.29,0.43 1.03,1.29 -0.26,0.6 -1.44,1.55 -3.55,2.84 -2.11,1.29 -4.45,2.58 -7.03,3.87 -2.58,1.29 -5.08,2.47 -7.49,3.55 -2.41,1.08 -4.09,1.79 -5.03,2.13 -1.46,0.43 -2.88,0.82 -4.26,1.16 -1.38,0.34 -2.71,0.52 -4,0.52 -2.24,0 -4.07,-0.54 -5.49,-1.61 -1.42,-1.08 -2.13,-2.6 -2.13,-4.58 0,-1.72 0.69,-3.64 2.07,-5.74 1.38,-2.11 3.03,-4.09 4.97,-5.94 1.94,-1.85 3.96,-3.4 6.07,-4.65 2.11,-1.25 3.94,-1.87 5.49,-1.87zm50.6 -34.85c-1.2,2.93 -2.84,6.22 -4.9,9.87 -2.07,3.66 -4.32,7.36 -6.78,11.1 -2.45,3.74 -4.97,7.38 -7.55,10.91 -2.58,3.53 -4.99,6.67 -7.23,9.42 -0.34,0.43 -0.84,1.05 -1.48,1.87 -0.65,0.82 -1.31,1.44 -2,1.87 -0.43,1.03 -0.99,2.45 -1.68,4.26 -0.69,1.81 -1.38,3.79 -2.07,5.94 -0.69,2.15 -1.27,4.3 -1.74,6.45 -0.47,2.15 -0.71,4.09 -0.71,5.81 0,1.55 0.26,2.82 0.77,3.81 0.52,0.99 1.46,1.48 2.84,1.48 1.81,0 3.85,-0.88 6.13,-2.65 2.28,-1.76 4.56,-3.83 6.84,-6.2 2.28,-2.37 4.37,-4.8 6.26,-7.29 1.89,-2.5 3.36,-4.43 4.39,-5.81 0.6,-0.95 1.31,-2.07 2.13,-3.36 0.82,-1.29 1.61,-2.37 2.39,-3.23 0.52,-0.52 1.08,-0.77 1.68,-0.77 0.43,0 0.73,0.15 0.9,0.45 0.17,0.3 0.17,0.67 0,1.1 -0.09,0.26 -0.34,0.69 -0.77,1.29 -0.43,0.6 -0.88,1.25 -1.36,1.94 -0.47,0.69 -0.95,1.36 -1.42,2 -0.47,0.65 -0.84,1.1 -1.1,1.36 -1.29,1.81 -3.01,4.09 -5.16,6.84 -2.15,2.75 -4.47,5.4 -6.97,7.94 -2.5,2.54 -5.06,4.73 -7.68,6.58 -2.62,1.85 -5.1,2.78 -7.42,2.78 -2.15,0 -3.64,-0.69 -4.45,-2.07 -0.82,-1.38 -1.23,-3.1 -1.23,-5.16 0,-2.75 0.75,-6.58 2.26,-11.49 1.51,-4.9 3.46,-10.24 5.87,-16.01 2.41,-5.77 5.08,-11.64 8,-17.62 2.93,-5.98 5.83,-11.38 8.71,-16.2 2.88,-4.82 5.55,-8.78 8,-11.88 2.45,-3.1 4.37,-4.65 5.74,-4.65 0.95,0 1.61,0.26 2,0.77 0.39,0.52 0.58,1.16 0.58,1.94 0,0.95 -0.17,2 -0.52,3.16 -0.34,1.16 -0.73,2.17 -1.16,3.03l-0.13 0.39zm-26.98 37.95c0.95,-1.12 2.24,-2.75 3.87,-4.9 1.63,-2.15 3.4,-4.6 5.29,-7.36 1.89,-2.75 3.81,-5.68 5.74,-8.78 1.94,-3.1 3.7,-6.07 5.29,-8.91 1.59,-2.84 2.9,-5.46 3.94,-7.87 1.03,-2.41 1.55,-4.35 1.55,-5.81 0,-0.43 -0.13,-0.65 -0.39,-0.65 -0.34,0 -0.92,0.52 -1.74,1.55 -0.82,1.03 -1.7,2.24 -2.65,3.61 -0.95,1.38 -1.83,2.69 -2.65,3.94 -0.82,1.25 -1.36,2.09 -1.61,2.52 -3.27,5.42 -6.26,10.84 -8.97,16.26 -2.71,5.42 -5.27,10.89 -7.68,16.39zm31.49 0c0.43,0 0.88,0.06 1.35,0.19 0.47,0.13 0.84,0.37 1.1,0.71 0.86,0.09 1.33,0.49 1.42,1.23 0.09,0.73 0.04,1.57 -0.13,2.52 0.86,1.2 2.15,2.11 3.87,2.71 1.72,0.6 3.31,0.9 4.78,0.9 1.03,0 2.07,-0.13 3.1,-0.39 1.03,-0.26 1.96,-0.56 2.78,-0.9 0.82,-0.34 1.51,-0.65 2.07,-0.9 0.56,-0.26 0.88,-0.39 0.97,-0.39 0.95,0 1.29,0.43 1.03,1.29 -0.34,0.77 -1.01,1.42 -2,1.94 -0.99,0.52 -2.07,0.95 -3.23,1.29 -1.16,0.34 -2.3,0.6 -3.42,0.77 -1.12,0.17 -1.98,0.26 -2.58,0.26 -1.72,0 -3.33,-0.24 -4.84,-0.71 -1.51,-0.47 -2.82,-1.18 -3.94,-2.13 -0.52,0.95 -1.1,1.91 -1.74,2.9 -0.65,0.99 -1.4,1.91 -2.26,2.78 -0.86,0.86 -1.74,1.55 -2.65,2.07 -0.9,0.52 -1.87,0.77 -2.9,0.77 -1.29,0 -2.22,-0.37 -2.78,-1.1 -0.56,-0.73 -0.84,-1.66 -0.84,-2.78 0,-1.21 0.34,-2.56 1.03,-4.07 0.69,-1.51 1.55,-2.93 2.58,-4.26 1.03,-1.33 2.19,-2.45 3.48,-3.36 1.29,-0.9 2.54,-1.36 3.74,-1.36zm0.39 5.81c-0.09,-0.26 -0.22,-0.73 -0.39,-1.42 -0.09,-0.17 -0.11,-0.37 -0.07,-0.58 0.04,-0.22 0.07,-0.41 0.07,-0.58 -0.52,-0.17 -0.95,-0.26 -1.29,-0.26 -0.6,0 -1.29,0.34 -2.07,1.03 -0.77,0.69 -1.46,1.51 -2.07,2.45 -0.6,0.95 -1.12,1.96 -1.55,3.03 -0.43,1.08 -0.65,1.96 -0.65,2.65 0,1.2 0.47,1.81 1.42,1.81 0.69,0 1.38,-0.3 2.07,-0.9 0.69,-0.6 1.33,-1.33 1.94,-2.19 0.6,-0.86 1.12,-1.76 1.55,-2.71 0.43,-0.95 0.77,-1.72 1.03,-2.32zm34.72 -8.91c1.12,0 1.98,0.39 2.58,1.16 0.6,0.77 0.9,1.72 0.9,2.84 0,0.77 -0.17,1.48 -0.52,2.13 -0.34,0.65 -0.99,0.97 -1.94,0.97 -0.69,0 -1.01,-0.28 -0.97,-0.84 0.04,-0.56 0.06,-1.14 0.06,-1.74 0,-0.95 -0.43,-1.42 -1.29,-1.42 -1.03,0 -2.34,0.49 -3.94,1.48 -1.59,0.99 -3.16,2.22 -4.71,3.68 -1.55,1.46 -2.86,2.99 -3.94,4.58 -1.08,1.59 -1.61,2.99 -1.61,4.2 0,1.46 0.54,2.56 1.61,3.29 1.08,0.73 2.39,1.1 3.94,1.1 2.24,0 4.95,-0.65 8.13,-1.94 3.18,-1.29 6.3,-2.71 9.36,-4.26 3.06,-1.55 5.7,-2.97 7.94,-4.26 2.24,-1.29 3.49,-1.94 3.74,-1.94 0.95,0 1.29,0.43 1.03,1.29 -0.26,0.6 -1.44,1.55 -3.55,2.84 -2.11,1.29 -4.45,2.58 -7.03,3.87 -2.58,1.29 -5.08,2.47 -7.49,3.55 -2.41,1.08 -4.09,1.79 -5.03,2.13 -1.46,0.43 -2.88,0.82 -4.26,1.16 -1.38,0.34 -2.71,0.52 -4,0.52 -2.24,0 -4.07,-0.54 -5.49,-1.61 -1.42,-1.08 -2.13,-2.6 -2.13,-4.58 0,-1.72 0.69,-3.64 2.07,-5.74 1.38,-2.11 3.03,-4.09 4.97,-5.94 1.94,-1.85 3.96,-3.4 6.07,-4.65 2.11,-1.25 3.94,-1.87 5.49,-1.87zm49.05 -35.62c0,1.2 -0.49,2.9 -1.48,5.1 -0.99,2.19 -2.26,4.6 -3.81,7.23 -1.55,2.62 -3.27,5.29 -5.16,8 -1.89,2.71 -3.79,5.23 -5.68,7.55 -1.89,2.32 -3.64,4.3 -5.23,5.94 -1.59,1.63 -2.86,2.67 -3.81,3.1 -1.03,2.75 -1.98,5.46 -2.84,8.13 -0.86,2.67 -1.63,5.34 -2.32,8 0.77,-1.12 1.91,-2.65 3.42,-4.58 1.51,-1.94 3.12,-3.87 4.84,-5.81 1.72,-1.94 3.46,-3.61 5.23,-5.03 1.76,-1.42 3.33,-2.13 4.71,-2.13 1.89,0 2.84,0.95 2.84,2.84 0,0.52 -0.13,1.12 -0.39,1.81 -0.52,1.2 -1.29,2.19 -2.32,2.97 -1.03,0.77 -2.19,1.44 -3.49,2 -1.29,0.56 -2.6,1.08 -3.94,1.55 -1.33,0.47 -2.47,1.01 -3.42,1.61 -0.26,1.03 -0.3,2.28 -0.13,3.74 0.17,1.46 0.49,2.86 0.97,4.19 0.47,1.33 1.12,2.5 1.94,3.49 0.82,0.99 1.79,1.48 2.9,1.48 1.29,0 2.84,-0.45 4.65,-1.35 1.81,-0.9 3.61,-2 5.42,-3.29 1.81,-1.29 3.55,-2.62 5.23,-4 1.68,-1.38 3.03,-2.58 4.07,-3.61 0.69,-0.69 1.36,-1.4 2,-2.13 0.65,-0.73 1.4,-1.44 2.26,-2.13 0.17,-0.17 0.37,-0.28 0.58,-0.32 0.22,-0.04 0.41,-0.06 0.58,-0.06 0.95,0 1.29,0.43 1.03,1.29 -0.26,0.52 -0.84,1.23 -1.74,2.13 -0.9,0.9 -1.57,1.57 -2,2 -1.38,1.29 -3.05,2.78 -5.03,4.45 -1.98,1.68 -4.02,3.27 -6.13,4.78 -2.11,1.51 -4.22,2.75 -6.32,3.74 -2.11,0.99 -4.02,1.48 -5.74,1.48 -1.46,0 -2.69,-0.39 -3.68,-1.16 -0.99,-0.77 -1.79,-1.74 -2.39,-2.9 -0.6,-1.16 -1.03,-2.41 -1.29,-3.74 -0.26,-1.33 -0.43,-2.56 -0.52,-3.68l0 -0.9c-0.43,0.52 -0.77,0.95 -1.03,1.29 -0.26,0.34 -0.47,0.65 -0.65,0.9 -0.43,0.69 -1.01,1.59 -1.74,2.71 -0.73,1.12 -1.35,1.94 -1.87,2.45 -0.34,0.52 -0.82,0.77 -1.42,0.77 -0.69,0 -1.08,-0.17 -1.16,-0.52 -0.34,-0.95 -0.13,-2.93 0.65,-5.94 0.77,-3.01 1.79,-6.32 3.03,-9.94 1.25,-3.61 2.5,-7.08 3.74,-10.39 1.25,-3.31 2.17,-5.7 2.78,-7.16 0.52,-1.38 1.59,-3.64 3.23,-6.78 1.63,-3.14 3.51,-6.35 5.61,-9.62 2.11,-3.27 4.28,-6.15 6.52,-8.65 2.24,-2.5 4.26,-3.74 6.07,-3.74 0.95,0 1.59,0.28 1.94,0.84 0.34,0.56 0.52,1.23 0.52,2zm-23.49 32.4c1.2,-1.2 2.93,-3.18 5.16,-5.94 2.24,-2.75 4.47,-5.74 6.71,-8.97 2.24,-3.23 4.17,-6.37 5.81,-9.42 1.63,-3.06 2.45,-5.4 2.45,-7.03 0,-0.52 -0.13,-0.77 -0.39,-0.77 -0.17,0 -0.49,0.19 -0.97,0.58 -0.47,0.39 -0.8,0.67 -0.97,0.84 -2.07,1.81 -3.96,3.96 -5.68,6.45 -1.72,2.5 -3.31,5.1 -4.78,7.81 -1.46,2.71 -2.8,5.49 -4,8.33 -1.2,2.84 -2.32,5.55 -3.36,8.13zm3.23 11.88c1.63,-0.69 3.18,-1.33 4.65,-1.94 1.46,-0.6 2.41,-1.42 2.84,-2.45 0.43,-0.86 0.17,-1.29 -0.77,-1.29 -0.69,0 -1.63,0.56 -2.84,1.68 -1.2,1.12 -2.5,2.45 -3.87,4zm36.4 -8.26c0.95,0 1.68,0.41 2.19,1.23 0.52,0.82 0.77,1.7 0.77,2.65 0,0.69 -0.13,1.29 -0.39,1.81 -0.17,0.43 -0.45,0.77 -0.84,1.03 -0.39,0.26 -0.8,0.39 -1.23,0.39 -0.69,0 -1.03,-0.3 -1.03,-0.9 0,-0.6 0,-1.25 0,-1.94 0,-0.77 -0.26,-1.16 -0.77,-1.16 -1.03,0 -2.09,0.6 -3.16,1.81 -1.08,1.2 -1.79,2.24 -2.13,3.1 -0.69,1.81 -1.03,4.04 -1.03,6.71 0,2.67 0.09,5.38 0.26,8.13 0.17,-0.09 0.95,-0.52 2.32,-1.29 1.38,-0.77 3.08,-1.68 5.1,-2.71 2.02,-1.03 4.2,-2.15 6.52,-3.36 2.32,-1.2 4.5,-2.3 6.52,-3.29 2.02,-0.99 3.74,-1.83 5.16,-2.52 1.42,-0.69 2.22,-1.03 2.39,-1.03 0.95,0 1.29,0.43 1.03,1.29 -0.26,0.52 -0.56,0.9 -0.9,1.16 -1.38,1.03 -2.88,1.89 -4.52,2.58 -1.63,0.69 -3.18,1.38 -4.65,2.07 -0.69,0.34 -1.72,0.86 -3.1,1.55 -1.38,0.69 -2.93,1.48 -4.65,2.39 -1.72,0.9 -3.55,1.87 -5.49,2.9 -1.94,1.03 -3.81,2.07 -5.61,3.1 0.09,1.89 0.04,3.7 -0.13,5.42 -0.17,1.72 -0.56,3.31 -1.16,4.78 -0.6,1.38 -1.68,2.54 -3.23,3.48 -1.55,0.95 -2.97,1.42 -4.26,1.42 -1.72,0 -2.95,-0.39 -3.68,-1.16 -0.73,-0.77 -1.1,-1.81 -1.1,-3.1 0,-1.03 0.3,-2.37 0.9,-4 0.43,-1.03 1.51,-2.24 3.23,-3.61 1.72,-1.38 3.79,-2.8 6.2,-4.26 -0.09,-1.38 -0.17,-2.78 -0.26,-4.2 -0.09,-1.42 -0.13,-2.82 -0.13,-4.19 0,-3.27 0.43,-6.02 1.29,-8.26 0.34,-0.86 0.86,-1.76 1.55,-2.71 0.69,-0.95 1.46,-1.81 2.32,-2.58 0.86,-0.77 1.79,-1.42 2.78,-1.94 0.99,-0.52 1.96,-0.77 2.9,-0.77zm-10.45 27.49c-1.72,1.03 -3.18,2 -4.39,2.9 -1.2,0.9 -1.89,1.66 -2.07,2.26 -0.43,1.12 -0.65,2.02 -0.65,2.71 0,1.63 0.9,2.45 2.71,2.45 0.52,0 1.16,-0.19 1.94,-0.58 0.77,-0.39 1.25,-0.88 1.42,-1.48 0.43,-1.12 0.71,-2.39 0.84,-3.81 0.13,-1.42 0.19,-2.9 0.19,-4.45z"/>
 </g>
</svg>
