<?xml version="1.0" encoding="UTF-8"?>
<!DOCTYPE svg PUBLIC "-//W3C//DTD SVG 1.1//EN" "http://www.w3.org/Graphics/SVG/1.1/DTD/svg11.dtd">
<!-- Creator: CorelDRAW -->
<svg xmlns="http://www.w3.org/2000/svg" xml:space="preserve" width="20.2957mm" height="34.1669mm" version="1.1" style="shape-rendering:geometricPrecision; text-rendering:geometricPrecision; image-rendering:optimizeQuality; fill-rule:evenodd; clip-rule:evenodd"
viewBox="0 0 104.93 176.64"
 xmlns:xlink="http://www.w3.org/1999/xlink"
 xmlns:xodm="http://www.corel.com/coreldraw/odm/2003">
 <defs>
  <style type="text/css">
   <![CDATA[
    .fil0 {fill:black}
   ]]>
  </style>
 </defs>
 <g id="Layer_x0020_1">
  <metadata id="CorelCorpID_0Corel-Layer"/>
  <path class="fil0" d="M-0 86.37c0,9.27 0.67,9.74 8.21,17.28l69.94 69.8c10.49,7.95 26.78,-0.13 26.78,-11.58l0 -4.9c0,-6.22 -10.46,-15.12 -14.1,-18.75 -4.1,-4.1 -48.14,-47.64 -49.64,-49.89l49.4 -49.64c3.68,-3.68 14.34,-12.75 14.34,-19 0,-5.64 0.24,-10.23 -5.01,-15.09 -5.69,-5.27 -14.96,-6.29 -21.48,-1.59 -2.47,1.78 -62.4,62.19 -70.22,70.01 -3.15,3.15 -8.21,7.18 -8.21,13.36z"/>
 </g>
</svg>
