<?xml version="1.0" encoding="UTF-8"?>
<!DOCTYPE svg PUBLIC "-//W3C//DTD SVG 1.1//EN" "http://www.w3.org/Graphics/SVG/1.1/DTD/svg11.dtd">
<!-- Creator: CorelDRAW -->
<svg xmlns="http://www.w3.org/2000/svg" xml:space="preserve" width="20.2962mm" height="34.1646mm" version="1.1" style="shape-rendering:geometricPrecision; text-rendering:geometricPrecision; image-rendering:optimizeQuality; fill-rule:evenodd; clip-rule:evenodd"
viewBox="0 0 47.08 79.25"
 xmlns:xlink="http://www.w3.org/1999/xlink"
 xmlns:xodm="http://www.corel.com/coreldraw/odm/2003">
 <defs>
  <style type="text/css">
   <![CDATA[
    .fil0 {fill:white}
   ]]>
  </style>
 </defs>
 <g id="Layer_x0020_1">
  <metadata id="CorelCorpID_0Corel-Layer"/>
  <g id="_1684099406256">
   <path class="fil0" d="M-0 38.75c0,4.16 0.3,4.37 3.68,7.75l31.38 31.32c4.71,3.57 12.02,-0.06 12.02,-5.2l0 -2.2c0,-2.79 -4.69,-6.78 -6.33,-8.41 -1.84,-1.84 -21.6,-21.38 -22.27,-22.38l22.16 -22.27c1.65,-1.65 6.43,-5.72 6.43,-8.52 0,-2.53 0.11,-4.59 -2.25,-6.77 -2.55,-2.36 -6.71,-2.82 -9.64,-0.71 -1.11,0.8 -28,27.9 -31.51,31.41 -1.41,1.41 -3.68,3.22 -3.68,5.99l-0 -0z"/>
  </g>
 </g>
</svg>
