<?xml version="1.0" encoding="UTF-8"?>
<!DOCTYPE svg PUBLIC "-//W3C//DTD SVG 1.1//EN" "http://www.w3.org/Graphics/SVG/1.1/DTD/svg11.dtd">
<!-- Creator: CorelDRAW -->
<svg xmlns="http://www.w3.org/2000/svg" xml:space="preserve" width="26.7162mm" height="15.8821mm" version="1.1" style="shape-rendering:geometricPrecision; text-rendering:geometricPrecision; image-rendering:optimizeQuality; fill-rule:evenodd; clip-rule:evenodd"
viewBox="0 0 129.81 77.17"
 xmlns:xlink="http://www.w3.org/1999/xlink"
 xmlns:xodm="http://www.corel.com/coreldraw/odm/2003">
 <defs>
  <style type="text/css">
   <![CDATA[
    .fil0 {fill:#AD8B4B}
    .fil1 {fill:#2B2A29;fill-rule:nonzero}
   ]]>
  </style>
 </defs>
 <g id="Layer_x0020_1">
  <metadata id="CorelCorpID_0Corel-Layer"/>
  <path class="fil0" d="M47.4 4.15c0.03,-2.24 0.39,-4.25 3.23,-4.15 2.64,0.1 2.98,2.1 3,4.24l3.44 -0c0.02,-2.16 0.32,-4.16 3.01,-4.23 2.9,-0.08 3.18,1.9 3.2,4.2l3.38 -0.07c0.02,-2.26 0.34,-4.21 3.2,-4.13 2.69,0.07 2.99,2.07 3.02,4.23l3.44 0c0.02,-2.14 0.36,-4.14 3,-4.24 2.84,-0.1 3.2,1.91 3.23,4.16 1.07,0.19 2.12,0.22 3.2,0.27 0.97,0.04 2.04,0.1 2.94,0.5 2.68,1.19 2.75,5.38 2.75,7.84l0 25.96c0,2.69 0.13,4.85 -2.12,6.69 -2.48,2.04 -12.4,1.14 -15.98,1.18 -2.25,1.93 -4.29,4.23 -6.36,6.35 -0.9,0.92 -1.8,1.71 -3.05,0.89 -0.58,-0.38 -1.17,-1 -1.65,-1.51 -0.84,-0.88 -1.66,-1.76 -2.52,-2.62 -0.71,-0.71 -2.37,-2.69 -3.29,-3.01 -0.55,-0.19 -1.29,-0.18 -1.86,-0.18 -1.33,0 -2.67,0.04 -4,0.05 -3.39,0 -8.31,0.88 -10.81,-1.97 -2.1,-2.4 -1.3,-8.62 -1.3,-11.7 0,-4.33 -0.06,-8.66 -0.07,-12.98 -0,-2.54 0,-5.09 0.06,-7.63 0.02,-0.94 0,-3.31 0.25,-4.17 0.65,-2.22 2.12,-3.39 4.34,-3.77 0.86,-0.15 1.73,-0.17 2.6,-0.17 0.52,-0 1.16,0.02 1.7,-0.05zm28.54 39.84c2.4,0.01 4.79,0.09 7.19,0.1 1.16,0 2.96,0.02 4.04,-0.4 0.86,-0.34 1.2,-0.93 1.4,-1.8 0.32,-1.37 0.26,-3.27 0.26,-4.68 0,-6.83 0.02,-13.66 0,-20.49l-47.71 0.01c-0.05,6.83 -0,13.65 -0,20.48 -0,1.41 -0.04,3.35 0.33,4.72 0.24,0.9 0.64,1.48 1.52,1.8 1.12,0.41 2.89,0.38 4.08,0.38 2.34,-0.02 4.68,-0.1 7.02,-0.1 -0.69,-0.81 -1.54,-1.58 -2.28,-2.31 -1.14,-1.11 -2.27,-2.27 -3.18,-3.58 -2.38,-3.42 -2.42,-6.83 -0.38,-10.49 1.64,-2.94 4.83,-4.78 8.18,-4.9 1.86,-0.06 3.53,0.38 5.14,1.28 0.81,0.45 1.39,0.94 2.03,1.59 0.46,0.47 0.85,0.88 1.39,1.23 1.16,-0.74 1.87,-1.93 3.22,-2.71 1.7,-0.99 3.37,-1.44 5.35,-1.38 3.34,0.1 6.54,1.96 8.18,4.89 2.03,3.61 1.94,7.02 -0.34,10.43 -0.89,1.34 -2,2.52 -3.14,3.64 -0.75,0.75 -1.59,1.5 -2.31,2.3zm-10.96 6.91c2.42,-2.55 4.97,-4.98 7.45,-7.47 1.32,-1.33 2.73,-2.53 4.01,-3.91 1.35,-1.47 2.75,-2.25 3.51,-4.24 1.45,-3.8 -0.45,-8.07 -4.26,-9.51 -2.55,-0.96 -4.68,-0.54 -6.77,1.13 -0.77,0.61 -1.42,1.3 -2.13,1.97 -0.46,0.44 -1.14,1.08 -1.81,1.08 -0.68,-0 -1.34,-0.61 -1.8,-1.06 -0.68,-0.65 -1.31,-1.33 -2.05,-1.93 -2.04,-1.66 -4.12,-2.1 -6.65,-1.26 -3.95,1.32 -5.96,5.72 -4.48,9.59 0.66,1.73 5.71,6.6 7.16,8.03 1.62,1.59 3.27,3.17 4.91,4.74 0.96,0.92 2,1.88 2.92,2.86zm-23.75 -36.8l47.5 -0.01c0.3,-1.57 0.3,-5.14 -0.59,-6.21 -1.13,-1.36 -3.82,-1.13 -5.53,-1 -0.27,2.08 -0.24,4.22 -2.97,4.35 -2.99,0.14 -3.29,-2.04 -3.31,-4.39l-3.45 0c-0.01,2.29 -0.09,4.32 -3.02,4.39 -2.94,0.07 -2.93,-2.15 -3.24,-4.33l-3.28 -0.03c-0.26,2.06 -0.23,4.23 -2.94,4.36 -3.05,0.14 -3.31,-2 -3.32,-4.39l-3.45 -0c-0.01,2.21 -0.21,4.34 -3.01,4.38 -2.95,0.04 -2.94,-2.11 -3.27,-4.33 -1.67,-0.16 -4.41,-0.35 -5.53,0.99 -0.9,1.07 -0.89,4.63 -0.59,6.21zm19.33 -11.44l-0.57 -0c-0.46,1.08 -0.73,5.91 0.15,5.98 0.55,0.05 0.63,-2.23 0.64,-2.55 0.02,-0.99 -0.03,-2.39 -0.22,-3.42zm-9.84 0.05c-0.33,0.02 -0.68,0.1 -0.75,0.45 -0.09,0.46 0.05,1.45 0.05,1.96 0.01,0.67 -0.32,3.13 0.35,3.47 1.17,0.6 0.73,-4.77 0.35,-5.88zm19.26 -0.03l-0.59 -0.02c-0.24,1.31 -0.11,3.02 -0.11,4.32 0,0.32 0.11,1.65 0.56,1.73 0.33,0.06 0.43,-0.95 0.43,-1.13 0,-1.21 0.35,-3.8 -0.3,-4.9zm9.71 0.05l-0.47 -0.06c-0.42,1.13 -0.69,5.86 0.17,5.95 0.96,0.1 0.59,-4.81 0.29,-5.9z"/>
  <path class="fil1" d="M7.26 77.17c-1.48,0 -2.75,-0.26 -3.81,-0.77 -1.06,-0.51 -1.88,-1.31 -2.45,-2.38 -0.57,-1.07 -0.9,-2.41 -0.97,-4.03 -0.02,-0.77 -0.03,-1.5 -0.03,-2.21 0,-0.71 0.01,-1.44 0.03,-2.21 0.07,-1.6 0.4,-2.94 1.01,-4.01 0.6,-1.07 1.44,-1.87 2.51,-2.4 1.07,-0.53 2.31,-0.8 3.72,-0.8 1.43,0 2.68,0.27 3.75,0.8 1.07,0.53 1.91,1.33 2.52,2.4 0.61,1.07 0.94,2.41 0.99,4.01 0.03,0.77 0.05,1.5 0.05,2.21 0,0.71 -0.02,1.44 -0.05,2.21 -0.05,1.62 -0.37,2.96 -0.95,4.03 -0.58,1.07 -1.41,1.86 -2.47,2.38 -1.06,0.51 -2.34,0.77 -3.84,0.77zm0 -2.22c1.34,0 2.43,-0.4 3.28,-1.2 0.84,-0.8 1.3,-2.1 1.37,-3.89 0.03,-0.78 0.05,-1.48 0.05,-2.1 0,-0.62 -0.02,-1.31 -0.05,-2.08 -0.03,-1.2 -0.26,-2.18 -0.67,-2.92 -0.41,-0.75 -0.95,-1.3 -1.63,-1.64 -0.68,-0.35 -1.46,-0.52 -2.35,-0.52 -0.85,0 -1.62,0.17 -2.3,0.52 -0.68,0.35 -1.22,0.9 -1.63,1.64 -0.41,0.75 -0.64,1.72 -0.69,2.92 -0.02,0.77 -0.03,1.46 -0.03,2.08 0,0.62 0.01,1.32 0.03,2.1 0.07,1.79 0.53,3.09 1.38,3.89 0.85,0.8 1.93,1.2 3.24,1.2zm17.24 2.22c-1.24,0 -2.3,-0.24 -3.2,-0.72 -0.9,-0.48 -1.59,-1.17 -2.08,-2.06 -0.49,-0.9 -0.75,-1.97 -0.78,-3.22 -0.02,-0.26 -0.03,-0.61 -0.03,-1.04 0,-0.44 0.01,-0.78 0.03,-1.04 0.03,-1.25 0.3,-2.33 0.78,-3.22 0.49,-0.9 1.18,-1.58 2.08,-2.06 0.9,-0.48 1.96,-0.72 3.2,-0.72 1.01,0 1.88,0.14 2.6,0.42 0.72,0.28 1.32,0.64 1.79,1.07 0.47,0.43 0.82,0.91 1.06,1.41 0.24,0.5 0.36,0.98 0.38,1.44 0.02,0.17 -0.03,0.31 -0.16,0.42 -0.12,0.1 -0.27,0.16 -0.44,0.16l-1.25 0c-0.17,0 -0.3,-0.04 -0.39,-0.12 -0.09,-0.08 -0.17,-0.21 -0.26,-0.4 -0.31,-0.85 -0.74,-1.45 -1.28,-1.8 -0.54,-0.35 -1.21,-0.52 -2.01,-0.52 -1.04,0 -1.89,0.32 -2.55,0.97 -0.65,0.64 -1.01,1.68 -1.06,3.11 -0.02,0.63 -0.02,1.24 0,1.83 0.05,1.45 0.4,2.48 1.06,3.12 0.65,0.64 1.5,0.95 2.55,0.95 0.8,0 1.47,-0.17 2.01,-0.52 0.54,-0.35 0.97,-0.95 1.28,-1.8 0.09,-0.19 0.17,-0.33 0.26,-0.4 0.09,-0.08 0.22,-0.12 0.39,-0.12l1.25 0c0.17,0 0.32,0.05 0.44,0.16 0.12,0.1 0.17,0.24 0.16,0.42 -0.02,0.37 -0.1,0.74 -0.23,1.12 -0.14,0.38 -0.36,0.77 -0.67,1.16 -0.3,0.39 -0.68,0.74 -1.14,1.04 -0.45,0.3 -1,0.55 -1.63,0.73 -0.64,0.18 -1.35,0.27 -2.15,0.27zm15.39 0c-1.24,0 -2.3,-0.24 -3.2,-0.72 -0.9,-0.48 -1.59,-1.17 -2.08,-2.06 -0.49,-0.9 -0.75,-1.97 -0.78,-3.22 -0.02,-0.26 -0.03,-0.61 -0.03,-1.04 0,-0.44 0.01,-0.78 0.03,-1.04 0.03,-1.25 0.3,-2.33 0.78,-3.22 0.49,-0.9 1.18,-1.58 2.08,-2.06 0.9,-0.48 1.96,-0.72 3.2,-0.72 1.01,0 1.88,0.14 2.6,0.42 0.72,0.28 1.32,0.64 1.79,1.07 0.47,0.43 0.82,0.91 1.06,1.41 0.24,0.5 0.36,0.98 0.38,1.44 0.02,0.17 -0.03,0.31 -0.16,0.42 -0.12,0.1 -0.27,0.16 -0.44,0.16l-1.25 0c-0.17,0 -0.3,-0.04 -0.39,-0.12 -0.09,-0.08 -0.17,-0.21 -0.26,-0.4 -0.31,-0.85 -0.74,-1.45 -1.28,-1.8 -0.54,-0.35 -1.21,-0.52 -2.01,-0.52 -1.04,0 -1.89,0.32 -2.55,0.97 -0.65,0.64 -1.01,1.68 -1.06,3.11 -0.02,0.63 -0.02,1.24 0,1.83 0.05,1.45 0.4,2.48 1.06,3.12 0.65,0.64 1.5,0.95 2.55,0.95 0.8,0 1.47,-0.17 2.01,-0.52 0.54,-0.35 0.97,-0.95 1.28,-1.8 0.09,-0.19 0.17,-0.33 0.26,-0.4 0.09,-0.08 0.22,-0.12 0.39,-0.12l1.25 0c0.17,0 0.32,0.05 0.44,0.16 0.12,0.1 0.17,0.24 0.16,0.42 -0.02,0.37 -0.1,0.74 -0.23,1.12 -0.14,0.38 -0.36,0.77 -0.67,1.16 -0.3,0.39 -0.68,0.74 -1.14,1.04 -0.45,0.3 -1,0.55 -1.63,0.73 -0.64,0.18 -1.35,0.27 -2.15,0.27zm13.69 0c-0.87,0 -1.66,-0.17 -2.38,-0.52 -0.71,-0.35 -1.29,-0.82 -1.72,-1.41 -0.44,-0.59 -0.65,-1.26 -0.65,-2.01 0,-1.2 0.49,-2.16 1.46,-2.87 0.98,-0.71 2.25,-1.18 3.81,-1.41l3.89 -0.55 0 -0.76c0,-0.84 -0.24,-1.49 -0.72,-1.96 -0.48,-0.47 -1.26,-0.71 -2.34,-0.71 -0.78,0 -1.41,0.16 -1.89,0.47 -0.48,0.31 -0.81,0.71 -1.01,1.2 -0.1,0.26 -0.29,0.39 -0.55,0.39l-1.17 0c-0.19,0 -0.33,-0.06 -0.43,-0.17 -0.1,-0.11 -0.14,-0.25 -0.14,-0.4 0,-0.26 0.1,-0.58 0.3,-0.97 0.2,-0.38 0.51,-0.76 0.93,-1.12 0.42,-0.37 0.95,-0.67 1.61,-0.93 0.65,-0.25 1.45,-0.38 2.39,-0.38 1.04,0 1.92,0.14 2.64,0.4 0.71,0.27 1.27,0.63 1.68,1.08 0.41,0.45 0.7,0.97 0.89,1.54 0.18,0.57 0.27,1.16 0.27,1.75l0 8.46c0,0.17 -0.06,0.32 -0.17,0.43 -0.11,0.11 -0.26,0.17 -0.43,0.17l-1.2 0c-0.19,0 -0.34,-0.06 -0.44,-0.17 -0.1,-0.11 -0.16,-0.26 -0.16,-0.43l0 -1.12c-0.23,0.31 -0.53,0.62 -0.91,0.93 -0.38,0.3 -0.86,0.56 -1.44,0.76 -0.57,0.2 -1.28,0.3 -2.12,0.3zm0.55 -1.96c0.71,0 1.37,-0.15 1.96,-0.46 0.59,-0.3 1.06,-0.78 1.4,-1.42 0.34,-0.64 0.51,-1.45 0.51,-2.43l0 -0.73 -3.03 0.44c-1.24,0.17 -2.17,0.47 -2.79,0.87 -0.63,0.41 -0.94,0.93 -0.94,1.55 0,0.49 0.14,0.89 0.43,1.21 0.29,0.32 0.65,0.56 1.1,0.72 0.44,0.16 0.9,0.23 1.37,0.23zm15.75 1.96c-0.97,0 -1.81,-0.12 -2.51,-0.37 -0.7,-0.24 -1.26,-0.54 -1.7,-0.89 -0.43,-0.35 -0.76,-0.7 -0.98,-1.04 -0.22,-0.35 -0.33,-0.63 -0.35,-0.84 -0.02,-0.19 0.04,-0.34 0.18,-0.44 0.14,-0.1 0.28,-0.16 0.42,-0.16l1.15 0c0.1,0 0.19,0.01 0.25,0.04 0.06,0.03 0.14,0.1 0.25,0.22 0.23,0.24 0.48,0.49 0.76,0.73 0.28,0.24 0.62,0.44 1.03,0.6 0.41,0.16 0.92,0.24 1.53,0.24 0.89,0 1.62,-0.17 2.19,-0.51 0.57,-0.34 0.86,-0.84 0.86,-1.5 0,-0.44 -0.12,-0.78 -0.35,-1.04 -0.23,-0.26 -0.65,-0.5 -1.25,-0.71 -0.6,-0.21 -1.42,-0.43 -2.47,-0.65 -1.04,-0.24 -1.87,-0.54 -2.48,-0.9 -0.61,-0.36 -1.04,-0.78 -1.31,-1.28 -0.26,-0.5 -0.39,-1.06 -0.39,-1.68 0,-0.64 0.19,-1.27 0.57,-1.87 0.38,-0.6 0.94,-1.09 1.68,-1.48 0.74,-0.38 1.67,-0.57 2.78,-0.57 0.91,0 1.68,0.11 2.32,0.34 0.64,0.23 1.17,0.51 1.59,0.85 0.42,0.34 0.73,0.67 0.94,1.01 0.21,0.33 0.32,0.61 0.34,0.84 0.02,0.17 -0.03,0.32 -0.16,0.43 -0.12,0.11 -0.26,0.17 -0.42,0.17l-1.1 0c-0.12,0 -0.22,-0.03 -0.3,-0.08 -0.08,-0.05 -0.15,-0.11 -0.22,-0.18 -0.17,-0.23 -0.38,-0.45 -0.61,-0.68 -0.24,-0.23 -0.54,-0.41 -0.91,-0.56 -0.37,-0.15 -0.87,-0.22 -1.48,-0.22 -0.87,0 -1.52,0.18 -1.96,0.55 -0.44,0.37 -0.65,0.83 -0.65,1.38 0,0.33 0.1,0.63 0.29,0.89 0.19,0.26 0.56,0.5 1.1,0.71 0.54,0.21 1.34,0.44 2.4,0.68 1.15,0.23 2.05,0.53 2.72,0.91 0.66,0.38 1.13,0.83 1.41,1.33 0.28,0.5 0.42,1.09 0.42,1.75 0,0.73 -0.21,1.4 -0.64,2.01 -0.43,0.61 -1.05,1.09 -1.88,1.45 -0.83,0.36 -1.85,0.53 -3.07,0.53zm10.19 -0.26c-0.17,0 -0.32,-0.06 -0.43,-0.17 -0.11,-0.11 -0.17,-0.26 -0.17,-0.43l0 -12.38c0,-0.17 0.06,-0.32 0.17,-0.43 0.11,-0.11 0.26,-0.17 0.43,-0.17l1.25 0c0.17,0 0.31,0.06 0.42,0.17 0.1,0.11 0.16,0.26 0.16,0.43l0 12.38c0,0.17 -0.05,0.32 -0.16,0.43 -0.1,0.11 -0.24,0.17 -0.42,0.17l-1.25 0zm-0.21 -16.11c-0.17,0 -0.32,-0.06 -0.43,-0.17 -0.11,-0.11 -0.17,-0.26 -0.17,-0.43l0 -1.41c0,-0.17 0.06,-0.32 0.17,-0.43 0.11,-0.11 0.26,-0.17 0.43,-0.17l1.64 0c0.17,0 0.32,0.06 0.43,0.17 0.11,0.11 0.17,0.26 0.17,0.43l0 1.41c0,0.17 -0.06,0.32 -0.17,0.43 -0.11,0.11 -0.26,0.17 -0.43,0.17l-1.64 0zm12.46 16.37c-1.32,0 -2.43,-0.25 -3.32,-0.76 -0.89,-0.5 -1.57,-1.21 -2.04,-2.1 -0.47,-0.9 -0.73,-1.92 -0.78,-3.07 -0.02,-0.3 -0.03,-0.67 -0.03,-1.14 0,-0.46 0.01,-0.83 0.03,-1.11 0.05,-1.17 0.32,-2.19 0.8,-3.08 0.48,-0.89 1.16,-1.58 2.05,-2.09 0.89,-0.5 1.98,-0.76 3.29,-0.76 1.31,0 2.4,0.25 3.29,0.76 0.89,0.5 1.57,1.2 2.05,2.09 0.48,0.89 0.74,1.91 0.8,3.08 0.02,0.28 0.03,0.65 0.03,1.11 0,0.46 -0.01,0.84 -0.03,1.14 -0.05,1.15 -0.31,2.17 -0.78,3.07 -0.47,0.9 -1.15,1.6 -2.04,2.1 -0.89,0.5 -1.99,0.76 -3.32,0.76zm0 -2.01c1.08,0 1.94,-0.34 2.58,-1.03 0.64,-0.69 0.99,-1.69 1.04,-3.02 0.02,-0.26 0.03,-0.59 0.03,-0.99 0,-0.4 -0.01,-0.73 -0.03,-0.99 -0.05,-1.32 -0.4,-2.33 -1.04,-3.02 -0.64,-0.69 -1.51,-1.03 -2.58,-1.03 -1.08,0 -1.95,0.34 -2.6,1.03 -0.65,0.69 -1,1.69 -1.03,3.02 -0.02,0.26 -0.03,0.59 -0.03,0.99 0,0.4 0.01,0.73 0.03,0.99 0.03,1.32 0.38,2.33 1.03,3.02 0.65,0.69 1.52,1.03 2.6,1.03zm11 1.75c-0.17,0 -0.32,-0.06 -0.43,-0.17 -0.11,-0.11 -0.17,-0.26 -0.17,-0.43l0 -12.38c0,-0.17 0.06,-0.32 0.17,-0.43 0.11,-0.11 0.26,-0.17 0.43,-0.17l1.23 0c0.17,0 0.32,0.06 0.43,0.17 0.11,0.11 0.17,0.26 0.17,0.43l0 1.15c0.45,-0.59 1.02,-1.08 1.71,-1.45 0.69,-0.37 1.57,-0.56 2.65,-0.56 1.13,0 2.09,0.25 2.89,0.74 0.79,0.5 1.39,1.18 1.79,2.06 0.4,0.88 0.6,1.9 0.6,3.07l0 7.36c0,0.17 -0.05,0.32 -0.16,0.43 -0.1,0.11 -0.24,0.17 -0.42,0.17l-1.31 0c-0.17,0 -0.32,-0.06 -0.43,-0.17 -0.11,-0.11 -0.17,-0.26 -0.17,-0.43l0 -7.23c0,-1.22 -0.3,-2.17 -0.89,-2.86 -0.59,-0.69 -1.46,-1.03 -2.61,-1.03 -1.08,0 -1.95,0.34 -2.6,1.03 -0.65,0.69 -0.98,1.64 -0.98,2.86l0 7.23c0,0.17 -0.06,0.32 -0.17,0.43 -0.11,0.11 -0.26,0.17 -0.43,0.17l-1.31 0zm20.9 0.26c-0.97,0 -1.81,-0.12 -2.51,-0.37 -0.7,-0.24 -1.26,-0.54 -1.7,-0.89 -0.43,-0.35 -0.76,-0.7 -0.98,-1.04 -0.22,-0.35 -0.33,-0.63 -0.35,-0.84 -0.02,-0.19 0.04,-0.34 0.18,-0.44 0.14,-0.1 0.28,-0.16 0.42,-0.16l1.15 0c0.1,0 0.19,0.01 0.25,0.04 0.06,0.03 0.14,0.1 0.25,0.22 0.23,0.24 0.48,0.49 0.76,0.73 0.28,0.24 0.62,0.44 1.03,0.6 0.41,0.16 0.92,0.24 1.53,0.24 0.89,0 1.62,-0.17 2.19,-0.51 0.57,-0.34 0.86,-0.84 0.86,-1.5 0,-0.44 -0.12,-0.78 -0.35,-1.04 -0.23,-0.26 -0.65,-0.5 -1.25,-0.71 -0.6,-0.21 -1.42,-0.43 -2.47,-0.65 -1.04,-0.24 -1.87,-0.54 -2.48,-0.9 -0.61,-0.36 -1.04,-0.78 -1.31,-1.28 -0.26,-0.5 -0.39,-1.06 -0.39,-1.68 0,-0.64 0.19,-1.27 0.57,-1.87 0.38,-0.6 0.94,-1.09 1.68,-1.48 0.74,-0.38 1.67,-0.57 2.78,-0.57 0.91,0 1.68,0.11 2.32,0.34 0.64,0.23 1.17,0.51 1.59,0.85 0.42,0.34 0.73,0.67 0.94,1.01 0.21,0.33 0.32,0.61 0.34,0.84 0.02,0.17 -0.03,0.32 -0.16,0.43 -0.12,0.11 -0.26,0.17 -0.42,0.17l-1.1 0c-0.12,0 -0.22,-0.03 -0.3,-0.08 -0.08,-0.05 -0.15,-0.11 -0.22,-0.18 -0.17,-0.23 -0.38,-0.45 -0.61,-0.68 -0.24,-0.23 -0.54,-0.41 -0.91,-0.56 -0.37,-0.15 -0.87,-0.22 -1.48,-0.22 -0.87,0 -1.52,0.18 -1.96,0.55 -0.44,0.37 -0.65,0.83 -0.65,1.38 0,0.33 0.1,0.63 0.29,0.89 0.19,0.26 0.56,0.5 1.1,0.71 0.54,0.21 1.34,0.44 2.4,0.68 1.15,0.23 2.05,0.53 2.72,0.91 0.66,0.38 1.13,0.83 1.41,1.33 0.28,0.5 0.42,1.09 0.42,1.75 0,0.73 -0.21,1.4 -0.64,2.01 -0.43,0.61 -1.05,1.09 -1.88,1.45 -0.83,0.36 -1.85,0.53 -3.07,0.53z"/>
 </g>
</svg>
