<?xml version="1.0" encoding="UTF-8"?>
<!DOCTYPE svg PUBLIC "-//W3C//DTD SVG 1.1//EN" "http://www.w3.org/Graphics/SVG/1.1/DTD/svg11.dtd">
<!-- Creator: CorelDRAW -->
<svg xmlns="http://www.w3.org/2000/svg" xml:space="preserve" width="46.636mm" height="15.9972mm" version="1.1" style="shape-rendering:geometricPrecision; text-rendering:geometricPrecision; image-rendering:optimizeQuality; fill-rule:evenodd; clip-rule:evenodd"
viewBox="0 0 347.03 119.04"
 xmlns:xlink="http://www.w3.org/1999/xlink"
 xmlns:xodm="http://www.corel.com/coreldraw/odm/2003">
 <defs>
  <style type="text/css">
   <![CDATA[
    .fil0 {fill:#0D0D0D;fill-rule:nonzero}
    .fil1 {fill:#CC9933;fill-rule:nonzero}
   ]]>
  </style>
 </defs>
 <g id="Layer_x0020_1">
  <metadata id="CorelCorpID_0Corel-Layer"/>
  <path class="fil0" d="M93.4 46.13l0 -45.81 31.42 0 0 10.97 -18.84 0 0 7.61 15.36 0 0 10.2 -15.36 0 0 17.03 -12.58 0zm44.31 -45.81l14.07 0 14.58 45.81 -12.78 0 -2.37 -8.97 -12.95 0 -2.37 8.97 -12.84 0 14.65 -45.81zm11.29 28.45l-4.26 -16.13 -4.26 16.13 8.52 0zm34.11 -5.16l0 22.52 -12.58 0 0 -45.81 9.81 0 18.39 23.29 0 -23.29 12.58 0 0 45.81 -10 0 -18.2 -22.52zm64.18 -8.26c0,0 -0.37,-0.22 -1.1,-0.65 -0.73,-0.43 -1.7,-0.91 -2.9,-1.45 -1.2,-0.54 -2.52,-1.02 -3.94,-1.45 -1.42,-0.43 -2.82,-0.65 -4.19,-0.65 -1.08,0 -1.96,0.17 -2.65,0.52 -0.69,0.33 -1.03,0.91 -1.03,1.72 0,0.76 0.34,1.39 1.03,1.86 0.69,0.46 1.67,0.89 2.94,1.27 1.27,0.39 2.79,0.86 4.55,1.41 2.84,0.86 5.29,1.84 7.36,2.95 2.06,1.11 3.66,2.53 4.78,4.25 1.12,1.73 1.68,4.02 1.68,6.87 0,2.73 -0.49,5.02 -1.48,6.87 -0.99,1.86 -2.32,3.34 -4,4.45 -1.68,1.11 -3.55,1.9 -5.61,2.4 -2.06,0.48 -4.17,0.73 -6.32,0.73 -2.19,0 -4.48,-0.23 -6.87,-0.68 -2.39,-0.45 -4.7,-1.08 -6.94,-1.87 -2.24,-0.8 -4.28,-1.73 -6.13,-2.81l5.42 -11.03c0,0 0.43,0.26 1.29,0.77 0.86,0.52 2,1.1 3.42,1.74 1.42,0.65 3,1.23 4.74,1.74 1.74,0.52 3.5,0.77 5.26,0.77 1.38,0 2.33,-0.17 2.87,-0.53 0.54,-0.34 0.81,-0.81 0.81,-1.38 0,-0.9 -0.47,-1.59 -1.42,-2.09 -0.95,-0.49 -2.18,-0.97 -3.71,-1.41 -1.53,-0.45 -3.22,-0.98 -5.07,-1.57 -2.67,-0.9 -4.86,-1.91 -6.58,-3.04 -1.72,-1.13 -2.99,-2.48 -3.81,-4.04 -0.82,-1.56 -1.23,-3.44 -1.23,-5.67 0,-3.38 0.8,-6.19 2.39,-8.45 1.59,-2.27 3.69,-3.99 6.29,-5.16 2.6,-1.17 5.41,-1.76 8.42,-1.76 2.24,0 4.4,0.27 6.49,0.81 2.09,0.54 4.04,1.19 5.87,1.97 1.83,0.77 3.43,1.51 4.81,2.19l-5.42 10.39z"/>
  <path class="fil1" d="M39.83 35.72c-0.19,0.47 -0.49,0.84 -0.92,1.13 -0.42,0.28 -0.87,0.42 -1.34,0.42 -0.66,0 -0.99,-0.38 -0.99,-1.13 0,-0.75 0.21,-1.67 0.63,-2.74 0.42,-1.08 0.63,-1.99 0.63,-2.75 0,-0.56 -0.23,-0.84 -0.7,-0.84 -0.38,0 -0.8,0.19 -1.27,0.56 -0.47,0.38 -0.8,0.7 -0.99,0.99 -1.78,1.69 -3.68,4.22 -5.7,7.6 -2.02,3.38 -3.99,7.01 -5.91,10.91 -1.92,3.89 -3.68,7.69 -5.28,11.4 -1.59,3.71 -2.91,6.78 -3.94,9.22 0.19,0.19 0.47,0.56 0.84,1.13 1.22,1.03 2.79,1.81 4.72,2.32 1.92,0.52 3.82,0.77 5.7,0.77 3.57,0 6.97,-0.7 10.2,-2.11 3.24,-1.41 6.36,-3.05 9.36,-4.93 0.28,-0.28 0.66,-0.42 1.13,-0.42 0.47,0 0.8,0.16 0.99,0.49 0.19,0.33 0.19,0.73 0,1.2 -0.19,0.56 -0.61,1.03 -1.27,1.41 -0.66,0.38 -1.22,0.7 -1.69,0.99 -3.1,1.88 -6.45,3.45 -10.06,4.71 -3.61,1.27 -6.92,1.9 -9.92,1.9 -2.53,0 -5.02,-0.38 -7.46,-1.13 0.09,0.75 0.16,1.52 0.21,2.32 0.05,0.8 0.07,1.62 0.07,2.46 0,1.13 -0.09,2.77 -0.28,4.93 -0.19,2.16 -0.47,4.5 -0.84,7.04 -0.38,2.53 -0.91,5.11 -1.62,7.74 -0.7,2.63 -1.55,5.02 -2.53,7.18 -0.99,2.16 -2.16,3.92 -3.52,5.28 -1.36,1.36 -2.93,2.04 -4.71,2.04 -1.22,0 -2.09,-0.54 -2.6,-1.62 -0.52,-1.08 -0.77,-2.56 -0.77,-4.43 0,-2.63 0.63,-6.52 1.9,-11.68 1.27,-5.16 2.96,-10.81 5.07,-16.96 2.11,-6.15 4.53,-12.46 7.25,-18.93 2.72,-6.47 5.51,-12.36 8.37,-17.66 2.86,-5.3 5.7,-9.64 8.52,-13.02 2.82,-3.38 5.35,-5.07 7.6,-5.07 1.03,0 1.74,0.31 2.11,0.91 0.38,0.61 0.56,1.34 0.56,2.18 0,1.03 -0.16,2.11 -0.49,3.24 -0.33,1.13 -0.68,2.11 -1.06,2.96zm-36.17 75.3c0.19,0.19 0.35,0.47 0.49,0.84 0.14,0.38 0.4,0.56 0.77,0.56 0.94,0 1.78,-0.66 2.53,-1.97 0.75,-1.31 1.45,-2.96 2.11,-4.93 0.66,-1.97 1.22,-4.15 1.69,-6.54 0.47,-2.39 0.87,-4.67 1.2,-6.83 0.33,-2.16 0.56,-4.1 0.7,-5.84 0.14,-1.74 0.21,-2.89 0.21,-3.45 0,-1.6 -0.07,-3.03 -0.21,-4.29 -0.14,-1.27 -0.45,-2.42 -0.91,-3.45 -0.94,2.53 -1.99,5.56 -3.17,9.08 -1.17,3.52 -2.2,7.01 -3.1,10.49 -0.89,3.47 -1.6,6.69 -2.11,9.64 -0.52,2.96 -0.59,5.18 -0.21,6.69zm49.68 -48.98c1.03,0 2.11,0.28 3.24,0.84 1.41,-1.31 2.74,-2.39 4.01,-3.24 1.27,-0.84 2.32,-1.27 3.17,-1.27 1.41,0 2.11,1.31 2.11,3.94 0,1.41 -0.16,3.07 -0.49,5 -0.33,1.92 -0.7,3.94 -1.13,6.05 -0.42,2.11 -0.8,4.2 -1.13,6.26 -0.33,2.06 -0.49,3.94 -0.49,5.63 0,1.69 0.23,3.05 0.7,4.08 0.47,1.03 1.36,1.55 2.67,1.55 1.41,0 3.07,-0.7 5,-2.11 1.92,-1.41 3.85,-3.05 5.77,-4.93 1.92,-1.88 3.73,-3.78 5.42,-5.7 1.69,-1.92 2.96,-3.45 3.8,-4.57 0.75,-0.94 1.48,-1.9 2.18,-2.88 0.7,-0.99 1.43,-1.85 2.18,-2.6 0.47,-0.47 0.99,-0.7 1.55,-0.7 1.03,0 1.41,0.47 1.13,1.41 -0.09,0.28 -0.33,0.68 -0.7,1.2 -0.38,0.52 -0.77,1.06 -1.2,1.62 -0.42,0.56 -0.87,1.13 -1.34,1.69 -0.47,0.56 -0.84,0.99 -1.13,1.27 -1.22,1.5 -2.79,3.35 -4.71,5.56 -1.92,2.21 -3.99,4.34 -6.19,6.4 -2.21,2.06 -4.46,3.85 -6.76,5.35 -2.3,1.5 -4.39,2.25 -6.26,2.25 -2.16,0 -3.64,-0.75 -4.43,-2.25 -0.8,-1.5 -1.2,-3.38 -1.2,-5.63 0,-1.88 0.19,-3.89 0.56,-6.05 0.38,-2.16 0.77,-4.29 1.2,-6.4 0.42,-2.11 0.82,-4.08 1.2,-5.91 0.38,-1.83 0.56,-3.31 0.56,-4.43 0,-0.84 -0.09,-1.41 -0.28,-1.69 -0.47,0.28 -0.99,0.66 -1.55,1.13 -0.56,0.47 -1.22,1.03 -1.97,1.69 0.38,0.38 0.56,0.94 0.56,1.69 0,0.66 -0.26,1.22 -0.77,1.69 -0.52,0.47 -1.1,0.7 -1.76,0.7 -0.38,0 -0.75,-0.33 -1.13,-0.99 -1.22,1.31 -2.49,2.65 -3.8,4.01 -1.31,1.36 -2.56,2.6 -3.73,3.73 -1.17,1.13 -2.23,2.06 -3.17,2.82 -0.94,0.75 -1.64,1.13 -2.11,1.13 -1.41,0 -2.11,-0.75 -2.11,-2.25 0,-1.41 0.38,-2.98 1.13,-4.71 0.75,-1.74 1.74,-3.38 2.96,-4.93 1.22,-1.55 2.58,-2.84 4.08,-3.87 1.5,-1.03 2.96,-1.55 4.36,-1.55zm-9.01 13.51c1.03,-0.94 2.39,-2.37 4.08,-4.29 1.69,-1.92 3.47,-3.82 5.35,-5.7 -0.56,-0.19 -1.13,-0.28 -1.69,-0.28 -0.84,0 -1.64,0.28 -2.39,0.84 -0.75,0.56 -1.41,1.24 -1.97,2.04 -0.56,0.8 -1.06,1.64 -1.48,2.53 -0.42,0.89 -0.77,1.67 -1.06,2.32 -0.38,0.84 -0.66,1.69 -0.84,2.53zm45.18 2.82c0,-0.66 0.07,-2.06 0.21,-4.22 0.14,-2.16 0.42,-4.39 0.84,-6.69 0.42,-2.3 0.99,-4.36 1.69,-6.19 0.7,-1.83 1.57,-2.74 2.6,-2.74 1.22,0 1.6,0.47 1.13,1.41 -0.38,0.94 -0.73,2.11 -1.06,3.52 -0.33,1.41 -0.63,2.91 -0.92,4.5 -0.28,1.59 -0.52,3.19 -0.7,4.78 -0.19,1.6 -0.28,3.1 -0.28,4.5 0,2.06 0.19,3.52 0.56,4.36 0.94,-0.84 2.04,-2.02 3.31,-3.52 1.27,-1.5 2.53,-3.12 3.8,-4.86 1.27,-1.74 2.46,-3.47 3.59,-5.21 1.13,-1.74 2.02,-3.21 2.67,-4.43 -0.19,-1.22 -0.14,-2.3 0.14,-3.24 0.19,-0.47 0.49,-0.89 0.91,-1.27 0.42,-0.38 0.87,-0.56 1.34,-0.56 1.22,0 1.83,0.56 1.83,1.69 0,0.66 -0.14,1.36 -0.42,2.11 0,0.09 -0.09,0.23 -0.28,0.42 0,0.19 0.09,0.38 0.28,0.56 1.03,4.6 4.27,6.9 9.71,6.9 1.59,0 2.88,-0.14 3.87,-0.42 0.99,-0.28 1.78,-0.61 2.39,-0.99 0.61,-0.38 1.13,-0.7 1.55,-0.99 0.42,-0.28 0.77,-0.42 1.06,-0.42 1.03,0 1.41,0.47 1.13,1.41 -0.38,0.94 -1.06,1.69 -2.04,2.25 -0.99,0.56 -2.04,1.03 -3.17,1.41 -1.13,0.38 -2.25,0.63 -3.38,0.77 -1.13,0.14 -2.02,0.21 -2.67,0.21 -2.72,0 -5.02,-0.56 -6.9,-1.69 -1.88,-1.13 -3.28,-2.63 -4.22,-4.5 -1.03,1.69 -2.28,3.59 -3.73,5.7 -1.45,2.11 -2.93,4.06 -4.43,5.84 -1.5,1.78 -2.93,3.28 -4.29,4.5 -1.36,1.22 -2.51,1.83 -3.45,1.83 -1.03,0 -1.74,-0.66 -2.11,-1.97 -0.38,-1.31 -0.56,-2.91 -0.56,-4.79zm48.14 -17.45c0.47,0 0.96,0.07 1.48,0.21 0.52,0.14 0.92,0.4 1.2,0.77 0.94,0.09 1.45,0.54 1.55,1.34 0.09,0.8 0.05,1.71 -0.14,2.74 0.94,1.31 2.35,2.3 4.22,2.96 1.88,0.66 3.61,0.99 5.21,0.99 1.13,0 2.25,-0.14 3.38,-0.42 1.13,-0.28 2.13,-0.61 3.03,-0.99 0.89,-0.38 1.64,-0.7 2.25,-0.99 0.61,-0.28 0.96,-0.42 1.06,-0.42 1.03,0 1.41,0.47 1.13,1.41 -0.38,0.84 -1.1,1.55 -2.18,2.11 -1.08,0.56 -2.25,1.03 -3.52,1.41 -1.27,0.38 -2.51,0.66 -3.73,0.84 -1.22,0.19 -2.16,0.28 -2.82,0.28 -1.88,0 -3.64,-0.26 -5.28,-0.77 -1.64,-0.52 -3.07,-1.29 -4.29,-2.32 -0.56,1.03 -1.2,2.09 -1.9,3.17 -0.7,1.08 -1.52,2.09 -2.46,3.03 -0.94,0.94 -1.9,1.69 -2.88,2.25 -0.99,0.56 -2.04,0.84 -3.17,0.84 -1.41,0 -2.42,-0.4 -3.03,-1.2 -0.61,-0.8 -0.91,-1.81 -0.91,-3.03 0,-1.31 0.38,-2.79 1.13,-4.43 0.75,-1.64 1.69,-3.19 2.82,-4.64 1.13,-1.45 2.39,-2.67 3.8,-3.66 1.41,-0.99 2.77,-1.48 4.08,-1.48zm0.42 6.33c-0.09,-0.28 -0.24,-0.8 -0.42,-1.55 -0.09,-0.19 -0.12,-0.4 -0.07,-0.63 0.05,-0.23 0.07,-0.45 0.07,-0.63 -0.56,-0.19 -1.03,-0.28 -1.41,-0.28 -0.66,0 -1.41,0.38 -2.25,1.13 -0.84,0.75 -1.59,1.64 -2.25,2.67 -0.66,1.03 -1.22,2.13 -1.69,3.31 -0.47,1.17 -0.7,2.13 -0.7,2.89 0,1.31 0.52,1.97 1.55,1.97 0.75,0 1.5,-0.33 2.25,-0.99 0.75,-0.66 1.45,-1.45 2.11,-2.39 0.66,-0.94 1.22,-1.92 1.69,-2.96 0.47,-1.03 0.84,-1.88 1.13,-2.53zm19.42 8.16c0,-0.94 0.33,-2.2 0.99,-3.8 0.66,-1.59 1.45,-3.19 2.39,-4.79 0.94,-1.59 1.9,-2.98 2.89,-4.15 0.99,-1.17 1.76,-1.76 2.32,-1.76 1.03,0 1.41,0.47 1.13,1.41 -0.47,0.94 -1.13,1.92 -1.97,2.96 -0.75,1.13 -1.45,2.28 -2.11,3.45 -0.66,1.17 -1.22,2.32 -1.69,3.45 -0.09,0.19 -0.19,0.47 -0.28,0.84 -0.09,0.38 -0.14,0.7 -0.14,0.99 0,0.56 0.19,0.84 0.56,0.84 0.56,0 1.45,-0.47 2.67,-1.41 1.22,-0.94 2.51,-2.02 3.87,-3.24 1.36,-1.22 2.63,-2.42 3.8,-3.59 1.17,-1.17 1.99,-2.04 2.46,-2.6 0.38,-0.38 0.91,-0.99 1.62,-1.83 0.7,-0.84 1.29,-1.41 1.76,-1.69 0.47,-0.28 0.84,-0.42 1.13,-0.42 1.03,0 1.41,0.47 1.13,1.41 -0.19,0.47 -0.42,0.91 -0.7,1.34 -0.28,0.42 -0.56,0.87 -0.84,1.34 -1.03,1.88 -2.06,4.13 -3.1,6.76 -1.03,2.63 -1.55,5.02 -1.55,7.18 0,1.03 0.21,1.9 0.63,2.6 0.42,0.7 1.15,1.06 2.18,1.06 1.13,0 2.42,-0.38 3.87,-1.13 1.45,-0.75 2.96,-1.64 4.5,-2.67 1.55,-1.03 3,-2.16 4.36,-3.38 1.36,-1.22 2.46,-2.25 3.31,-3.1 0.66,-0.56 1.24,-1.17 1.76,-1.83 0.52,-0.66 1.06,-1.22 1.62,-1.69 0.47,-0.38 0.94,-0.56 1.41,-0.56 1.03,0 1.41,0.47 1.13,1.41 -0.19,0.47 -0.66,1.1 -1.41,1.9 -0.75,0.8 -1.31,1.43 -1.69,1.9 -1.22,1.22 -2.67,2.53 -4.36,3.94 -1.69,1.41 -3.45,2.75 -5.28,4.01 -1.83,1.27 -3.64,2.32 -5.42,3.17 -1.78,0.84 -3.42,1.27 -4.93,1.27 -1.97,0 -3.33,-0.56 -4.08,-1.69 -0.75,-1.13 -1.13,-2.49 -1.13,-4.08 0,-1.5 0.23,-3.1 0.7,-4.79 0.47,-1.69 0.99,-3.24 1.55,-4.64l0.14 -0.42c-0.66,0.66 -1.52,1.5 -2.6,2.53 -1.08,1.03 -2.2,1.99 -3.38,2.88 -1.17,0.89 -2.32,1.67 -3.45,2.32 -1.13,0.66 -2.16,0.99 -3.1,0.99 -1.78,0 -2.67,-0.89 -2.67,-2.67zm44.76 -11.12c-0.19,0.28 -0.4,0.66 -0.63,1.13 -0.23,0.47 -0.54,0.94 -0.91,1.41 1.41,0.47 2.86,0.92 4.36,1.34 1.5,0.42 2.44,1.01 2.82,1.76 0.19,0.28 0.28,0.7 0.28,1.27 0,0.47 -0.05,0.89 -0.14,1.27 -0.09,0.38 -0.23,0.8 -0.42,1.27 -0.66,1.5 -1.43,2.96 -2.32,4.36 -0.89,1.41 -1.62,2.86 -2.18,4.36 -0.56,1.22 -0.84,2.44 -0.84,3.66 0,2.35 1.31,3.52 3.94,3.52 1.41,0 3.07,-0.66 5,-1.97 1.92,-1.31 3.87,-2.84 5.84,-4.57 1.97,-1.74 3.82,-3.54 5.56,-5.42 1.74,-1.88 3.03,-3.38 3.87,-4.5 0.19,-0.28 0.45,-0.66 0.77,-1.13 0.33,-0.47 0.68,-0.99 1.06,-1.55 0.38,-0.56 0.75,-1.08 1.13,-1.55 0.38,-0.47 0.61,-0.75 0.7,-0.84 0.56,-0.56 1.13,-0.84 1.69,-0.84 0.47,0 0.82,0.16 1.06,0.49 0.24,0.33 0.26,0.73 0.07,1.2 -0.28,0.66 -0.89,1.57 -1.83,2.74 -0.94,1.17 -1.64,2.09 -2.11,2.74 -1.22,1.5 -2.82,3.31 -4.79,5.42 -1.97,2.11 -4.08,4.13 -6.33,6.05 -2.25,1.92 -4.5,3.57 -6.76,4.93 -2.25,1.36 -4.32,2.04 -6.19,2.04 -2.16,0 -3.73,-0.52 -4.71,-1.55 -0.99,-1.03 -1.48,-2.35 -1.48,-3.94 0,-1.5 0.38,-3.14 1.13,-4.93 0.56,-1.5 1.31,-2.98 2.25,-4.43 0.94,-1.45 1.69,-2.93 2.25,-4.43 0.19,-0.56 0.28,-0.89 0.28,-0.99 -0.19,-0.75 -1.08,-1.29 -2.67,-1.62 -1.59,-0.33 -3.19,-0.77 -4.79,-1.34 -0.47,0 -0.8,-0.19 -0.99,-0.56 -0.75,-0.38 -1.36,-0.82 -1.83,-1.34 -0.47,-0.52 -0.7,-1.15 -0.7,-1.9 0,-1.5 0.7,-2.96 2.11,-4.36 1.41,-1.41 2.82,-2.11 4.22,-2.11 0.94,0 1.62,0.28 2.04,0.84 0.42,0.56 0.63,1.22 0.63,1.97 0,0.66 -0.14,1.36 -0.42,2.11zm-4.08 1.41c0.38,-0.56 0.66,-1.03 0.84,-1.41 0.09,-0.19 0.16,-0.52 0.21,-0.99 0.05,-0.47 -0.07,-0.7 -0.35,-0.7 -0.38,0 -0.7,0.16 -0.99,0.49 -0.28,0.33 -0.47,0.63 -0.56,0.91 -0.28,0.66 0,1.22 0.84,1.69zm40.11 -13.65c0.28,-0.66 0.75,-1.22 1.41,-1.69 0.66,-0.47 1.31,-0.7 1.97,-0.7 0.66,0 1.13,0.23 1.41,0.7 0.28,0.47 0.28,1.03 0,1.69 -0.19,0.66 -0.61,1.22 -1.27,1.69 -0.66,0.47 -1.31,0.7 -1.97,0.7 -0.66,0 -1.13,-0.24 -1.41,-0.7 -0.28,-0.47 -0.33,-1.03 -0.14,-1.69zm-9.85 24.91c0,-0.75 0.19,-2.04 0.56,-3.87 0.38,-1.83 0.89,-3.68 1.55,-5.56 0.66,-1.88 1.43,-3.52 2.32,-4.93 0.89,-1.41 1.81,-2.11 2.74,-2.11 0.47,0 0.8,0.16 0.99,0.49 0.19,0.33 0.19,0.73 0,1.2 -0.47,1.03 -0.96,2.02 -1.48,2.96 -0.52,0.94 -1.01,1.88 -1.48,2.82 -0.47,1.03 -0.87,2.27 -1.2,3.73 -0.33,1.45 -0.49,2.84 -0.49,4.15 0,1.5 0.28,2.74 0.84,3.73 0.56,0.99 1.59,1.48 3.1,1.48 2.82,0 5.77,-1.01 8.87,-3.03 3.1,-2.02 5.77,-4.15 8.02,-6.4 0.56,-0.56 1.13,-1.2 1.69,-1.9 0.56,-0.7 1.13,-1.29 1.69,-1.76 0.66,-0.47 1.17,-0.7 1.55,-0.7 0.47,0 0.82,0.16 1.06,0.49 0.23,0.33 0.26,0.73 0.07,1.2 -0.19,0.47 -0.68,1.08 -1.48,1.83 -0.8,0.75 -1.38,1.36 -1.76,1.83 -1.41,1.41 -2.96,2.82 -4.64,4.22 -1.69,1.41 -3.42,2.67 -5.21,3.8 -1.78,1.13 -3.61,2.02 -5.49,2.67 -1.88,0.66 -3.71,0.99 -5.49,0.99 -2.44,0 -4.11,-0.7 -5,-2.11 -0.89,-1.41 -1.34,-3.14 -1.34,-5.21zm15.2 28.57c3.75,-12.2 7.88,-24.14 12.39,-35.82 4.5,-11.68 9.34,-23.34 14.5,-34.98 -1.6,0.09 -3.24,0.16 -4.93,0.21 -1.69,0.05 -3.33,0.16 -4.93,0.35 -2.44,0.19 -4.83,0.38 -7.18,0.56 -2.35,0.19 -4.74,0.28 -7.18,0.28 -0.47,0 -0.82,-0.12 -1.06,-0.35 -0.23,-0.23 -0.26,-0.59 -0.07,-1.06 0.28,-0.75 0.75,-1.27 1.41,-1.55 0.28,-0.09 1.64,-0.23 4.08,-0.42 2.44,-0.19 5.14,-0.38 8.09,-0.56 2.96,-0.19 5.72,-0.35 8.3,-0.49 2.58,-0.14 4.2,-0.21 4.86,-0.21 0.47,-1.13 0.96,-2.23 1.48,-3.31 0.52,-1.08 1.01,-2.18 1.48,-3.31 0.19,-0.38 0.54,-1.08 1.06,-2.11 0.52,-1.03 1.03,-2.11 1.55,-3.24 0.52,-1.13 1.01,-2.13 1.48,-3.03 0.47,-0.89 0.8,-1.43 0.99,-1.62 0.56,-0.56 1.13,-0.84 1.69,-0.84 1.03,0 1.41,0.47 1.13,1.41 -0.38,0.75 -0.75,1.52 -1.13,2.32 -0.38,0.8 -0.8,1.57 -1.27,2.32 -0.75,1.59 -1.48,3.17 -2.18,4.71 -0.7,1.55 -1.43,3.12 -2.18,4.71 -0.19,0.28 -0.33,0.59 -0.42,0.92 -0.09,0.33 -0.23,0.63 -0.42,0.91 3.57,-0.19 7.18,-0.33 10.84,-0.42 3.66,-0.09 7.27,-0.14 10.84,-0.14 0.75,0 1.71,0.02 2.88,0.07 1.17,0.05 2.32,0.16 3.45,0.35 1.13,0.19 2.06,0.45 2.82,0.77 0.75,0.33 0.99,0.82 0.7,1.48 -0.19,0.47 -0.47,0.87 -0.84,1.2 -0.38,0.33 -0.8,0.49 -1.27,0.49 -0.66,0 -1.24,-0.09 -1.76,-0.28 -0.52,-0.19 -1.1,-0.33 -1.76,-0.42 -1.31,-0.19 -2.74,-0.31 -4.29,-0.35 -1.55,-0.05 -3.07,-0.07 -4.57,-0.07 -3,0 -6.05,0.05 -9.15,0.14 -3.1,0.09 -6.19,0.23 -9.29,0.42 -5.35,11.92 -10.34,23.9 -14.99,35.96 -4.64,12.06 -8.8,24.37 -12.46,36.95 0.66,0.28 0.99,0.61 0.99,0.99 0,0.09 -0.14,0.54 -0.42,1.34 -0.28,0.8 -0.59,1.64 -0.92,2.53 -0.33,0.89 -0.66,1.76 -0.99,2.6 -0.33,0.84 -0.54,1.41 -0.63,1.69 -0.28,0.66 -0.61,1.22 -0.99,1.69 -0.38,0.47 -0.94,0.7 -1.69,0.7 -0.56,0 -0.94,-0.23 -1.13,-0.7 -0.09,-0.38 -0.02,-1.15 0.21,-2.32 0.23,-1.17 0.54,-2.44 0.91,-3.8 0.38,-1.36 0.75,-2.67 1.13,-3.94 0.38,-1.27 0.66,-2.18 0.84,-2.74zm44.62 -46.31c2.06,0 3.1,0.89 3.1,2.67 0,1.31 -0.52,2.53 -1.55,3.66 -1.03,1.13 -2.27,2.11 -3.73,2.96 -1.45,0.84 -2.96,1.57 -4.5,2.18 -1.55,0.61 -2.84,1.06 -3.87,1.34 -0.19,0.47 -0.28,1.17 -0.28,2.11 0,1.69 0.63,3.07 1.9,4.15 1.27,1.08 2.84,1.62 4.72,1.62 1.69,0 3.57,-0.26 5.63,-0.77 2.06,-0.52 4.18,-1.17 6.33,-1.97 2.16,-0.8 4.27,-1.71 6.33,-2.74 2.06,-1.03 3.94,-2.06 5.63,-3.1 0.84,-0.56 1.64,-1.17 2.39,-1.83 0.75,-0.66 1.55,-1.22 2.39,-1.69 0.47,-0.28 0.84,-0.42 1.13,-0.42 1.03,0 1.41,0.47 1.13,1.41 -0.28,0.66 -0.84,1.29 -1.69,1.9 -0.84,0.61 -1.55,1.15 -2.11,1.62 -1.97,1.41 -4.2,2.74 -6.69,4.01 -2.49,1.27 -5,2.42 -7.53,3.45 -2.53,1.03 -5.04,1.85 -7.53,2.46 -2.49,0.61 -4.76,0.91 -6.83,0.91 -2.44,0 -4.5,-0.73 -6.19,-2.18 -1.69,-1.45 -2.53,-3.4 -2.53,-5.84 0,-1.13 0.28,-2.39 0.84,-3.8 0,-0.28 0.14,-0.56 0.42,-0.84 0.56,-1.22 1.31,-2.49 2.25,-3.8 0.94,-1.31 1.99,-2.53 3.17,-3.66 1.17,-1.13 2.42,-2.04 3.73,-2.74 1.31,-0.7 2.63,-1.06 3.94,-1.06zm-8.59 9.15c0.47,-0.19 1.15,-0.45 2.04,-0.77 0.89,-0.33 1.78,-0.73 2.67,-1.2 0.89,-0.47 1.67,-1.01 2.32,-1.62 0.66,-0.61 0.99,-1.24 0.99,-1.9 0,-0.19 -0.23,-0.28 -0.7,-0.28 -1.31,0 -2.63,0.63 -3.94,1.9 -1.31,1.27 -2.44,2.56 -3.38,3.87zm43.63 -10.42c1.03,0 1.83,0.45 2.39,1.34 0.56,0.89 0.84,1.85 0.84,2.89 0,0.75 -0.14,1.41 -0.42,1.97 -0.19,0.47 -0.49,0.84 -0.91,1.13 -0.42,0.28 -0.87,0.42 -1.34,0.42 -0.75,0 -1.13,-0.33 -1.13,-0.99 0,-0.66 0,-1.36 0,-2.11 0,-0.84 -0.28,-1.27 -0.84,-1.27 -1.13,0 -2.28,0.66 -3.45,1.97 -1.17,1.31 -1.95,2.44 -2.32,3.38 -0.75,1.97 -1.13,4.41 -1.13,7.32 0,2.91 0.09,5.86 0.28,8.87 0.19,-0.09 1.03,-0.56 2.53,-1.41 1.5,-0.84 3.35,-1.83 5.56,-2.96 2.2,-1.13 4.57,-2.35 7.11,-3.66 2.53,-1.31 4.9,-2.51 7.11,-3.59 2.21,-1.08 4.08,-1.99 5.63,-2.74 1.55,-0.75 2.42,-1.13 2.6,-1.13 1.03,0 1.41,0.47 1.13,1.41 -0.28,0.56 -0.61,0.99 -0.99,1.27 -1.5,1.13 -3.14,2.06 -4.93,2.82 -1.78,0.75 -3.47,1.5 -5.07,2.25 -0.75,0.38 -1.88,0.94 -3.38,1.69 -1.5,0.75 -3.19,1.62 -5.07,2.6 -1.88,0.99 -3.87,2.04 -5.98,3.17 -2.11,1.13 -4.15,2.25 -6.12,3.38 0.09,2.06 0.05,4.03 -0.14,5.91 -0.19,1.88 -0.61,3.61 -1.27,5.21 -0.66,1.5 -1.83,2.77 -3.52,3.8 -1.69,1.03 -3.24,1.55 -4.64,1.55 -1.88,0 -3.21,-0.42 -4.01,-1.27 -0.8,-0.84 -1.2,-1.97 -1.2,-3.38 0,-1.13 0.33,-2.58 0.99,-4.36 0.47,-1.13 1.64,-2.44 3.52,-3.94 1.88,-1.5 4.13,-3.05 6.76,-4.64 -0.09,-1.5 -0.19,-3.03 -0.28,-4.57 -0.09,-1.55 -0.14,-3.07 -0.14,-4.57 0,-3.57 0.47,-6.57 1.41,-9.01 0.38,-0.94 0.94,-1.92 1.69,-2.96 0.75,-1.03 1.6,-1.97 2.53,-2.82 0.94,-0.84 1.95,-1.55 3.03,-2.11 1.08,-0.56 2.13,-0.84 3.17,-0.84zm-11.4 29.98c-1.88,1.13 -3.47,2.18 -4.79,3.17 -1.31,0.99 -2.06,1.81 -2.25,2.46 -0.47,1.22 -0.7,2.2 -0.7,2.96 0,1.78 0.99,2.67 2.96,2.67 0.56,0 1.27,-0.21 2.11,-0.63 0.84,-0.42 1.36,-0.96 1.55,-1.62 0.47,-1.22 0.77,-2.6 0.92,-4.15 0.14,-1.55 0.21,-3.17 0.21,-4.86z"/>
 </g>
</svg>
