<?xml version="1.0" encoding="UTF-8"?>
<!DOCTYPE svg PUBLIC "-//W3C//DTD SVG 1.1//EN" "http://www.w3.org/Graphics/SVG/1.1/DTD/svg11.dtd">
<!-- Creator: CorelDRAW -->
<svg xmlns="http://www.w3.org/2000/svg" xml:space="preserve" width="56.0124mm" height="19.4562mm" version="1.1" style="shape-rendering:geometricPrecision; text-rendering:geometricPrecision; image-rendering:optimizeQuality; fill-rule:evenodd; clip-rule:evenodd"
viewBox="0 0 348.15 120.93"
 xmlns:xlink="http://www.w3.org/1999/xlink"
 xmlns:xodm="http://www.corel.com/coreldraw/odm/2003">
 <defs>
  <style type="text/css">
   <![CDATA[
    .fil0 {fill:#0D0D0D;fill-rule:nonzero}
    .fil1 {fill:#CC9933;fill-rule:nonzero}
   ]]>
  </style>
 </defs>
 <g id="Layer_x0020_1">
  <metadata id="CorelCorpID_0Corel-Layer"/>
  <path class="fil0" d="M18.94 41.13l0 -40.84 28.01 0 0 9.78 -16.8 0 0 6.79 13.69 0 0 9.09 -13.69 0 0 15.19 -11.22 0zm32.72 0l0 -40.84 11.22 0 0 40.84 -11.22 0zm29.78 -20.08l0 20.08 -11.22 0 0 -40.84 8.74 0 16.39 20.77 0 -20.77 11.22 0 0 40.84 -8.92 0 -16.22 -20.08zm32.48 20.08l0 -40.84 15.7 0c4.53,0 8.31,0.91 11.36,2.73 3.05,1.82 5.35,4.28 6.9,7.36 1.55,3.09 2.33,6.51 2.33,10.27 0,4.14 -0.85,7.75 -2.56,10.81 -1.71,3.07 -4.1,5.45 -7.19,7.13 -3.09,1.69 -6.7,2.53 -10.84,2.53l-15.7 0zm24.91 -20.48c0,-2.11 -0.36,-3.96 -1.09,-5.55 -0.73,-1.59 -1.78,-2.83 -3.16,-3.71 -1.38,-0.88 -3.03,-1.32 -4.95,-1.32l-4.49 0 0 21.28 4.49 0c1.96,0 3.61,-0.46 4.98,-1.38 1.36,-0.92 2.41,-2.2 3.14,-3.83 0.73,-1.63 1.09,-3.46 1.09,-5.49zm47.21 20.77c-2.65,0 -5.17,-0.47 -7.56,-1.41 -2.4,-0.94 -4.52,-2.32 -6.36,-4.14 -1.84,-1.82 -3.29,-4.03 -4.34,-6.62 -1.05,-2.59 -1.58,-5.55 -1.58,-8.89 0,-2.88 0.54,-5.54 1.61,-8 1.07,-2.45 2.56,-4.61 4.46,-6.47 1.9,-1.86 4.11,-3.31 6.64,-4.34 2.53,-1.04 5.27,-1.55 8.23,-1.55 3.68,0 7.02,0.8 10.01,2.39 2.99,1.59 5.22,3.77 6.67,6.53l-8.34 6.39c-0.81,-1.61 -2.01,-2.91 -3.62,-3.88 -1.61,-0.98 -3.32,-1.47 -5.12,-1.47 -1.34,0 -2.57,0.27 -3.68,0.81 -1.11,0.54 -2.08,1.28 -2.91,2.24 -0.82,0.96 -1.46,2.1 -1.9,3.42 -0.44,1.32 -0.66,2.77 -0.66,4.34 0,1.61 0.23,3.07 0.69,4.37 0.46,1.3 1.1,2.43 1.93,3.37 0.82,0.94 1.81,1.67 2.96,2.19 1.15,0.52 2.44,0.78 3.85,0.78 1.8,0 3.53,-0.45 5.18,-1.35 1.65,-0.9 3.15,-2.18 4.49,-3.83l0 10.93c-3.07,2.8 -6.62,4.2 -10.64,4.2zm10.07 -13.98l-7.54 0 0 -8.05 16.8 0 0 21.74 -9.26 0 0 -13.69zm15.11 13.69l0 -40.84 11.22 0 0 40.84 -11.22 0zm18.56 0l0 -40.84 28.01 0 0 9.78 -16.8 0 0 6.79 13.69 0 0 9.09 -13.69 0 0 15.19 -11.22 0zm64.53 -31.06l-11.73 0 0 31.06 -11.22 0 0 -31.06 -11.79 0 0 -9.78 34.74 0 0 9.78zm29.15 3.62c0,0 -0.33,-0.19 -0.98,-0.58 -0.65,-0.38 -1.51,-0.81 -2.59,-1.29 -1.07,-0.48 -2.24,-0.91 -3.51,-1.29 -1.27,-0.38 -2.51,-0.57 -3.74,-0.57 -0.96,0 -1.74,0.15 -2.36,0.46 -0.61,0.3 -0.92,0.81 -0.92,1.53 0,0.68 0.31,1.24 0.92,1.66 0.61,0.41 1.49,0.8 2.62,1.13 1.13,0.34 2.48,0.77 4.06,1.26 2.53,0.77 4.72,1.64 6.56,2.63 1.84,0.99 3.26,2.25 4.26,3.79 1,1.54 1.5,3.59 1.5,6.13 0,2.44 -0.44,4.48 -1.32,6.13 -0.88,1.66 -2.07,2.98 -3.57,3.97 -1.5,0.99 -3.16,1.7 -5,2.14 -1.84,0.43 -3.72,0.65 -5.64,0.65 -1.96,0 -4,-0.2 -6.13,-0.6 -2.13,-0.4 -4.19,-0.96 -6.18,-1.67 -1.99,-0.71 -3.82,-1.54 -5.46,-2.5l4.83 -9.84c0,0 0.38,0.23 1.15,0.69 0.77,0.46 1.78,0.98 3.05,1.55 1.27,0.57 2.68,1.09 4.23,1.55 1.55,0.46 3.12,0.69 4.69,0.69 1.23,0 2.08,-0.15 2.56,-0.47 0.48,-0.31 0.72,-0.72 0.72,-1.23 0,-0.81 -0.42,-1.42 -1.27,-1.86 -0.84,-0.44 -1.95,-0.86 -3.31,-1.26 -1.36,-0.4 -2.87,-0.87 -4.52,-1.4 -2.38,-0.81 -4.33,-1.71 -5.87,-2.71 -1.53,-1.01 -2.67,-2.21 -3.39,-3.61 -0.73,-1.39 -1.09,-3.07 -1.09,-5.05 0,-3.01 0.71,-5.52 2.13,-7.54 1.42,-2.02 3.29,-3.56 5.61,-4.6 2.32,-1.04 4.82,-1.57 7.51,-1.57 1.99,0 3.92,0.24 5.78,0.72 1.86,0.48 3.61,1.06 5.23,1.75 1.63,0.69 3.06,1.34 4.29,1.96l-4.83 9.26z"/>
  <path class="fil1" d="M40.29 22.45c0,1.49 -0.58,3.44 -1.74,5.84 -1.16,2.4 -2.65,5.02 -4.48,7.83 -1.82,2.82 -3.88,5.7 -6.16,8.64 -2.28,2.94 -4.56,5.66 -6.84,8.14 -2.28,2.49 -4.46,4.64 -6.53,6.47 -2.07,1.82 -3.77,3.03 -5.1,3.61 -1.16,2.9 -2.24,5.82 -3.23,8.77 -0.99,2.94 -1.78,5.87 -2.36,8.77 0.75,-1.33 1.95,-3.09 3.61,-5.28 1.66,-2.2 3.48,-4.33 5.47,-6.4 1.99,-2.07 4.02,-3.85 6.09,-5.35 2.07,-1.49 3.9,-2.24 5.47,-2.24 1.41,0 2.38,0.6 2.92,1.8 0.54,1.2 0.81,2.63 0.81,4.29 0,2.49 -0.52,5.33 -1.55,8.52 -1.04,3.19 -2.45,6.2 -4.23,9.02 -1.78,2.82 -3.88,5.2 -6.28,7.15 -2.4,1.95 -4.93,2.92 -7.59,2.92 -2.74,0 -4.1,-1.16 -4.1,-3.48 0,-1.08 0.29,-2.2 0.87,-3.36 0.58,-1.16 1.33,-2.24 2.24,-3.23 0.91,-1 1.93,-1.8 3.05,-2.42 1.12,-0.62 2.18,-0.93 3.17,-0.93 0.41,0 0.79,0.1 1.12,0.31 0.33,0.21 0.41,0.6 0.25,1.18 -0.25,0.58 -0.66,0.95 -1.24,1.12 -0.58,0.17 -1.22,0.35 -1.93,0.56 -0.7,0.21 -1.41,0.6 -2.11,1.18 -0.7,0.58 -1.39,1.62 -2.05,3.11 -0.25,0.5 -0.37,1 -0.37,1.49 0,1.08 0.7,1.62 2.11,1.62 1.58,0 3.09,-0.54 4.54,-1.62 1.45,-1.08 2.78,-2.38 3.98,-3.92 1.2,-1.53 2.26,-3.15 3.17,-4.85 0.91,-1.7 1.62,-3.13 2.11,-4.29 0.17,-0.41 0.35,-0.99 0.56,-1.74 0.21,-0.75 0.39,-1.58 0.56,-2.49 0.17,-0.91 0.31,-1.84 0.44,-2.8 0.12,-0.95 0.19,-1.84 0.19,-2.67 0,-0.99 -0.12,-1.84 -0.37,-2.55 -0.25,-0.7 -0.7,-1.06 -1.37,-1.06 -0.41,0 -0.97,0.19 -1.68,0.56 -0.7,0.37 -1.26,0.73 -1.68,1.06 -1.74,1.24 -3.44,2.71 -5.1,4.41 -1.66,1.7 -3.19,3.48 -4.6,5.35 -1.41,1.86 -2.69,3.77 -3.85,5.72 -1.16,1.95 -2.11,3.75 -2.86,5.41 -0.25,0.5 -0.54,0.97 -0.87,1.43 -0.33,0.46 -0.83,0.68 -1.49,0.68 -0.83,0 -1.24,-0.79 -1.24,-2.36 0,-2.57 0.64,-6.01 1.93,-10.32 1.28,-4.31 2.96,-8.95 5.04,-13.93 2.07,-4.97 4.43,-10.03 7.09,-15.17 2.65,-5.14 5.35,-9.78 8.08,-13.93 2.74,-4.14 5.41,-7.52 8.02,-10.13 2.61,-2.61 4.91,-3.92 6.9,-3.92 1.16,0 1.99,0.33 2.49,0.99 0.5,0.66 0.75,1.49 0.75,2.49zm-29.35 36.81c1,-0.75 2.34,-1.95 4.04,-3.61 1.7,-1.66 3.52,-3.59 5.47,-5.78 1.95,-2.2 3.92,-4.54 5.91,-7.03 1.99,-2.49 3.79,-4.93 5.41,-7.34 1.62,-2.4 2.92,-4.64 3.92,-6.71 0.99,-2.07 1.49,-3.77 1.49,-5.1 0,-1.24 -0.46,-1.87 -1.37,-1.87 -0.5,0 -1.12,0.27 -1.87,0.81 -0.75,0.54 -1.33,1.02 -1.74,1.43 -1.91,1.82 -3.88,4.19 -5.91,7.09 -2.03,2.9 -4,6.01 -5.91,9.33 -1.91,3.32 -3.67,6.63 -5.28,9.95 -1.62,3.32 -3,6.26 -4.17,8.83zm28.6 22.38c0,-0.66 0.21,-1.76 0.62,-3.29 0.41,-1.53 0.93,-3.09 1.55,-4.66 0.62,-1.58 1.33,-2.94 2.11,-4.1 0.79,-1.16 1.55,-1.74 2.3,-1.74 0.41,0 0.73,0.15 0.93,0.44 0.21,0.29 0.23,0.64 0.06,1.06 -0.17,0.25 -0.37,0.5 -0.62,0.75 -0.25,0.25 -0.46,0.54 -0.62,0.87 -0.33,0.58 -0.62,1.16 -0.87,1.74 -0.25,0.58 -0.5,1.2 -0.75,1.86 -0.41,0.91 -0.85,2.11 -1.31,3.61 -0.46,1.49 -0.56,2.57 -0.31,3.23 0.91,-0.41 2.03,-1.35 3.36,-2.8 1.33,-1.45 2.78,-2.98 4.35,-4.6 1.58,-1.62 3.17,-3.07 4.79,-4.35 1.62,-1.28 3.13,-1.93 4.54,-1.93 0.91,0 1.55,0.33 1.93,1 0.37,0.66 0.56,1.53 0.56,2.61 0,1.82 -0.35,3.9 -1.06,6.22 -0.7,2.32 -1.35,4.19 -1.93,5.6 1.66,-0.83 3.34,-1.64 5.04,-2.42 1.7,-0.79 3.42,-1.6 5.16,-2.42 0.41,-0.17 1.2,-0.54 2.36,-1.12 1.16,-0.58 2.36,-1.18 3.61,-1.8 1.24,-0.62 2.38,-1.16 3.42,-1.62 1.04,-0.46 1.68,-0.68 1.93,-0.68 0.41,0 0.73,0.14 0.93,0.44 0.21,0.29 0.23,0.64 0.06,1.06 -0.25,0.66 -0.79,1.16 -1.62,1.49 -0.83,0.33 -1.53,0.62 -2.11,0.87 -3.48,1.58 -6.9,3.17 -10.26,4.79 -3.36,1.62 -6.69,3.25 -10.01,4.91 -0.83,1.91 -1.87,4.06 -3.11,6.47 -1.24,2.4 -2.63,4.89 -4.17,7.46 -1.53,2.57 -3.21,5.08 -5.04,7.52 -1.82,2.45 -3.71,4.62 -5.66,6.53 -1.95,1.91 -3.96,3.44 -6.03,4.6 -2.07,1.16 -4.15,1.74 -6.22,1.74 -1.74,0 -3,-0.41 -3.79,-1.24 -0.79,-0.83 -1.18,-1.91 -1.18,-3.23 0,-1.41 0.29,-2.74 0.87,-3.98 1.33,-2.98 3.21,-5.84 5.66,-8.58 2.45,-2.74 5.18,-5.29 8.21,-7.65 3.03,-2.36 6.13,-4.5 9.33,-6.4 3.19,-1.91 6.2,-3.56 9.02,-4.97 0.08,-0.17 0.14,-0.31 0.19,-0.44 0.04,-0.12 0.1,-0.27 0.19,-0.44 0.17,-0.41 0.44,-1.12 0.81,-2.11 0.37,-0.99 0.75,-2.11 1.12,-3.36 0.37,-1.24 0.7,-2.47 0.99,-3.67 0.29,-1.2 0.44,-2.18 0.44,-2.92 0,-0.91 -0.25,-1.37 -0.75,-1.37 -0.83,0 -1.97,0.7 -3.42,2.11 -1.45,1.41 -2.98,2.98 -4.6,4.72 -1.62,1.74 -3.23,3.32 -4.85,4.73 -1.62,1.41 -3.01,2.11 -4.17,2.11 -0.75,0 -1.26,-0.25 -1.55,-0.75 -0.29,-0.5 -0.44,-1.12 -0.44,-1.87zm14.42 6.84c-2.4,1.24 -5.02,2.72 -7.83,4.41 -2.82,1.7 -5.53,3.59 -8.15,5.66 -2.61,2.07 -4.97,4.29 -7.09,6.65 -2.11,2.36 -3.67,4.79 -4.66,7.27 -0.41,1.08 -0.62,2.03 -0.62,2.86 0,0.83 0.21,1.49 0.62,1.99 0.41,0.5 1.2,0.75 2.36,0.75 2.4,0 4.83,-1.04 7.27,-3.11 2.45,-2.07 4.81,-4.64 7.09,-7.71 2.28,-3.07 4.37,-6.3 6.28,-9.7 1.91,-3.4 3.48,-6.42 4.73,-9.08zm66.4 -21.01c0.41,0 0.85,0.06 1.31,0.19 0.46,0.12 0.81,0.35 1.06,0.68 0.83,0.08 1.29,0.48 1.37,1.18 0.08,0.7 0.04,1.51 -0.12,2.42 0.83,1.16 2.07,2.03 3.73,2.61 1.66,0.58 3.19,0.87 4.6,0.87 1,0 1.99,-0.12 2.98,-0.37 0.99,-0.25 1.89,-0.54 2.67,-0.87 0.79,-0.33 1.45,-0.62 1.99,-0.87 0.54,-0.25 0.85,-0.37 0.93,-0.37 0.91,0 1.24,0.41 0.99,1.24 -0.33,0.75 -0.97,1.37 -1.93,1.87 -0.95,0.5 -1.99,0.91 -3.11,1.24 -1.12,0.33 -2.22,0.58 -3.29,0.75 -1.08,0.17 -1.91,0.25 -2.49,0.25 -1.66,0 -3.21,-0.23 -4.66,-0.68 -1.45,-0.46 -2.72,-1.14 -3.79,-2.05 -0.5,0.91 -1.06,1.84 -1.68,2.8 -0.62,0.95 -1.35,1.84 -2.18,2.67 -0.83,0.83 -1.68,1.49 -2.55,1.99 -0.87,0.5 -1.8,0.75 -2.8,0.75 -1.24,0 -2.14,-0.35 -2.67,-1.06 -0.54,-0.7 -0.81,-1.6 -0.81,-2.67 0,-1.16 0.33,-2.47 1,-3.92 0.66,-1.45 1.49,-2.82 2.49,-4.1 0.99,-1.28 2.11,-2.36 3.36,-3.23 1.24,-0.87 2.45,-1.31 3.61,-1.31zm0.37 5.6c-0.08,-0.25 -0.21,-0.7 -0.37,-1.37 -0.08,-0.17 -0.1,-0.35 -0.06,-0.56 0.04,-0.21 0.06,-0.39 0.06,-0.56 -0.5,-0.17 -0.91,-0.25 -1.24,-0.25 -0.58,0 -1.24,0.33 -1.99,0.99 -0.75,0.66 -1.41,1.45 -1.99,2.36 -0.58,0.91 -1.08,1.89 -1.49,2.92 -0.41,1.04 -0.62,1.89 -0.62,2.55 0,1.16 0.46,1.74 1.37,1.74 0.66,0 1.33,-0.29 1.99,-0.87 0.66,-0.58 1.28,-1.29 1.87,-2.11 0.58,-0.83 1.08,-1.7 1.49,-2.61 0.41,-0.91 0.75,-1.66 1,-2.24zm33.45 -8.58c1.08,0 1.91,0.37 2.49,1.12 0.58,0.75 0.87,1.66 0.87,2.74 0,0.75 -0.17,1.43 -0.5,2.05 -0.33,0.62 -0.95,0.93 -1.87,0.93 -0.66,0 -0.97,-0.27 -0.93,-0.81 0.04,-0.54 0.06,-1.1 0.06,-1.68 0,-0.91 -0.41,-1.37 -1.24,-1.37 -0.99,0 -2.26,0.48 -3.79,1.43 -1.53,0.95 -3.05,2.13 -4.54,3.54 -1.49,1.41 -2.76,2.88 -3.79,4.41 -1.04,1.53 -1.55,2.88 -1.55,4.04 0,1.41 0.52,2.47 1.55,3.17 1.04,0.7 2.3,1.06 3.79,1.06 2.15,0 4.77,-0.62 7.83,-1.87 3.07,-1.24 6.07,-2.61 9.02,-4.1 2.94,-1.49 5.49,-2.86 7.65,-4.1 2.16,-1.24 3.36,-1.87 3.61,-1.87 0.91,0 1.24,0.41 0.99,1.24 -0.25,0.58 -1.39,1.49 -3.42,2.74 -2.03,1.24 -4.29,2.49 -6.78,3.73 -2.49,1.24 -4.89,2.38 -7.21,3.42 -2.32,1.04 -3.94,1.72 -4.85,2.05 -1.41,0.41 -2.78,0.79 -4.1,1.12 -1.33,0.33 -2.61,0.5 -3.85,0.5 -2.15,0 -3.92,-0.52 -5.28,-1.55 -1.37,-1.04 -2.05,-2.51 -2.05,-4.41 0,-1.66 0.66,-3.5 1.99,-5.53 1.33,-2.03 2.92,-3.94 4.79,-5.72 1.87,-1.78 3.81,-3.27 5.84,-4.48 2.03,-1.2 3.79,-1.8 5.28,-1.8zm31.58 0c1.08,0 1.91,0.37 2.49,1.12 0.58,0.75 0.87,1.66 0.87,2.74 0,0.75 -0.17,1.43 -0.5,2.05 -0.33,0.62 -0.95,0.93 -1.87,0.93 -0.66,0 -0.97,-0.27 -0.93,-0.81 0.04,-0.54 0.06,-1.1 0.06,-1.68 0,-0.91 -0.41,-1.37 -1.24,-1.37 -0.99,0 -2.26,0.48 -3.79,1.43 -1.53,0.95 -3.05,2.13 -4.54,3.54 -1.49,1.41 -2.76,2.88 -3.79,4.41 -1.04,1.53 -1.55,2.88 -1.55,4.04 0,1.41 0.52,2.47 1.55,3.17 1.04,0.7 2.3,1.06 3.79,1.06 2.15,0 4.77,-0.62 7.83,-1.87 3.07,-1.24 6.07,-2.61 9.02,-4.1 2.94,-1.49 5.49,-2.86 7.65,-4.1 2.16,-1.24 3.36,-1.87 3.61,-1.87 0.91,0 1.24,0.41 0.99,1.24 -0.25,0.58 -1.39,1.49 -3.42,2.74 -2.03,1.24 -4.29,2.49 -6.78,3.73 -2.49,1.24 -4.89,2.38 -7.21,3.42 -2.32,1.04 -3.94,1.72 -4.85,2.05 -1.41,0.41 -2.78,0.79 -4.1,1.12 -1.33,0.33 -2.61,0.5 -3.85,0.5 -2.15,0 -3.92,-0.52 -5.28,-1.55 -1.37,-1.04 -2.05,-2.51 -2.05,-4.41 0,-1.66 0.66,-3.5 1.99,-5.53 1.33,-2.03 2.92,-3.94 4.79,-5.72 1.87,-1.78 3.81,-3.27 5.84,-4.48 2.03,-1.2 3.79,-1.8 5.28,-1.8zm25.24 3.98c0.91,0 1.87,0.25 2.86,0.75 1.24,-1.16 2.42,-2.11 3.54,-2.86 1.12,-0.75 2.05,-1.12 2.8,-1.12 1.24,0 1.87,1.16 1.87,3.48 0,1.24 -0.15,2.72 -0.44,4.41 -0.29,1.7 -0.62,3.48 -1,5.35 -0.37,1.87 -0.7,3.71 -0.99,5.53 -0.29,1.82 -0.44,3.48 -0.44,4.97 0,1.49 0.21,2.69 0.62,3.61 0.41,0.91 1.2,1.37 2.36,1.37 1.24,0 2.72,-0.62 4.41,-1.86 1.7,-1.24 3.4,-2.69 5.1,-4.35 1.7,-1.66 3.29,-3.34 4.79,-5.04 1.49,-1.7 2.61,-3.05 3.36,-4.04 0.66,-0.83 1.31,-1.68 1.93,-2.55 0.62,-0.87 1.26,-1.64 1.93,-2.3 0.41,-0.41 0.87,-0.62 1.37,-0.62 0.91,0 1.24,0.41 1,1.24 -0.08,0.25 -0.29,0.6 -0.62,1.06 -0.33,0.46 -0.68,0.93 -1.06,1.43 -0.37,0.5 -0.77,1 -1.18,1.49 -0.41,0.5 -0.75,0.87 -1,1.12 -1.08,1.33 -2.47,2.96 -4.17,4.91 -1.7,1.95 -3.52,3.83 -5.47,5.66 -1.95,1.82 -3.94,3.4 -5.97,4.73 -2.03,1.33 -3.88,1.99 -5.53,1.99 -1.91,0 -3.21,-0.66 -3.92,-1.99 -0.7,-1.33 -1.06,-2.98 -1.06,-4.97 0,-1.66 0.17,-3.44 0.5,-5.35 0.33,-1.91 0.68,-3.79 1.06,-5.66 0.37,-1.87 0.73,-3.61 1.06,-5.22 0.33,-1.62 0.5,-2.92 0.5,-3.92 0,-0.75 -0.08,-1.24 -0.25,-1.49 -0.41,0.25 -0.87,0.58 -1.37,0.99 -0.5,0.41 -1.08,0.91 -1.74,1.49 0.33,0.33 0.5,0.83 0.5,1.49 0,0.58 -0.23,1.08 -0.68,1.49 -0.46,0.41 -0.97,0.62 -1.55,0.62 -0.33,0 -0.66,-0.29 -0.99,-0.87 -1.08,1.16 -2.2,2.34 -3.36,3.54 -1.16,1.2 -2.26,2.3 -3.3,3.3 -1.04,0.99 -1.97,1.82 -2.8,2.49 -0.83,0.66 -1.45,0.99 -1.87,0.99 -1.24,0 -1.86,-0.66 -1.86,-1.99 0,-1.24 0.33,-2.63 0.99,-4.17 0.66,-1.53 1.53,-2.98 2.61,-4.35 1.08,-1.37 2.28,-2.51 3.61,-3.42 1.33,-0.91 2.61,-1.37 3.85,-1.37zm-7.96 11.94c0.91,-0.83 2.11,-2.09 3.61,-3.79 1.49,-1.7 3.07,-3.38 4.73,-5.04 -0.5,-0.17 -0.99,-0.25 -1.49,-0.25 -0.75,0 -1.45,0.25 -2.11,0.75 -0.66,0.5 -1.24,1.1 -1.74,1.8 -0.5,0.7 -0.93,1.45 -1.31,2.24 -0.37,0.79 -0.68,1.47 -0.93,2.05 -0.33,0.75 -0.58,1.49 -0.75,2.24zm29.84 26.49c3.32,-10.78 6.96,-21.33 10.94,-31.65 3.98,-10.32 8.25,-20.62 12.81,-30.9 -1.41,0.08 -2.86,0.14 -4.35,0.19 -1.49,0.04 -2.94,0.14 -4.35,0.31 -2.16,0.17 -4.27,0.33 -6.34,0.5 -2.07,0.17 -4.19,0.25 -6.34,0.25 -0.41,0 -0.73,-0.1 -0.93,-0.31 -0.21,-0.21 -0.23,-0.52 -0.06,-0.93 0.25,-0.66 0.66,-1.12 1.24,-1.37 0.25,-0.08 1.45,-0.21 3.61,-0.37 2.15,-0.17 4.54,-0.33 7.15,-0.5 2.61,-0.17 5.06,-0.31 7.34,-0.44 2.28,-0.12 3.71,-0.19 4.29,-0.19 0.41,-0.99 0.85,-1.97 1.31,-2.92 0.46,-0.95 0.89,-1.93 1.31,-2.92 0.17,-0.33 0.48,-0.95 0.93,-1.87 0.46,-0.91 0.91,-1.87 1.37,-2.86 0.46,-0.99 0.89,-1.89 1.31,-2.67 0.41,-0.79 0.7,-1.26 0.87,-1.43 0.5,-0.5 0.99,-0.75 1.49,-0.75 0.91,0 1.24,0.41 1,1.24 -0.33,0.66 -0.66,1.35 -1,2.05 -0.33,0.7 -0.7,1.39 -1.12,2.05 -0.66,1.41 -1.31,2.8 -1.93,4.17 -0.62,1.37 -1.26,2.76 -1.93,4.17 -0.17,0.25 -0.29,0.52 -0.37,0.81 -0.08,0.29 -0.21,0.56 -0.37,0.81 3.15,-0.17 6.34,-0.29 9.57,-0.37 3.23,-0.08 6.42,-0.12 9.57,-0.12 0.66,0 1.51,0.02 2.55,0.06 1.04,0.04 2.05,0.15 3.05,0.31 1,0.17 1.82,0.39 2.49,0.68 0.66,0.29 0.87,0.73 0.62,1.31 -0.17,0.41 -0.41,0.77 -0.75,1.06 -0.33,0.29 -0.7,0.44 -1.12,0.44 -0.58,0 -1.1,-0.08 -1.55,-0.25 -0.46,-0.17 -0.97,-0.29 -1.55,-0.37 -1.16,-0.17 -2.42,-0.27 -3.79,-0.31 -1.37,-0.04 -2.72,-0.06 -4.04,-0.06 -2.65,0 -5.35,0.04 -8.08,0.12 -2.74,0.08 -5.47,0.21 -8.21,0.37 -4.73,10.53 -9.14,21.12 -13.24,31.77 -4.1,10.65 -7.77,21.53 -11,32.64 0.58,0.25 0.87,0.54 0.87,0.87 0,0.08 -0.12,0.48 -0.37,1.18 -0.25,0.7 -0.52,1.45 -0.81,2.24 -0.29,0.79 -0.58,1.55 -0.87,2.3 -0.29,0.75 -0.48,1.24 -0.56,1.49 -0.25,0.58 -0.54,1.08 -0.87,1.49 -0.33,0.41 -0.83,0.62 -1.49,0.62 -0.5,0 -0.83,-0.21 -1,-0.62 -0.08,-0.33 -0.02,-1.02 0.19,-2.05 0.21,-1.04 0.48,-2.16 0.81,-3.36 0.33,-1.2 0.66,-2.36 0.99,-3.48 0.33,-1.12 0.58,-1.93 0.75,-2.42zm35.44 -47.25c0.25,-0.58 0.66,-1.08 1.24,-1.49 0.58,-0.41 1.16,-0.62 1.74,-0.62 0.58,0 0.99,0.21 1.24,0.62 0.25,0.41 0.25,0.91 0,1.49 -0.17,0.58 -0.54,1.08 -1.12,1.49 -0.58,0.41 -1.16,0.62 -1.74,0.62 -0.58,0 -0.99,-0.21 -1.24,-0.62 -0.25,-0.41 -0.29,-0.91 -0.12,-1.49zm-8.7 22.01c0,-0.66 0.17,-1.8 0.5,-3.42 0.33,-1.62 0.79,-3.25 1.37,-4.91 0.58,-1.66 1.26,-3.11 2.05,-4.35 0.79,-1.24 1.6,-1.87 2.42,-1.87 0.41,0 0.7,0.15 0.87,0.44 0.17,0.29 0.17,0.64 0,1.06 -0.41,0.91 -0.85,1.78 -1.31,2.61 -0.46,0.83 -0.89,1.66 -1.31,2.49 -0.41,0.91 -0.77,2.01 -1.06,3.29 -0.29,1.29 -0.44,2.51 -0.44,3.67 0,1.33 0.25,2.42 0.75,3.29 0.5,0.87 1.41,1.31 2.74,1.31 2.49,0 5.1,-0.89 7.83,-2.67 2.74,-1.78 5.1,-3.67 7.09,-5.66 0.5,-0.5 1,-1.06 1.49,-1.68 0.5,-0.62 0.99,-1.14 1.49,-1.55 0.58,-0.41 1.04,-0.62 1.37,-0.62 0.41,0 0.73,0.14 0.93,0.44 0.21,0.29 0.23,0.64 0.06,1.06 -0.17,0.41 -0.6,0.95 -1.31,1.62 -0.7,0.66 -1.22,1.2 -1.55,1.62 -1.24,1.24 -2.61,2.49 -4.1,3.73 -1.49,1.24 -3.03,2.36 -4.6,3.36 -1.58,0.99 -3.19,1.78 -4.85,2.36 -1.66,0.58 -3.27,0.87 -4.85,0.87 -2.16,0 -3.63,-0.62 -4.41,-1.87 -0.79,-1.24 -1.18,-2.78 -1.18,-4.6zm33.2 -14.18c0.41,0 0.85,0.06 1.31,0.19 0.46,0.12 0.81,0.35 1.06,0.68 0.83,0.08 1.29,0.48 1.37,1.18 0.08,0.7 0.04,1.51 -0.12,2.42 0.83,1.16 2.07,2.03 3.73,2.61 1.66,0.58 3.19,0.87 4.6,0.87 1,0 1.99,-0.12 2.98,-0.37 0.99,-0.25 1.89,-0.54 2.67,-0.87 0.79,-0.33 1.45,-0.62 1.99,-0.87 0.54,-0.25 0.85,-0.37 0.93,-0.37 0.91,0 1.24,0.41 0.99,1.24 -0.33,0.75 -0.97,1.37 -1.93,1.87 -0.95,0.5 -1.99,0.91 -3.11,1.24 -1.12,0.33 -2.22,0.58 -3.29,0.75 -1.08,0.17 -1.91,0.25 -2.49,0.25 -1.66,0 -3.21,-0.23 -4.66,-0.68 -1.45,-0.46 -2.72,-1.14 -3.79,-2.05 -0.5,0.91 -1.06,1.84 -1.68,2.8 -0.62,0.95 -1.35,1.84 -2.18,2.67 -0.83,0.83 -1.68,1.49 -2.55,1.99 -0.87,0.5 -1.8,0.75 -2.8,0.75 -1.24,0 -2.14,-0.35 -2.67,-1.06 -0.54,-0.7 -0.81,-1.6 -0.81,-2.67 0,-1.16 0.33,-2.47 1,-3.92 0.66,-1.45 1.49,-2.82 2.49,-4.1 0.99,-1.28 2.11,-2.36 3.36,-3.23 1.24,-0.87 2.45,-1.31 3.61,-1.31zm0.37 5.6c-0.08,-0.25 -0.21,-0.7 -0.37,-1.37 -0.08,-0.17 -0.1,-0.35 -0.06,-0.56 0.04,-0.21 0.06,-0.39 0.06,-0.56 -0.5,-0.17 -0.91,-0.25 -1.24,-0.25 -0.58,0 -1.24,0.33 -1.99,0.99 -0.75,0.66 -1.41,1.45 -1.99,2.36 -0.58,0.91 -1.08,1.89 -1.49,2.92 -0.41,1.04 -0.62,1.89 -0.62,2.55 0,1.16 0.46,1.74 1.37,1.74 0.66,0 1.33,-0.29 1.99,-0.87 0.66,-0.58 1.28,-1.29 1.87,-2.11 0.58,-0.83 1.08,-1.7 1.49,-2.61 0.41,-0.91 0.75,-1.66 1,-2.24zm16.54 13.68c-0.5,0 -0.83,-0.33 -1,-0.99 0,-0.41 0.35,-1.76 1.06,-4.04 0.7,-2.28 1.58,-4.73 2.61,-7.34 1.04,-2.61 2.13,-4.97 3.29,-7.09 1.16,-2.11 2.16,-3.17 2.98,-3.17 0.99,0 1.28,0.41 0.87,1.24 -0.17,0.41 -0.35,0.79 -0.56,1.12 -0.21,0.33 -0.39,0.66 -0.56,0.99 -0.5,0.83 -0.91,1.64 -1.24,2.42 -0.33,0.79 -0.66,1.6 -1,2.42 -0.33,0.83 -0.64,1.66 -0.93,2.49 -0.29,0.83 -0.6,1.66 -0.93,2.49 0.5,-0.75 1.16,-1.7 1.99,-2.86 0.83,-1.16 1.74,-2.26 2.74,-3.29 0.99,-1.04 2.03,-1.95 3.11,-2.74 1.08,-0.79 2.11,-1.18 3.11,-1.18 1.16,0 1.93,0.66 2.3,1.99 0.37,1.33 0.75,2.76 1.12,4.29 0.37,1.53 0.87,2.96 1.49,4.29 0.62,1.33 1.72,1.99 3.3,1.99 1.49,0 2.96,-0.35 4.41,-1.06 1.45,-0.7 2.8,-1.47 4.04,-2.3 1.24,-0.83 2.32,-1.6 3.23,-2.3 0.91,-0.7 1.53,-1.06 1.86,-1.06 0.41,0 0.73,0.14 0.93,0.44 0.21,0.29 0.23,0.64 0.06,1.06 -0.33,0.75 -1.14,1.6 -2.42,2.55 -1.28,0.95 -2.74,1.82 -4.35,2.61 -1.62,0.79 -3.25,1.47 -4.91,2.05 -1.66,0.58 -2.98,0.87 -3.98,0.87 -1.91,0 -3.32,-0.6 -4.23,-1.8 -0.91,-1.2 -1.58,-2.55 -1.99,-4.04 -0.41,-1.49 -0.73,-2.9 -0.93,-4.23 -0.21,-1.33 -0.56,-2.11 -1.06,-2.36 -0.91,0.17 -1.97,0.97 -3.17,2.42 -1.2,1.45 -2.42,3.07 -3.67,4.85 -1.24,1.78 -2.4,3.5 -3.48,5.16 -1.08,1.66 -1.95,2.78 -2.61,3.36 -0.5,0.5 -0.99,0.75 -1.49,0.75z"/>
 </g>
</svg>
