<?xml version="1.0" encoding="UTF-8"?>
<!DOCTYPE svg PUBLIC "-//W3C//DTD SVG 1.1//EN" "http://www.w3.org/Graphics/SVG/1.1/DTD/svg11.dtd">
<!-- Creator: CorelDRAW -->
<svg xmlns="http://www.w3.org/2000/svg" xml:space="preserve" width="4.8436mm" height="4.8476mm" version="1.1" style="shape-rendering:geometricPrecision; text-rendering:geometricPrecision; image-rendering:optimizeQuality; fill-rule:evenodd; clip-rule:evenodd"
viewBox="0 0 319.07 319.33"
 xmlns:xlink="http://www.w3.org/1999/xlink"
 xmlns:xodm="http://www.corel.com/coreldraw/odm/2003">
 <defs>
  <style type="text/css">
   <![CDATA[
    .fil0 {fill:#434242}
   ]]>
  </style>
 </defs>
 <g id="Layer_x0020_1">
  <metadata id="CorelCorpID_0Corel-Layer"/>
  <path class="fil0" d="M81.76 1.71c-42,5.52 -74.01,36.94 -80.16,78.9 -2.23,15.26 -2.06,141.83 0.04,157.44 3.18,23.74 13.74,40.26 26.36,53.02 35.2,35.61 79.66,27.46 130.74,27.46 23.93,0 56.9,1.84 79.5,-1.2 41.06,-5.53 73.5,-37.49 79.13,-78.96 2.33,-17.11 2.19,-140.44 -0.07,-157.51 -5.41,-41.11 -37.5,-73.44 -78.87,-79.21 -16.35,-2.28 -140.12,-2.11 -156.68,0.05l0 0.01zm4.84 25.9c-71.28,10.61 -59.65,76.71 -59.65,139.19 0,37.23 -7.84,85.63 23.68,109.68 13.44,10.26 27.86,15.71 49.97,15.72 22.65,0.01 118.73,1.19 132.95,-0.7 38.34,-5.12 58.61,-34.42 58.62,-73.01 0.01,-22.77 1.15,-118.69 -0.63,-132.99 -4.7,-37.9 -34.54,-58.61 -73.04,-58.63 -21.65,-0.01 -118.82,-1.21 -131.91,0.74l0 -0.01zm56.87 54.27c-37.73,8.35 -71.7,45.04 -61.57,93.95 7.79,37.63 45.96,71.28 93.98,61.41 37.34,-7.67 71.37,-46.08 61.33,-93.99 -7.8,-37.21 -45.99,-71.93 -93.74,-61.38l0 0zm3.29 26.8c-70.34,19.26 -39.4,120.07 26.88,101.98 23.85,-6.51 45.74,-32.99 37.1,-65.27 -6.34,-23.66 -32.73,-45.27 -63.98,-36.71l0 -0.01zm93.73 -54.05c-24.03,6.5 -16.02,45.03 11.41,37.54 22.04,-6.01 15.28,-44.75 -11.41,-37.54z"/>
 </g>
</svg>
