<?xml version="1.0" encoding="UTF-8"?>
<!DOCTYPE svg PUBLIC "-//W3C//DTD SVG 1.1//EN" "http://www.w3.org/Graphics/SVG/1.1/DTD/svg11.dtd">
<!-- Creator: CorelDRAW -->
<svg xmlns="http://www.w3.org/2000/svg" xml:space="preserve" width="22.8237mm" height="10.3504mm" version="1.1" style="shape-rendering:geometricPrecision; text-rendering:geometricPrecision; image-rendering:optimizeQuality; fill-rule:evenodd; clip-rule:evenodd"
viewBox="0 0 2282.36 1035.04"
 xmlns:xlink="http://www.w3.org/1999/xlink"
 xmlns:xodm="http://www.corel.com/coreldraw/odm/2003">
 <defs>
  <style type="text/css">
   <![CDATA[
    .fil0 {fill:#2B2A29;fill-rule:nonzero}
    .fil2 {fill:url(#id0)}
    .fil1 {fill:url(#id1)}
    .fil3 {fill:url(#id2)}
    .fil4 {fill:url(#id3)}
   ]]>
  </style>
  <linearGradient id="id0" gradientUnits="userSpaceOnUse" x1="1542.31" y1="192.81" x2="1485.83" y2="228.92">
   <stop offset="0" style="stop-opacity:1; stop-color:#C69C3B"/>
   <stop offset="0.501961" style="stop-opacity:1; stop-color:#F2DA8B"/>
   <stop offset="1" style="stop-opacity:1; stop-color:#C69C3B"/>
  </linearGradient>
  <linearGradient id="id1" gradientUnits="userSpaceOnUse" xlink:href="#id0" x1="1691.92" y1="192.29" x2="1635.44" y2="228.4">
  </linearGradient>
  <linearGradient id="id2" gradientUnits="userSpaceOnUse" xlink:href="#id0" x1="1526.23" y1="224.87" x2="1439.13" y2="243.43">
  </linearGradient>
  <linearGradient id="id3" gradientUnits="userSpaceOnUse" xlink:href="#id0" x1="1745.91" y1="403.05" x2="1375.11" y2="627.29">
  </linearGradient>
 </defs>
 <g id="Layer_x0020_1">
  <metadata id="CorelCorpID_0Corel-Layer"/>
  <g id="_1685006804432">
   <path class="fil0" d="M421.04 364.79c20.99,0 41.02,4.03 59.53,11.97 18.6,7.96 35.17,19.14 49.26,33.22 28.38,28.4 43.44,64.59 44.79,107.53l0 2.33c-1.37,43.12 -16.43,79.36 -44.79,107.72 -14.08,14.09 -30.66,25.27 -49.27,33.23 -18.53,7.95 -38.56,11.98 -59.52,11.98 -21.26,0 -41.43,-4.03 -59.96,-11.98 -18.59,-7.95 -35.02,-19.13 -48.84,-33.23 -14.05,-14.05 -25.24,-30.55 -33.24,-49.05 -7.94,-18.41 -11.97,-38.51 -11.97,-59.73 0,-21.21 4.03,-41.3 11.97,-59.73 7.97,-18.46 19.17,-34.98 33.3,-49.12 13.77,-14.04 30.18,-25.2 48.78,-33.18 18.51,-7.94 38.68,-11.96 59.96,-11.96zm-163.17 316.69l1.11 -1.08 -1.09 1.1c21.03,21.01 45.71,37.72 73.37,49.64 27.78,11.99 57.98,18.07 89.78,18.07 31.5,0 61.56,-6.08 89.34,-18.07 25.04,-10.79 47.66,-25.51 67.29,-43.77 3.27,10.89 9.09,20.5 17.32,28.63 12.66,12.49 28.55,18.83 47.22,18.83l8.83 0 0 -218.02c-2.04,-64.07 -24.68,-118.15 -67.29,-160.74 -20.98,-20.99 -45.66,-37.69 -73.37,-49.67 -27.78,-11.98 -57.83,-18.05 -89.34,-18.05 -31.79,0 -62,6.07 -89.79,18.05 -27.69,11.98 -52.37,28.68 -73.36,49.67 -20.73,20.74 -37.29,45.27 -49.22,72.94 -11.99,27.76 -18.06,57.97 -18.06,89.77 0,31.53 6.07,61.58 18.06,89.35 11.94,27.69 28.5,52.37 49.2,73.35z"/>
   <path class="fil0" d="M918.65 509.51c-17.73,-12.78 -36.13,-24.79 -54.69,-35.67 -13.99,-8.31 -27.05,-16.65 -38.82,-24.81 -11.21,-7.76 -20.37,-15.97 -27.23,-24.42 -6.21,-7.62 -9.35,-16.29 -9.35,-25.74 0,-10.96 3.79,-19.02 11.57,-24.64 8.41,-6.06 17.81,-9.24 28.63,-9.7l3.05 0c9.8,0 18.42,2.54 26.34,7.74 21.01,14.42 46.76,19.24 72.51,13.58l31.87 -6.95 -2.95 -8.72c-8.37,-24.56 -22.75,-43.81 -42.74,-57.24 -19.8,-13.28 -42.49,-21.25 -67.44,-23.71 -24.41,-2.55 -49.07,0.42 -75.4,9.02 -20.8,6.81 -39.05,18.93 -54.25,36.03 -15.41,17.29 -23.22,39.03 -23.22,64.59 0,22.68 5.97,42.66 17.74,59.35 11.39,16.16 25.91,30.73 43.14,43.29 16.63,12.15 34.12,23.52 51.95,33.8 14.97,8.87 29.13,17.94 42.08,26.92 12.35,8.56 22.41,17.85 29.89,27.62 6.99,9.07 10.53,19.65 10.53,31.44 0,12.3 -3.76,22.5 -11.19,30.3 -7.67,8.1 -17.28,13.91 -28.54,17.27 -7.31,2.18 -14.82,3.29 -22.34,3.29 -4.41,0 -11.08,-0.72 -19.83,-2.15 -7.33,-1.21 -15.43,-5.47 -24.1,-12.7 -22.51,-18.3 -48.11,-24.16 -78.26,-17.91l-28.35 6.05 2.93 8.74c9.42,28.01 27.84,51.13 54.84,68.74 25.61,15.63 52.9,24.32 81.06,25.83 3.89,0.31 7.65,0.46 11.19,0.46 24.26,0 48.28,-4.88 71.4,-14.49 23.27,-9.69 43.12,-24.51 58.99,-44.06 16.07,-19.75 24.23,-43.08 24.23,-69.37 0,-24.91 -6.38,-46.78 -18.97,-65 -12.21,-17.71 -27.78,-33.44 -46.27,-46.78z"/>
   <path class="fil0" d="M662.28 822.62c-16.02,-16.21 -35.72,-24.44 -58.56,-24.44l-459.94 0 0 -682.23 0.19 0 0 -56.08c-2.85,-47.52 -38.97,-59.87 -38.97,-59.87l-94.08 0c-14.26,0 -10.46,9.5 -10.46,9.5 51.32,21.86 48.47,61.77 48.47,61.77l0.95 44.68 0.09 0 0 776.05 636.42 0 0 -10.1c0,-23.11 -8.11,-43.05 -24.11,-59.28z"/>
   <path class="fil1" d="M1703.7 129.57c-23.24,-17.43 -42.98,-7.75 -42.98,-7.75 -70.87,37.18 -60.42,149.09 -60.42,149.09 113.47,-37.18 121.22,-90.61 121.22,-90.61 11.61,-33.31 -17.82,-50.73 -17.82,-50.73zm-103.4 141.34c0,0 39.07,-121.93 76.43,-109.88 2.64,0.86 4.88,2.7 6.17,5.17 5.19,9.86 8.44,40.43 -82.6,104.71z"/>
   <path class="fil2" d="M1474.04 130.08c23.23,-17.43 42.99,-7.74 42.99,-7.74 70.86,37.17 60.41,149.09 60.41,149.09 0,0 -39.07,-121.93 -76.43,-109.88 -2.65,0.85 -4.87,2.7 -6.17,5.17 -5.19,9.86 -8.44,40.43 82.6,104.71 -113.47,-37.18 -121.21,-90.62 -121.21,-90.62 -11.62,-33.3 17.81,-50.73 17.81,-50.73z"/>
   <path class="fil3" d="M1418.29 229.44c0,0 -16.99,0.9 -7.93,-22.65 0,0 6.57,-17.44 28.99,-5.89 0,0 20.16,12.91 38.73,39.18 18.57,26.27 38.73,31.03 52.09,26.5 0,0 -16.08,20.16 -46.43,4.76 -30.35,-15.41 -46.65,-36.24 -65.45,-41.9z"/>
   <path class="fil4" d="M1645.8 287.52l-146.69 0c-85,0 -153.91,70.02 -153.91,156.41l0 67.88c0,127.55 101.74,230.95 227.25,230.95 33.53,0 66.92,-7.54 97.22,-22.14 29.39,-14.16 55.66,-34.79 76.61,-60.06 21.12,-25.48 36.72,-55.55 45.37,-87.69 7.67,-28.51 12.99,-64.65 -2.09,-91.61 -5.61,-10.04 -14.15,-18.23 -24.86,-22.4 0,0 -0.02,-0.01 -0.03,-0.01l-82.02 0c-12.44,0 -9.12,8.42 -9.12,8.42 14.8,6.41 28.56,16.55 36.26,31.22 7.35,13.99 7.84,31.19 4.62,46.42 -7.05,33.3 -26.18,63.92 -52.2,85.23 -26.29,21.54 -59.48,33.39 -93.25,33.39 -82.29,0 -149,-67.79 -149,-151.42l0 -74.54c0,-42.46 33.87,-76.88 75.66,-76.88l146.69 0c41.78,0 75.65,34.42 75.65,76.88l0 0c0,8.09 6.45,14.63 14.4,14.63l59.21 0c4.5,0 8.15,-3.7 8.15,-8.27l0 0c0,-86.39 -68.91,-156.41 -153.92,-156.41z"/>
   <path class="fil0" d="M2257.31 403.69c-16.54,-30.51 -38.84,-55.98 -66.29,-75.7 -27.39,-19.66 -57.99,-32.79 -90.93,-39.01 -14.01,-2.95 -28.44,-4.44 -42.86,-4.44 -18.78,0 -41.49,3.49 -67.48,10.4 -23.87,6.33 -49.02,20.75 -74.77,42.86 -0.14,-0.2 -0.29,-0.37 -0.43,-0.57l0 -43c-2.4,-39.89 -32.71,-50.25 -32.71,-50.25l-78.98 0c-11.97,0 -8.78,7.97 -8.78,7.97 43.08,18.35 40.69,51.86 40.69,51.86l0.8 37.5 0.25 0 0.06 465.77 1.72 9.29 9.36 0c22.82,0 42.52,-8.22 58.55,-24.45 16,-16.21 24.11,-35.81 24.11,-58.21l0 -225.64c0,-35.5 12.87,-66.2 38.24,-91.25 20.95,-20.32 44.1,-32.61 68.83,-36.51 7.57,-1.3 14.84,-1.97 21.6,-1.97 17.25,0 36.06,4.28 55.9,12.71 19.38,8.23 36.85,22.88 51.94,43.53 14.88,20.37 22.42,45.1 22.42,73.49l0 444.3c0,22.46 8.21,42.06 24.41,58.26 16.2,16.2 36.15,24.41 59.31,24.41l10.09 0 0 -526.97c0,-38.6 -8.43,-73.72 -25.05,-104.38z"/>
   <path class="fil0" d="M1345.1 675.08c-18.37,46.35 -51.91,43.77 -51.91,43.77l-37.55 0.86 0 0.15 -149.35 0 243.38 -429.45 1.57 -3.17 0.89 -55.09c-101.64,0 -203.09,-0.66 -304.09,-0.66 -39.93,2.58 -50.32,35.2 -50.32,35.2l0 84.97c0,12.88 7.99,9.45 7.99,9.45 18.37,-46.35 51.93,-43.78 51.93,-43.78l37.54 -0.86 0 -0.06 152.46 0 -252.2 432.21 -0.4 0.8 0 54.71 260.6 0 0 0.56 47.13 0c39.94,-2.58 50.32,-35.19 50.32,-35.19l0 -84.98c0,-12.87 -7.99,-9.44 -7.99,-9.44z"/>
  </g>
 </g>
</svg>
