<?xml version="1.0" encoding="UTF-8"?>
<!DOCTYPE svg PUBLIC "-//W3C//DTD SVG 1.1//EN" "http://www.w3.org/Graphics/SVG/1.1/DTD/svg11.dtd">
<!-- Creator: CorelDRAW -->
<svg xmlns="http://www.w3.org/2000/svg" xml:space="preserve" width="68.3971mm" height="19.106mm" version="1.1" style="shape-rendering:geometricPrecision; text-rendering:geometricPrecision; image-rendering:optimizeQuality; fill-rule:evenodd; clip-rule:evenodd"
viewBox="0 0 515.65 144.04"
 xmlns:xlink="http://www.w3.org/1999/xlink"
 xmlns:xodm="http://www.corel.com/coreldraw/odm/2003">
 <defs>
  <style type="text/css">
   <![CDATA[
    .fil0 {fill:#0D0D0D;fill-rule:nonzero}
    .fil1 {fill:#CC9933;fill-rule:nonzero}
   ]]>
  </style>
 </defs>
 <g id="Layer_x0020_1">
  <metadata id="CorelCorpID_0Corel-Layer"/>
  <path class="fil0" d="M37.47 49.89l0 -26.09 -8.3 18.35 -7.26 0 -8.3 -18.35 0 26.09 -13.61 0 0 -49.54 14.86 0 10.68 23.3 10.74 -23.3 14.79 0 0 49.54 -13.61 0zm44.15 0.35c-3.95,0 -7.35,-0.65 -10.19,-1.95 -2.84,-1.3 -5.15,-3.08 -6.94,-5.36 -1.79,-2.28 -3.11,-4.9 -3.94,-7.84 -0.84,-2.95 -1.26,-6.05 -1.26,-9.3l0 -25.43 13.61 0 0 25.42c0,1.63 0.16,3.17 0.49,4.66 0.33,1.49 0.84,2.81 1.53,3.98 0.7,1.15 1.59,2.07 2.69,2.74 1.09,0.67 2.43,1.01 4.01,1.01 1.63,0 3,-0.34 4.12,-1.01 1.12,-0.67 2.01,-1.61 2.69,-2.78 0.67,-1.19 1.17,-2.52 1.5,-4.01 0.32,-1.49 0.49,-3.01 0.49,-4.59l0 -25.42 13.61 0 0 25.43c0,3.44 -0.45,6.64 -1.36,9.62 -0.91,2.97 -2.27,5.57 -4.08,7.8 -1.81,2.23 -4.13,3.95 -6.94,5.19 -2.81,1.23 -6.15,1.85 -10.01,1.85zm52.03 0c-3.21,0 -6.27,-0.57 -9.17,-1.71 -2.91,-1.14 -5.48,-2.81 -7.71,-5.02 -2.23,-2.21 -3.99,-4.88 -5.27,-8.02 -1.28,-3.14 -1.92,-6.73 -1.92,-10.78 0,-3.49 0.65,-6.72 1.95,-9.7 1.3,-2.98 3.1,-5.59 5.41,-7.85 2.3,-2.26 4.99,-4.01 8.06,-5.27 3.07,-1.26 6.4,-1.88 9.98,-1.88 4.47,0 8.51,0.96 12.14,2.9 3.63,1.93 6.33,4.57 8.09,7.92l-10.12 7.74c-0.98,-1.95 -2.44,-3.52 -4.4,-4.71 -1.95,-1.19 -4.02,-1.78 -6.21,-1.78 -1.63,0 -3.12,0.33 -4.47,0.98 -1.35,0.65 -2.52,1.56 -3.52,2.72 -1,1.16 -1.77,2.55 -2.3,4.15 -0.53,1.6 -0.8,3.36 -0.8,5.27 0,1.95 0.28,3.72 0.84,5.3 0.56,1.58 1.34,2.94 2.34,4.08 1,1.14 2.2,2.02 3.59,2.65 1.4,0.63 2.95,0.94 4.67,0.94 2.19,0 4.28,-0.55 6.28,-1.64 2,-1.09 3.81,-2.64 5.44,-4.64l0 13.26c-3.72,3.4 -8.02,5.09 -12.91,5.09zm12.21 -16.95l-9.14 0 0 -9.77 20.37 0 0 26.37 -11.23 0 0 -16.61zm48.33 -16.68c0,0 -0.4,-0.23 -1.19,-0.7 -0.79,-0.47 -1.84,-0.99 -3.14,-1.57 -1.3,-0.58 -2.72,-1.11 -4.26,-1.57 -1.53,-0.47 -3.05,-0.7 -4.54,-0.7 -1.16,0 -2.12,0.19 -2.86,0.56 -0.74,0.36 -1.12,0.99 -1.12,1.86 0,0.83 0.37,1.5 1.12,2.01 0.74,0.5 1.8,0.96 3.17,1.37 1.37,0.42 3.01,0.93 4.92,1.52 3.07,0.93 5.72,1.99 7.95,3.19 2.23,1.2 3.95,2.73 5.16,4.59 1.21,1.87 1.81,4.35 1.81,7.43 0,2.95 -0.53,5.43 -1.6,7.43 -1.07,2.01 -2.51,3.62 -4.33,4.81 -1.81,1.2 -3.84,2.06 -6.07,2.59 -2.23,0.52 -4.51,0.79 -6.84,0.79 -2.37,0 -4.85,-0.24 -7.43,-0.73 -2.58,-0.49 -5.08,-1.16 -7.5,-2.02 -2.42,-0.86 -4.63,-1.87 -6.63,-3.04l5.86 -11.93c0,0 0.47,0.28 1.4,0.84 0.93,0.56 2.16,1.19 3.7,1.88 1.53,0.7 3.24,1.33 5.13,1.88 1.88,0.56 3.78,0.84 5.69,0.84 1.49,0 2.52,-0.19 3.1,-0.57 0.58,-0.37 0.87,-0.87 0.87,-1.49 0,-0.98 -0.51,-1.72 -1.53,-2.26 -1.02,-0.54 -2.36,-1.05 -4.01,-1.52 -1.65,-0.49 -3.48,-1.06 -5.48,-1.7 -2.88,-0.98 -5.26,-2.07 -7.12,-3.29 -1.86,-1.22 -3.23,-2.69 -4.12,-4.37 -0.88,-1.69 -1.33,-3.72 -1.33,-6.13 0,-3.65 0.86,-6.7 2.58,-9.14 1.72,-2.45 3.99,-4.31 6.8,-5.58 2.81,-1.27 5.85,-1.91 9.1,-1.91 2.42,0 4.76,0.29 7.01,0.87 2.26,0.58 4.37,1.29 6.35,2.13 1.98,0.84 3.71,1.63 5.2,2.37l-5.86 11.23zm26.42 8.02c0,-3.02 0.57,-5.99 1.71,-8.9 1.14,-2.91 2.8,-5.55 4.99,-7.92 2.19,-2.37 4.85,-4.27 7.99,-5.69 3.14,-1.42 6.69,-2.13 10.64,-2.13 4.74,0 8.88,0.99 12.42,2.97 3.54,1.98 6.16,4.59 7.88,7.85l-10.4 7.4c-0.6,-1.63 -1.48,-2.88 -2.62,-3.77 -1.14,-0.88 -2.37,-1.5 -3.7,-1.85 -1.33,-0.35 -2.62,-0.52 -3.87,-0.52 -1.95,0 -3.64,0.38 -5.06,1.15 -1.42,0.77 -2.58,1.78 -3.49,3.04 -0.91,1.26 -1.58,2.65 -2.02,4.19 -0.44,1.53 -0.66,3.07 -0.66,4.6 0,1.72 0.26,3.37 0.77,4.95 0.51,1.58 1.26,2.99 2.23,4.22 0.98,1.23 2.18,2.2 3.59,2.9 1.42,0.7 3.01,1.05 4.78,1.05 1.26,0 2.53,-0.2 3.84,-0.59 1.3,-0.4 2.49,-1.04 3.56,-1.92 1.07,-0.88 1.88,-2.07 2.44,-3.56l11.09 6.63c-0.98,2.42 -2.6,4.49 -4.88,6.21 -2.28,1.72 -4.86,3.04 -7.74,3.94 -2.88,0.91 -5.74,1.36 -8.58,1.36 -3.68,0 -7.04,-0.73 -10.08,-2.2 -3.05,-1.46 -5.68,-3.42 -7.88,-5.86 -2.21,-2.44 -3.92,-5.19 -5.13,-8.23 -1.21,-3.05 -1.81,-6.15 -1.81,-9.31zm72.96 25.61c-3.95,0 -7.35,-0.65 -10.19,-1.95 -2.84,-1.3 -5.15,-3.08 -6.94,-5.36 -1.79,-2.28 -3.11,-4.9 -3.94,-7.84 -0.84,-2.95 -1.26,-6.05 -1.26,-9.3l0 -25.43 13.61 0 0 25.42c0,1.63 0.16,3.17 0.49,4.66 0.33,1.49 0.84,2.81 1.53,3.98 0.7,1.15 1.59,2.07 2.69,2.74 1.09,0.67 2.43,1.01 4.01,1.01 1.63,0 3,-0.34 4.12,-1.01 1.12,-0.67 2.01,-1.61 2.69,-2.78 0.67,-1.19 1.17,-2.52 1.5,-4.01 0.32,-1.49 0.49,-3.01 0.49,-4.59l0 -25.42 13.61 0 0 25.43c0,3.44 -0.45,6.64 -1.36,9.62 -0.91,2.97 -2.27,5.57 -4.08,7.8 -1.81,2.23 -4.13,3.95 -6.94,5.19 -2.81,1.23 -6.15,1.85 -10.01,1.85zm60.61 -33.63c0,0 -0.4,-0.23 -1.19,-0.7 -0.79,-0.47 -1.84,-0.99 -3.14,-1.57 -1.3,-0.58 -2.72,-1.11 -4.26,-1.57 -1.53,-0.47 -3.05,-0.7 -4.54,-0.7 -1.16,0 -2.12,0.19 -2.86,0.56 -0.74,0.36 -1.12,0.99 -1.12,1.86 0,0.83 0.37,1.5 1.12,2.01 0.74,0.5 1.8,0.96 3.17,1.37 1.37,0.42 3.01,0.93 4.92,1.52 3.07,0.93 5.72,1.99 7.95,3.19 2.23,1.2 3.95,2.73 5.16,4.59 1.21,1.87 1.81,4.35 1.81,7.43 0,2.95 -0.53,5.43 -1.6,7.43 -1.07,2.01 -2.51,3.62 -4.33,4.81 -1.81,1.2 -3.84,2.06 -6.07,2.59 -2.23,0.52 -4.51,0.79 -6.84,0.79 -2.37,0 -4.85,-0.24 -7.43,-0.73 -2.58,-0.49 -5.08,-1.16 -7.5,-2.02 -2.42,-0.86 -4.63,-1.87 -6.63,-3.04l5.86 -11.93c0,0 0.47,0.28 1.4,0.84 0.93,0.56 2.16,1.19 3.7,1.88 1.53,0.7 3.24,1.33 5.13,1.88 1.88,0.56 3.78,0.84 5.69,0.84 1.49,0 2.52,-0.19 3.1,-0.57 0.58,-0.37 0.87,-0.87 0.87,-1.49 0,-0.98 -0.51,-1.72 -1.53,-2.26 -1.02,-0.54 -2.36,-1.05 -4.01,-1.52 -1.65,-0.49 -3.48,-1.06 -5.48,-1.7 -2.88,-0.98 -5.26,-2.07 -7.12,-3.29 -1.86,-1.22 -3.23,-2.69 -4.12,-4.37 -0.88,-1.69 -1.33,-3.72 -1.33,-6.13 0,-3.65 0.86,-6.7 2.58,-9.14 1.72,-2.45 3.99,-4.31 6.8,-5.58 2.81,-1.27 5.85,-1.91 9.1,-1.91 2.42,0 4.76,0.29 7.01,0.87 2.26,0.58 4.37,1.29 6.35,2.13 1.98,0.84 3.71,1.63 5.2,2.37l-5.86 11.23zm52.03 -4.4l-14.23 0 0 37.68 -13.61 0 0 -37.68 -14.3 0 0 -11.86 42.14 0 0 11.86zm26.91 38.03c-3.77,0 -7.19,-0.71 -10.26,-2.13 -3.07,-1.42 -5.71,-3.33 -7.92,-5.72 -2.21,-2.4 -3.91,-5.09 -5.09,-8.09 -1.19,-3 -1.78,-6.11 -1.78,-9.32 0,-3.3 0.63,-6.44 1.88,-9.42 1.26,-2.98 3.01,-5.64 5.27,-7.99 2.26,-2.35 4.93,-4.2 8.02,-5.55 3.09,-1.35 6.48,-2.02 10.15,-2.02 3.77,0 7.19,0.71 10.26,2.13 3.07,1.42 5.7,3.34 7.88,5.76 2.19,2.42 3.87,5.13 5.06,8.13 1.19,3 1.78,6.08 1.78,9.25 0,3.26 -0.62,6.37 -1.85,9.35 -1.23,2.98 -2.98,5.64 -5.23,7.99 -2.26,2.35 -4.92,4.21 -7.99,5.58 -3.07,1.37 -6.47,2.06 -10.19,2.06zm-11.23 -25.12c0,1.68 0.23,3.29 0.7,4.85 0.47,1.56 1.16,2.95 2.09,4.19 0.93,1.23 2.1,2.21 3.52,2.93 1.42,0.72 3.11,1.08 5.06,1.08 1.95,0 3.65,-0.37 5.09,-1.12 1.44,-0.74 2.62,-1.76 3.52,-3.04 0.91,-1.28 1.58,-2.7 2.02,-4.26 0.44,-1.56 0.66,-3.15 0.66,-4.78 0,-1.67 -0.23,-3.28 -0.7,-4.81 -0.47,-1.54 -1.16,-2.92 -2.09,-4.15 -0.93,-1.23 -2.12,-2.2 -3.56,-2.9 -1.44,-0.7 -3.12,-1.05 -5.02,-1.05 -1.95,0 -3.64,0.37 -5.06,1.12 -1.42,0.74 -2.59,1.73 -3.52,2.97 -0.93,1.23 -1.62,2.63 -2.06,4.19 -0.44,1.56 -0.66,3.15 -0.66,4.78zm80.15 24.77l0 -26.09 -8.3 18.35 -7.26 0 -8.3 -18.35 0 26.09 -13.61 0 0 -49.54 14.86 0 10.68 23.3 10.74 -23.3 14.79 0 0 49.54 -13.61 0z"/>
  <path class="fil1" d="M140.13 144.04c-0.5,0 -0.85,-0.18 -1.06,-0.53 -0.2,-0.35 -0.2,-0.78 0,-1.28 0.2,-0.8 0.5,-1.68 0.9,-2.64 0.4,-0.96 0.8,-1.83 1.21,-2.64l4.52 -12.22c3.22,-8.85 6.38,-17.65 9.5,-26.39 3.12,-8.75 6.03,-17.65 8.75,-26.69 0.3,-1.31 0.6,-2.56 0.9,-3.77 0.3,-1.21 0.7,-2.41 1.21,-3.62 0.2,-0.5 0.53,-0.93 0.98,-1.28 0.45,-0.35 0.93,-0.53 1.43,-0.53 0.7,0 1.06,0.4 1.06,1.21 0,0.6 -0.38,2.21 -1.13,4.83 -0.75,2.61 -1.61,5.43 -2.56,8.45 -0.96,3.02 -1.91,5.88 -2.87,8.6 -0.96,2.71 -1.58,4.47 -1.89,5.28 0.8,-1.51 1.91,-3.64 3.32,-6.41 1.41,-2.77 3.02,-5.5 4.83,-8.22 1.81,-2.71 3.77,-5.08 5.88,-7.09 2.11,-2.01 4.17,-3.02 6.18,-3.02 1.71,0 2.89,0.55 3.54,1.66 0.65,1.11 0.98,2.46 0.98,4.07 0,1.31 -0.15,2.66 -0.45,4.07 -0.3,1.41 -0.7,2.66 -1.21,3.77 -0.4,1.01 -1.01,2.26 -1.81,3.77 -0.8,1.51 -1.76,3.12 -2.87,4.83 2.82,-1.21 5.55,-2.31 8.22,-3.32 2.67,-1 4.8,-1.86 6.41,-2.56 2.01,-0.9 4.1,-1.86 6.26,-2.87 2.16,-1 4.15,-2.16 5.96,-3.47 0.5,-0.4 1.06,-0.83 1.66,-1.28 0.6,-0.45 1.16,-0.68 1.66,-0.68 0.5,0 0.85,0.18 1.06,0.53 0.2,0.35 0.2,0.78 0,1.28 -0.4,1.11 -1.81,2.34 -4.22,3.69 -2.41,1.36 -5.3,2.79 -8.67,4.3 -3.37,1.51 -6.96,3.04 -10.78,4.6 -3.82,1.56 -7.34,3.04 -10.56,4.45 -1.81,2.31 -3.72,4.35 -5.73,6.11 -2.01,1.76 -3.92,2.64 -5.73,2.64 -1.01,0 -1.83,-0.25 -2.49,-0.75 -0.65,-0.5 -0.73,-1.31 -0.23,-2.41 0.2,-0.7 0.55,-1.28 1.06,-1.73 0.5,-0.45 1.01,-0.88 1.51,-1.28 1.01,-0.7 2.36,-1.51 4.07,-2.41 1.71,-0.9 3.62,-1.81 5.73,-2.71 0.8,-1.11 1.63,-2.39 2.49,-3.85 0.85,-1.46 1.66,-2.97 2.41,-4.52 0.75,-1.56 1.38,-3.12 1.88,-4.67 0.5,-1.56 0.75,-3.09 0.75,-4.6 0,-0.9 -0.15,-1.66 -0.45,-2.26 -0.3,-0.6 -0.85,-0.9 -1.66,-0.9 -1.41,0 -3.09,1.26 -5.05,3.77 -1.96,2.51 -4.05,5.73 -6.26,9.65 -2.21,3.92 -4.42,8.24 -6.64,12.97 -2.21,4.73 -4.27,9.28 -6.18,13.65 -1.91,4.37 -3.57,8.3 -4.98,11.76 -1.41,3.47 -2.41,5.91 -3.02,7.31l-5.43 13.57c-0.2,0.5 -0.53,0.93 -0.98,1.28 -0.45,0.35 -0.93,0.53 -1.43,0.53zm30.01 -48.26c-0.9,0.5 -1.71,0.93 -2.41,1.28 -0.7,0.35 -1.31,0.73 -1.81,1.13 0.8,0 1.58,-0.3 2.34,-0.9 0.75,-0.6 1.38,-1.11 1.88,-1.51zm43.89 -24.43c-0.2,0.3 -0.43,0.7 -0.68,1.21 -0.25,0.5 -0.58,1.01 -0.98,1.51 1.51,0.5 3.07,0.98 4.67,1.43 1.61,0.45 2.61,1.08 3.02,1.89 0.2,0.3 0.3,0.75 0.3,1.36 0,0.5 -0.05,0.96 -0.15,1.36 -0.1,0.4 -0.25,0.85 -0.45,1.36 -0.7,1.61 -1.53,3.17 -2.49,4.68 -0.96,1.51 -1.73,3.07 -2.34,4.67 -0.6,1.31 -0.91,2.61 -0.91,3.92 0,2.51 1.41,3.77 4.22,3.77 1.51,0 3.29,-0.7 5.35,-2.11 2.06,-1.41 4.15,-3.04 6.26,-4.9 2.11,-1.86 4.1,-3.8 5.96,-5.81 1.86,-2.01 3.24,-3.62 4.15,-4.83 0.2,-0.3 0.48,-0.7 0.83,-1.21 0.35,-0.5 0.73,-1.06 1.13,-1.66 0.4,-0.6 0.8,-1.16 1.21,-1.66 0.4,-0.5 0.65,-0.8 0.75,-0.9 0.6,-0.6 1.21,-0.9 1.81,-0.9 0.5,0 0.88,0.18 1.13,0.53 0.25,0.35 0.28,0.78 0.08,1.28 -0.3,0.7 -0.96,1.68 -1.96,2.94 -1.01,1.26 -1.76,2.24 -2.26,2.94 -1.31,1.61 -3.02,3.54 -5.13,5.81 -2.11,2.26 -4.37,4.42 -6.79,6.49 -2.41,2.06 -4.83,3.82 -7.24,5.28 -2.41,1.46 -4.62,2.19 -6.64,2.19 -2.31,0 -4,-0.55 -5.05,-1.66 -1.06,-1.11 -1.58,-2.51 -1.58,-4.22 0,-1.61 0.4,-3.37 1.21,-5.28 0.6,-1.61 1.41,-3.19 2.41,-4.75 1.01,-1.56 1.81,-3.14 2.41,-4.75 0.2,-0.6 0.3,-0.96 0.3,-1.06 -0.2,-0.8 -1.16,-1.38 -2.87,-1.73 -1.71,-0.35 -3.42,-0.83 -5.13,-1.43 -0.5,0 -0.85,-0.2 -1.06,-0.6 -0.8,-0.4 -1.46,-0.88 -1.96,-1.43 -0.5,-0.55 -0.75,-1.23 -0.75,-2.04 0,-1.61 0.75,-3.17 2.26,-4.67 1.51,-1.51 3.02,-2.26 4.52,-2.26 1.01,0 1.73,0.3 2.19,0.9 0.45,0.6 0.68,1.31 0.68,2.11 0,0.7 -0.15,1.46 -0.45,2.26zm-4.37 1.51c0.4,-0.6 0.7,-1.11 0.9,-1.51 0.1,-0.2 0.18,-0.55 0.23,-1.06 0.05,-0.5 -0.08,-0.75 -0.38,-0.75 -0.4,0 -0.75,0.18 -1.06,0.53 -0.3,0.35 -0.5,0.68 -0.6,0.98 -0.3,0.7 0,1.31 0.91,1.81zm42.98 -14.63c0.3,-0.7 0.8,-1.31 1.51,-1.81 0.7,-0.5 1.41,-0.75 2.11,-0.75 0.7,0 1.21,0.25 1.51,0.75 0.3,0.5 0.3,1.11 0,1.81 -0.2,0.7 -0.65,1.31 -1.36,1.81 -0.7,0.5 -1.41,0.75 -2.11,0.75 -0.7,0 -1.21,-0.25 -1.51,-0.75 -0.3,-0.5 -0.35,-1.11 -0.15,-1.81zm-10.56 26.69c0,-0.8 0.2,-2.19 0.6,-4.15 0.4,-1.96 0.96,-3.95 1.66,-5.96 0.7,-2.01 1.53,-3.77 2.49,-5.28 0.96,-1.51 1.94,-2.26 2.94,-2.26 0.5,0 0.85,0.18 1.06,0.53 0.2,0.35 0.2,0.78 0,1.28 -0.5,1.11 -1.03,2.16 -1.58,3.17 -0.55,1.01 -1.08,2.01 -1.58,3.02 -0.5,1.11 -0.93,2.44 -1.28,4 -0.35,1.56 -0.53,3.04 -0.53,4.45 0,1.61 0.3,2.94 0.91,4 0.6,1.06 1.71,1.58 3.32,1.58 3.02,0 6.18,-1.08 9.5,-3.24 3.32,-2.16 6.18,-4.45 8.6,-6.86 0.6,-0.6 1.21,-1.28 1.81,-2.04 0.6,-0.75 1.21,-1.38 1.81,-1.89 0.7,-0.5 1.26,-0.75 1.66,-0.75 0.5,0 0.88,0.18 1.13,0.53 0.25,0.35 0.28,0.78 0.08,1.28 -0.2,0.5 -0.73,1.16 -1.58,1.96 -0.85,0.8 -1.48,1.46 -1.89,1.96 -1.51,1.51 -3.17,3.02 -4.98,4.52 -1.81,1.51 -3.67,2.87 -5.58,4.07 -1.91,1.21 -3.87,2.16 -5.88,2.87 -2.01,0.7 -3.97,1.06 -5.88,1.06 -2.61,0 -4.4,-0.75 -5.35,-2.26 -0.96,-1.51 -1.43,-3.37 -1.43,-5.58zm26.54 6.18c-0.6,0 -1.01,-0.4 -1.21,-1.21 0,-0.5 0.43,-2.14 1.28,-4.9 0.85,-2.76 1.91,-5.73 3.17,-8.9 1.26,-3.17 2.59,-6.03 4,-8.6 1.41,-2.56 2.61,-3.85 3.62,-3.85 1.21,0 1.56,0.5 1.06,1.51 -0.2,0.5 -0.43,0.96 -0.68,1.36 -0.25,0.4 -0.48,0.8 -0.68,1.21 -0.6,1.01 -1.11,1.99 -1.51,2.94 -0.4,0.96 -0.8,1.94 -1.21,2.94 -0.4,1.01 -0.78,2.01 -1.13,3.02 -0.35,1.01 -0.73,2.01 -1.13,3.02 0.6,-0.9 1.41,-2.06 2.41,-3.47 1,-1.41 2.11,-2.74 3.32,-4 1.21,-1.26 2.46,-2.36 3.77,-3.32 1.31,-0.96 2.56,-1.43 3.77,-1.43 1.41,0 2.34,0.8 2.79,2.41 0.45,1.61 0.91,3.34 1.36,5.2 0.45,1.86 1.06,3.59 1.81,5.2 0.75,1.61 2.09,2.41 4,2.41 1.81,0 3.59,-0.43 5.35,-1.28 1.76,-0.85 3.39,-1.78 4.9,-2.79 1.51,-1.01 2.82,-1.94 3.92,-2.79 1.11,-0.85 1.86,-1.28 2.26,-1.28 0.5,0 0.88,0.18 1.13,0.53 0.25,0.35 0.28,0.78 0.08,1.28 -0.4,0.91 -1.38,1.94 -2.94,3.09 -1.56,1.16 -3.32,2.21 -5.28,3.17 -1.96,0.96 -3.95,1.79 -5.96,2.49 -2.01,0.7 -3.62,1.06 -4.83,1.06 -2.31,0 -4.02,-0.73 -5.13,-2.19 -1.11,-1.46 -1.91,-3.09 -2.41,-4.9 -0.5,-1.81 -0.88,-3.52 -1.13,-5.13 -0.25,-1.61 -0.68,-2.56 -1.28,-2.87 -1.11,0.2 -2.39,1.18 -3.85,2.94 -1.46,1.76 -2.94,3.72 -4.45,5.88 -1.51,2.16 -2.92,4.25 -4.22,6.26 -1.31,2.01 -2.36,3.37 -3.17,4.07 -0.6,0.6 -1.21,0.9 -1.81,0.9zm30.31 24.43c4.02,-13.07 8.45,-25.87 13.27,-38.38 4.83,-12.52 10,-25.01 15.53,-37.48 -1.71,0.1 -3.47,0.18 -5.28,0.23 -1.81,0.05 -3.57,0.18 -5.28,0.38 -2.61,0.2 -5.18,0.4 -7.69,0.6 -2.51,0.2 -5.08,0.3 -7.69,0.3 -0.5,0 -0.88,-0.13 -1.13,-0.38 -0.25,-0.25 -0.28,-0.63 -0.08,-1.13 0.3,-0.8 0.8,-1.36 1.51,-1.66 0.3,-0.1 1.76,-0.25 4.37,-0.45 2.61,-0.2 5.5,-0.4 8.67,-0.6 3.17,-0.2 6.13,-0.38 8.9,-0.53 2.77,-0.15 4.5,-0.23 5.2,-0.23 0.5,-1.21 1.03,-2.39 1.58,-3.54 0.55,-1.16 1.08,-2.34 1.58,-3.54 0.2,-0.4 0.58,-1.16 1.13,-2.26 0.55,-1.11 1.11,-2.26 1.66,-3.47 0.55,-1.21 1.08,-2.29 1.58,-3.24 0.5,-0.96 0.85,-1.53 1.06,-1.73 0.6,-0.6 1.21,-0.9 1.81,-0.9 1.11,0 1.51,0.5 1.21,1.51 -0.4,0.8 -0.8,1.63 -1.21,2.49 -0.4,0.85 -0.85,1.68 -1.36,2.49 -0.8,1.71 -1.58,3.39 -2.34,5.05 -0.75,1.66 -1.53,3.34 -2.34,5.05 -0.2,0.3 -0.35,0.63 -0.45,0.98 -0.1,0.35 -0.25,0.68 -0.45,0.98 3.82,-0.2 7.69,-0.35 11.61,-0.45 3.92,-0.1 7.79,-0.15 11.61,-0.15 0.8,0 1.83,0.03 3.09,0.08 1.26,0.05 2.49,0.18 3.69,0.38 1.21,0.2 2.21,0.48 3.02,0.83 0.8,0.35 1.06,0.88 0.75,1.58 -0.2,0.5 -0.5,0.93 -0.91,1.28 -0.4,0.35 -0.85,0.53 -1.36,0.53 -0.7,0 -1.33,-0.1 -1.89,-0.3 -0.55,-0.2 -1.18,-0.35 -1.89,-0.45 -1.41,-0.2 -2.94,-0.33 -4.6,-0.38 -1.66,-0.05 -3.29,-0.08 -4.9,-0.08 -3.22,0 -6.49,0.05 -9.8,0.15 -3.32,0.1 -6.64,0.25 -9.95,0.45 -5.73,12.77 -11.08,25.61 -16.06,38.53 -4.98,12.92 -9.43,26.12 -13.35,39.59 0.7,0.3 1.06,0.65 1.06,1.06 0,0.1 -0.15,0.58 -0.45,1.43 -0.3,0.85 -0.63,1.76 -0.98,2.71 -0.35,0.96 -0.7,1.89 -1.06,2.79 -0.35,0.91 -0.58,1.51 -0.68,1.81 -0.3,0.7 -0.65,1.31 -1.06,1.81 -0.4,0.5 -1.01,0.75 -1.81,0.75 -0.6,0 -1.01,-0.25 -1.21,-0.75 -0.1,-0.4 -0.02,-1.23 0.23,-2.49 0.25,-1.26 0.58,-2.61 0.98,-4.07 0.4,-1.46 0.8,-2.87 1.21,-4.22 0.4,-1.36 0.7,-2.34 0.9,-2.94zm46.15 -50.98c1.11,0 1.96,0.48 2.56,1.43 0.6,0.96 0.9,1.99 0.9,3.09 0,0.8 -0.15,1.51 -0.45,2.11 -0.2,0.5 -0.53,0.9 -0.98,1.21 -0.45,0.3 -0.93,0.45 -1.43,0.45 -0.8,0 -1.21,-0.35 -1.21,-1.06 0,-0.7 0,-1.46 0,-2.26 0,-0.9 -0.3,-1.36 -0.91,-1.36 -1.21,0 -2.44,0.7 -3.69,2.11 -1.26,1.41 -2.09,2.61 -2.49,3.62 -0.8,2.11 -1.21,4.73 -1.21,7.84 0,3.12 0.1,6.28 0.3,9.5 0.2,-0.1 1.11,-0.6 2.71,-1.51 1.61,-0.9 3.59,-1.96 5.96,-3.17 2.36,-1.21 4.9,-2.51 7.62,-3.92 2.71,-1.41 5.25,-2.69 7.62,-3.85 2.36,-1.16 4.37,-2.14 6.03,-2.94 1.66,-0.8 2.59,-1.21 2.79,-1.21 1.11,0 1.51,0.5 1.21,1.51 -0.3,0.6 -0.65,1.06 -1.06,1.36 -1.61,1.21 -3.37,2.21 -5.28,3.02 -1.91,0.8 -3.72,1.61 -5.43,2.41 -0.8,0.4 -2.01,1 -3.62,1.81 -1.61,0.8 -3.42,1.73 -5.43,2.79 -2.01,1.06 -4.15,2.19 -6.41,3.39 -2.26,1.21 -4.45,2.41 -6.56,3.62 0.1,2.21 0.05,4.32 -0.15,6.33 -0.2,2.01 -0.65,3.87 -1.36,5.58 -0.7,1.61 -1.96,2.97 -3.77,4.07 -1.81,1.11 -3.47,1.66 -4.98,1.66 -2.01,0 -3.44,-0.45 -4.3,-1.36 -0.85,-0.9 -1.28,-2.11 -1.28,-3.62 0,-1.21 0.35,-2.77 1.06,-4.68 0.5,-1.21 1.76,-2.61 3.77,-4.22 2.01,-1.61 4.42,-3.27 7.24,-4.98 -0.1,-1.61 -0.2,-3.24 -0.3,-4.9 -0.1,-1.66 -0.15,-3.29 -0.15,-4.9 0,-3.82 0.5,-7.04 1.51,-9.65 0.4,-1 1.01,-2.06 1.81,-3.17 0.8,-1.11 1.71,-2.11 2.71,-3.02 1,-0.9 2.09,-1.66 3.24,-2.26 1.16,-0.6 2.29,-0.91 3.39,-0.91zm-12.22 32.12c-2.01,1.21 -3.72,2.34 -5.13,3.39 -1.41,1.06 -2.21,1.94 -2.41,2.64 -0.5,1.31 -0.75,2.36 -0.75,3.17 0,1.91 1.06,2.87 3.17,2.87 0.6,0 1.36,-0.23 2.26,-0.68 0.9,-0.45 1.46,-1.03 1.66,-1.73 0.5,-1.31 0.83,-2.79 0.98,-4.45 0.15,-1.66 0.23,-3.39 0.23,-5.2z"/>
 </g>
</svg>
