<?xml version="1.0" encoding="UTF-8"?>
<!DOCTYPE svg PUBLIC "-//W3C//DTD SVG 1.1//EN" "http://www.w3.org/Graphics/SVG/1.1/DTD/svg11.dtd">
<!-- Creator: CorelDRAW -->
<svg xmlns="http://www.w3.org/2000/svg" xml:space="preserve" width="60.0889mm" height="16.0926mm" version="1.1" style="shape-rendering:geometricPrecision; text-rendering:geometricPrecision; image-rendering:optimizeQuality; fill-rule:evenodd; clip-rule:evenodd"
viewBox="0 0 895.13 239.73"
 xmlns:xlink="http://www.w3.org/1999/xlink"
 xmlns:xodm="http://www.corel.com/coreldraw/odm/2003">
 <defs>
  <style type="text/css">
   <![CDATA[
    .fil0 {fill:#0D0D0D;fill-rule:nonzero}
    .fil1 {fill:#CC9933;fill-rule:nonzero}
   ]]>
  </style>
 </defs>
 <g id="Layer_x0020_1">
  <metadata id="CorelCorpID_0Corel-Layer"/>
  <path class="fil0" d="M-0 98.57l0 -97.89 44.95 0c4.78,0 9.19,0.97 13.24,2.89 4.04,1.93 7.54,4.53 10.48,7.79 2.94,3.26 5.22,6.92 6.82,10.96 1.61,4.04 2.41,8.13 2.41,12.27 0,3.77 -0.55,7.4 -1.66,10.89 -1.1,3.49 -2.71,6.69 -4.83,9.58 -2.11,2.9 -4.64,5.4 -7.58,7.51l20.68 35.98 -29.5 0 -17.23 -30.05 -10.89 0 0 30.05 -26.88 0zm26.88 -53.49l16.96 0c1.1,0 2.16,-0.41 3.17,-1.24 1.01,-0.83 1.86,-2.02 2.55,-3.58 0.69,-1.56 1.04,-3.45 1.04,-5.65 0,-2.3 -0.39,-4.21 -1.17,-5.72 -0.78,-1.52 -1.75,-2.69 -2.9,-3.52 -1.15,-0.83 -2.27,-1.24 -3.38,-1.24l-16.27 0 0 20.96zm109.84 54.18c-7.45,0 -14.2,-1.4 -20.27,-4.21 -6.07,-2.8 -11.28,-6.57 -15.65,-11.31 -4.37,-4.73 -7.72,-10.06 -10.06,-15.99 -2.34,-5.93 -3.52,-12.06 -3.52,-18.41 0,-6.52 1.24,-12.73 3.72,-18.61 2.48,-5.88 5.95,-11.14 10.41,-15.78 4.46,-4.64 9.74,-8.3 15.85,-10.96 6.11,-2.67 12.8,-4 20.06,-4 7.45,0 14.2,1.4 20.27,4.21 6.07,2.8 11.26,6.59 15.58,11.37 4.32,4.78 7.65,10.13 10,16.06 2.34,5.93 3.52,12.02 3.52,18.27 0,6.43 -1.22,12.59 -3.65,18.47 -2.44,5.88 -5.88,11.14 -10.34,15.79 -4.46,4.64 -9.72,8.32 -15.79,11.03 -6.07,2.71 -12.78,4.07 -20.13,4.07zm-22.2 -49.63c0,3.31 0.46,6.5 1.38,9.58 0.92,3.08 2.3,5.84 4.14,8.27 1.84,2.44 4.16,4.37 6.96,5.79 2.8,1.43 6.14,2.14 10,2.14 3.86,0 7.21,-0.74 10.06,-2.21 2.85,-1.47 5.17,-3.47 6.96,-6 1.79,-2.53 3.12,-5.33 4,-8.41 0.87,-3.08 1.31,-6.23 1.31,-9.44 0,-3.31 -0.46,-6.48 -1.38,-9.51 -0.92,-3.03 -2.3,-5.77 -4.14,-8.2 -1.84,-2.44 -4.18,-4.34 -7.03,-5.72 -2.85,-1.38 -6.16,-2.07 -9.93,-2.07 -3.86,0 -7.19,0.74 -9.99,2.21 -2.8,1.47 -5.12,3.42 -6.96,5.86 -1.84,2.44 -3.19,5.19 -4.07,8.27 -0.87,3.08 -1.31,6.23 -1.31,9.44zm78.96 -0.96c0,-5.98 1.13,-11.83 3.38,-17.58 2.25,-5.74 5.54,-10.96 9.86,-15.65 4.32,-4.69 9.58,-8.43 15.78,-11.24 6.2,-2.8 13.21,-4.21 21.03,-4.21 9.37,0 17.55,1.95 24.54,5.86 6.99,3.91 12.18,9.08 15.58,15.51l-20.54 14.61c-1.19,-3.22 -2.92,-5.7 -5.17,-7.44 -2.25,-1.75 -4.69,-2.96 -7.31,-3.65 -2.62,-0.69 -5.17,-1.03 -7.65,-1.03 -3.86,0 -7.19,0.76 -10,2.27 -2.8,1.52 -5.1,3.52 -6.89,6 -1.79,2.48 -3.13,5.24 -4,8.27 -0.87,3.03 -1.31,6.07 -1.31,9.1 0,3.4 0.51,6.66 1.52,9.79 1.01,3.13 2.48,5.91 4.41,8.34 1.93,2.44 4.3,4.34 7.1,5.72 2.8,1.38 5.95,2.07 9.44,2.07 2.48,0 5.01,-0.39 7.58,-1.17 2.57,-0.78 4.92,-2.05 7.03,-3.79 2.11,-1.75 3.72,-4.09 4.83,-7.03l21.92 13.1c-1.93,4.78 -5.15,8.87 -9.65,12.27 -4.5,3.4 -9.61,6 -15.3,7.79 -5.7,1.79 -11.35,2.69 -16.96,2.69 -7.26,0 -13.9,-1.45 -19.92,-4.34 -6.02,-2.89 -11.21,-6.75 -15.58,-11.58 -4.37,-4.83 -7.74,-10.25 -10.13,-16.27 -2.39,-6.02 -3.58,-12.16 -3.58,-18.4zm101.43 49.91l0 -97.89 26.88 0 0 37.22 29.78 -37.22 30.33 0 -35.57 43.84 38.05 54.04 -30.88 0 -24.26 -35.98 -7.45 7.72 0 28.26 -26.88 0zm125.28 0l0 -97.89 42.19 0c4.78,0 9.19,0.97 13.24,2.89 4.04,1.93 7.54,4.53 10.48,7.79 2.94,3.26 5.22,6.92 6.83,10.96 1.61,4.04 2.41,8.13 2.41,12.27 0,5.79 -1.36,11.26 -4.07,16.41 -2.71,5.15 -6.48,9.35 -11.31,12.61 -4.83,3.26 -10.45,4.9 -16.89,4.9l-15.99 0 0 30.05 -26.88 0zm26.88 -53.49l14.2 0c1.1,0 2.16,-0.32 3.17,-0.96 1.01,-0.64 1.86,-1.75 2.55,-3.31 0.69,-1.56 1.04,-3.63 1.04,-6.2 0,-2.76 -0.39,-4.9 -1.17,-6.41 -0.78,-1.52 -1.75,-2.57 -2.9,-3.17 -1.15,-0.6 -2.27,-0.9 -3.38,-0.9l-13.51 0 0 20.96zm146.38 -44.39l0 97.89 -26.88 0 0 -38.33 -32.81 0 0 38.33 -26.88 0 0 -97.89 26.88 0 0 36.12 32.81 0 0 -36.12 26.88 0zm61.72 98.57c-7.45,0 -14.2,-1.4 -20.27,-4.21 -6.07,-2.8 -11.28,-6.57 -15.65,-11.31 -4.37,-4.73 -7.72,-10.06 -10.06,-15.99 -2.34,-5.93 -3.52,-12.06 -3.52,-18.41 0,-6.52 1.24,-12.73 3.72,-18.61 2.48,-5.88 5.95,-11.14 10.41,-15.78 4.46,-4.64 9.74,-8.3 15.85,-10.96 6.11,-2.67 12.8,-4 20.06,-4 7.45,0 14.2,1.4 20.27,4.21 6.07,2.8 11.26,6.59 15.58,11.37 4.32,4.78 7.65,10.13 10,16.06 2.34,5.93 3.52,12.02 3.52,18.27 0,6.43 -1.22,12.59 -3.65,18.47 -2.44,5.88 -5.88,11.14 -10.34,15.79 -4.46,4.64 -9.72,8.32 -15.79,11.03 -6.07,2.71 -12.78,4.07 -20.13,4.07zm-22.2 -49.63c0,3.31 0.46,6.5 1.38,9.58 0.92,3.08 2.3,5.84 4.14,8.27 1.84,2.44 4.16,4.37 6.96,5.79 2.8,1.43 6.14,2.14 10,2.14 3.86,0 7.21,-0.74 10.06,-2.21 2.85,-1.47 5.17,-3.47 6.96,-6 1.79,-2.53 3.12,-5.33 4,-8.41 0.87,-3.08 1.31,-6.23 1.31,-9.44 0,-3.31 -0.46,-6.48 -1.38,-9.51 -0.92,-3.03 -2.3,-5.77 -4.14,-8.2 -1.84,-2.44 -4.18,-4.34 -7.03,-5.72 -2.85,-1.38 -6.16,-2.07 -9.93,-2.07 -3.86,0 -7.19,0.74 -9.99,2.21 -2.8,1.47 -5.12,3.42 -6.96,5.86 -1.84,2.44 -3.19,5.19 -4.07,8.27 -0.87,3.08 -1.31,6.23 -1.31,9.44zm159.06 -25.5l-28.12 0 0 74.45 -26.88 0 0 -74.45 -28.26 0 0 -23.44 83.27 0 0 23.44zm53.18 75.14c-7.45,0 -14.2,-1.4 -20.27,-4.21 -6.07,-2.8 -11.28,-6.57 -15.65,-11.31 -4.37,-4.73 -7.72,-10.06 -10.06,-15.99 -2.34,-5.93 -3.52,-12.06 -3.52,-18.41 0,-6.52 1.24,-12.73 3.72,-18.61 2.48,-5.88 5.95,-11.14 10.41,-15.78 4.46,-4.64 9.74,-8.3 15.85,-10.96 6.11,-2.67 12.8,-4 20.06,-4 7.45,0 14.2,1.4 20.27,4.21 6.07,2.8 11.26,6.59 15.58,11.37 4.32,4.78 7.65,10.13 10,16.06 2.34,5.93 3.52,12.02 3.52,18.27 0,6.43 -1.22,12.59 -3.65,18.47 -2.44,5.88 -5.88,11.14 -10.34,15.79 -4.46,4.64 -9.72,8.32 -15.79,11.03 -6.07,2.71 -12.78,4.07 -20.13,4.07zm-22.2 -49.63c0,3.31 0.46,6.5 1.38,9.58 0.92,3.08 2.3,5.84 4.14,8.27 1.84,2.44 4.16,4.37 6.96,5.79 2.8,1.43 6.14,2.14 10,2.14 3.86,0 7.21,-0.74 10.06,-2.21 2.85,-1.47 5.17,-3.47 6.96,-6 1.79,-2.53 3.12,-5.33 4,-8.41 0.87,-3.08 1.31,-6.23 1.31,-9.44 0,-3.31 -0.46,-6.48 -1.38,-9.51 -0.92,-3.03 -2.3,-5.77 -4.14,-8.2 -1.84,-2.44 -4.18,-4.34 -7.03,-5.72 -2.85,-1.38 -6.16,-2.07 -9.93,-2.07 -3.86,0 -7.19,0.74 -9.99,2.21 -2.8,1.47 -5.12,3.42 -6.96,5.86 -1.84,2.44 -3.19,5.19 -4.07,8.27 -0.87,3.08 -1.31,6.23 -1.31,9.44z"/>
  <path class="fil1" d="M274.42 79.41c-0.38,0.94 -0.99,1.69 -1.83,2.25 -0.84,0.56 -1.74,0.84 -2.68,0.84 -1.32,0 -1.97,-0.75 -1.97,-2.25 0,-1.5 0.42,-3.33 1.27,-5.49 0.84,-2.16 1.27,-3.99 1.27,-5.5 0,-1.13 -0.47,-1.69 -1.41,-1.69 -0.75,0 -1.6,0.38 -2.54,1.13 -0.94,0.75 -1.6,1.41 -1.97,1.97 -3.57,3.38 -7.37,8.45 -11.41,15.22 -4.04,6.76 -7.98,14.04 -11.83,21.84 -3.85,7.79 -7.37,15.4 -10.57,22.82 -3.19,7.42 -5.82,13.57 -7.89,18.46 0.38,0.38 0.94,1.13 1.69,2.25 2.44,2.07 5.59,3.62 9.44,4.65 3.85,1.03 7.65,1.55 11.41,1.55 7.14,0 13.95,-1.41 20.43,-4.23 6.48,-2.82 12.73,-6.1 18.74,-9.86 0.56,-0.56 1.32,-0.84 2.25,-0.84 0.94,0 1.6,0.33 1.97,0.99 0.38,0.66 0.38,1.46 0,2.4 -0.38,1.13 -1.22,2.07 -2.54,2.82 -1.32,0.75 -2.44,1.41 -3.38,1.97 -6.2,3.76 -12.91,6.9 -20.15,9.44 -7.23,2.54 -13.85,3.8 -19.86,3.8 -5.07,0 -10.05,-0.75 -14.93,-2.25 0.19,1.5 0.33,3.05 0.42,4.65 0.09,1.6 0.14,3.24 0.14,4.93 0,2.26 -0.19,5.54 -0.56,9.86 -0.38,4.32 -0.94,9.02 -1.69,14.09 -0.75,5.07 -1.83,10.24 -3.24,15.5 -1.41,5.26 -3.1,10.05 -5.07,14.37 -1.97,4.32 -4.32,7.84 -7.04,10.57 -2.72,2.72 -5.87,4.08 -9.44,4.08 -2.44,0 -4.18,-1.08 -5.21,-3.24 -1.03,-2.16 -1.55,-5.12 -1.55,-8.88 0,-5.26 1.27,-13.05 3.8,-23.39 2.54,-10.33 5.92,-21.65 10.14,-33.95 4.23,-12.3 9.06,-24.94 14.51,-37.9 5.45,-12.96 11.04,-24.75 16.76,-35.36 5.73,-10.61 11.41,-19.3 17.05,-26.06 5.64,-6.76 10.71,-10.14 15.22,-10.14 2.07,0 3.47,0.61 4.23,1.83 0.75,1.22 1.13,2.68 1.13,4.37 0,2.07 -0.33,4.23 -0.99,6.48 -0.66,2.25 -1.36,4.23 -2.11,5.92zm-72.41 150.74c0.38,0.38 0.7,0.94 0.99,1.69 0.28,0.75 0.8,1.13 1.55,1.13 1.88,0 3.57,-1.32 5.07,-3.94 1.5,-2.63 2.91,-5.92 4.23,-9.86 1.32,-3.94 2.44,-8.31 3.38,-13.1 0.94,-4.79 1.74,-9.35 2.39,-13.67 0.66,-4.32 1.13,-8.22 1.41,-11.69 0.28,-3.48 0.42,-5.78 0.42,-6.9 0,-3.19 -0.14,-6.06 -0.42,-8.59 -0.28,-2.54 -0.89,-4.84 -1.83,-6.9 -1.88,5.07 -3.99,11.13 -6.34,18.17 -2.35,7.04 -4.41,14.04 -6.2,20.99 -1.78,6.95 -3.19,13.38 -4.23,19.3 -1.03,5.92 -1.18,10.38 -0.42,13.38zm94.11 -93.55c-0.38,0.56 -0.8,1.31 -1.27,2.25 -0.47,0.94 -1.08,1.88 -1.83,2.82 2.82,0.94 5.73,1.83 8.73,2.68 3.01,0.85 4.88,2.02 5.64,3.52 0.38,0.56 0.56,1.41 0.56,2.54 0,0.94 -0.1,1.78 -0.28,2.54 -0.19,0.75 -0.47,1.6 -0.84,2.54 -1.32,3.01 -2.86,5.92 -4.65,8.74 -1.78,2.82 -3.24,5.73 -4.37,8.73 -1.13,2.44 -1.69,4.88 -1.69,7.33 0,4.7 2.63,7.04 7.89,7.04 2.82,0 6.15,-1.32 10,-3.94 3.85,-2.63 7.75,-5.68 11.69,-9.16 3.94,-3.47 7.65,-7.09 11.13,-10.85 3.48,-3.76 6.06,-6.76 7.75,-9.02 0.38,-0.56 0.89,-1.32 1.55,-2.25 0.66,-0.94 1.36,-1.97 2.11,-3.1 0.75,-1.13 1.5,-2.16 2.25,-3.1 0.75,-0.94 1.22,-1.5 1.41,-1.69 1.13,-1.13 2.25,-1.69 3.38,-1.69 0.94,0 1.64,0.33 2.11,0.99 0.47,0.66 0.52,1.46 0.14,2.4 -0.56,1.31 -1.78,3.15 -3.66,5.49 -1.88,2.35 -3.29,4.18 -4.23,5.49 -2.44,3.01 -5.64,6.62 -9.58,10.85 -3.94,4.23 -8.17,8.26 -12.68,12.12 -4.51,3.85 -9.02,7.14 -13.52,9.86 -4.51,2.72 -8.64,4.09 -12.4,4.09 -4.32,0 -7.47,-1.03 -9.44,-3.1 -1.97,-2.07 -2.96,-4.7 -2.96,-7.89 0,-3 0.75,-6.29 2.25,-9.86 1.13,-3 2.63,-5.96 4.51,-8.88 1.88,-2.91 3.38,-5.87 4.51,-8.88 0.38,-1.13 0.56,-1.78 0.56,-1.97 -0.38,-1.5 -2.16,-2.58 -5.35,-3.24 -3.19,-0.66 -6.39,-1.55 -9.58,-2.68 -0.94,0 -1.6,-0.38 -1.97,-1.13 -1.5,-0.75 -2.72,-1.64 -3.66,-2.68 -0.94,-1.03 -1.41,-2.3 -1.41,-3.8 0,-3 1.41,-5.92 4.23,-8.73 2.82,-2.82 5.64,-4.23 8.45,-4.23 1.88,0 3.24,0.56 4.09,1.69 0.84,1.13 1.27,2.44 1.27,3.94 0,1.31 -0.28,2.72 -0.85,4.23zm-8.17 2.82c0.75,-1.13 1.32,-2.07 1.69,-2.82 0.19,-0.38 0.33,-1.03 0.42,-1.97 0.09,-0.94 -0.14,-1.41 -0.7,-1.41 -0.75,0 -1.41,0.33 -1.97,0.99 -0.56,0.66 -0.94,1.27 -1.13,1.83 -0.56,1.32 0,2.44 1.69,3.38zm82.27 -7.33c2.07,0 4.23,0.56 6.48,1.69 2.82,-2.63 5.49,-4.79 8.03,-6.48 2.54,-1.69 4.65,-2.54 6.34,-2.54 2.82,0 4.23,2.63 4.23,7.89 0,2.82 -0.33,6.15 -0.99,10 -0.66,3.85 -1.41,7.89 -2.25,12.12 -0.85,4.23 -1.6,8.4 -2.25,12.54 -0.66,4.13 -0.99,7.89 -0.99,11.27 0,3.38 0.47,6.1 1.41,8.17 0.94,2.07 2.72,3.1 5.35,3.1 2.82,0 6.15,-1.41 10,-4.23 3.85,-2.82 7.7,-6.1 11.55,-9.86 3.85,-3.76 7.47,-7.56 10.85,-11.41 3.38,-3.85 5.92,-6.9 7.61,-9.16 1.5,-1.88 2.96,-3.8 4.37,-5.78 1.41,-1.97 2.86,-3.71 4.37,-5.21 0.94,-0.94 1.97,-1.41 3.1,-1.41 2.07,0 2.82,0.94 2.25,2.82 -0.19,0.56 -0.66,1.36 -1.41,2.4 -0.75,1.03 -1.55,2.11 -2.4,3.24 -0.84,1.13 -1.74,2.25 -2.68,3.38 -0.94,1.13 -1.69,1.97 -2.26,2.54 -2.44,3.01 -5.59,6.72 -9.44,11.13 -3.85,4.42 -7.98,8.69 -12.4,12.82 -4.42,4.13 -8.92,7.7 -13.52,10.71 -4.6,3.01 -8.78,4.51 -12.54,4.51 -4.32,0 -7.28,-1.5 -8.88,-4.51 -1.6,-3.01 -2.4,-6.76 -2.4,-11.27 0,-3.76 0.38,-7.8 1.13,-12.12 0.75,-4.32 1.55,-8.59 2.39,-12.82 0.85,-4.23 1.64,-8.17 2.4,-11.83 0.75,-3.66 1.13,-6.62 1.13,-8.88 0,-1.69 -0.19,-2.82 -0.56,-3.38 -0.94,0.56 -1.97,1.32 -3.1,2.25 -1.13,0.94 -2.44,2.07 -3.94,3.38 0.75,0.75 1.13,1.88 1.13,3.38 0,1.31 -0.52,2.44 -1.55,3.38 -1.03,0.94 -2.21,1.41 -3.52,1.41 -0.75,0 -1.5,-0.66 -2.25,-1.97 -2.44,2.63 -4.98,5.31 -7.61,8.03 -2.63,2.72 -5.12,5.21 -7.47,7.47 -2.35,2.25 -4.46,4.13 -6.34,5.64 -1.88,1.5 -3.29,2.25 -4.23,2.25 -2.82,0 -4.23,-1.5 -4.23,-4.51 0,-2.82 0.75,-5.96 2.26,-9.44 1.5,-3.48 3.47,-6.76 5.92,-9.86 2.44,-3.1 5.16,-5.68 8.17,-7.75 3,-2.07 5.92,-3.1 8.73,-3.1zm-18.03 27.05c2.07,-1.88 4.79,-4.74 8.17,-8.59 3.38,-3.85 6.95,-7.65 10.71,-11.41 -1.13,-0.38 -2.25,-0.56 -3.38,-0.56 -1.69,0 -3.29,0.56 -4.79,1.69 -1.5,1.13 -2.82,2.49 -3.94,4.08 -1.13,1.6 -2.11,3.29 -2.96,5.07 -0.84,1.78 -1.55,3.33 -2.11,4.65 -0.75,1.69 -1.32,3.38 -1.69,5.07zm100.59 -36.35c0.38,-0.94 0.94,-1.97 1.69,-3.1 0.75,-1.13 1.88,-1.69 3.38,-1.69 2.07,0 2.82,0.94 2.25,2.82 -2.44,5.82 -4.6,11.55 -6.48,17.19 -1.88,5.64 -3.85,11.27 -5.92,16.91 1.13,-2.25 3.15,-6.1 6.06,-11.55 2.91,-5.45 6.1,-10.89 9.58,-16.34 3.48,-5.45 7.14,-10.28 10.99,-14.51 3.85,-4.23 7.28,-6.34 10.28,-6.34 1.88,0 3.19,0.89 3.94,2.68 0.75,1.78 1.13,4.09 1.13,6.9 0,2.82 -0.28,5.92 -0.85,9.3 -0.56,3.38 -1.22,6.72 -1.97,10 -0.75,3.29 -1.5,6.29 -2.25,9.02 -0.75,2.72 -1.41,4.84 -1.97,6.34 1.5,-1.88 3.1,-3.99 4.79,-6.34 1.69,-2.35 3.57,-4.6 5.64,-6.76 2.07,-2.16 4.23,-3.94 6.48,-5.35 2.25,-1.41 4.6,-2.11 7.04,-2.11 3,0 4.51,1.97 4.51,5.92 0,2.44 -0.42,5.31 -1.27,8.59 -0.85,3.29 -1.74,6.67 -2.68,10.14 -0.94,3.48 -1.83,6.9 -2.68,10.28 -0.84,3.38 -1.27,6.29 -1.27,8.74 0,4.51 1.69,6.76 5.07,6.76 2.63,0 5.78,-1.08 9.44,-3.24 3.66,-2.16 7.47,-4.7 11.41,-7.61 3.94,-2.91 7.65,-5.96 11.13,-9.16 3.48,-3.19 6.15,-5.73 8.03,-7.61 1.5,-1.5 2.96,-3.01 4.37,-4.51 1.41,-1.5 2.86,-2.91 4.37,-4.23 1.32,-0.94 2.35,-1.41 3.1,-1.41 0.94,0 1.64,0.33 2.11,0.99 0.47,0.66 0.52,1.46 0.14,2.4 -0.38,0.94 -1.6,2.35 -3.66,4.23 -2.07,1.88 -3.57,3.29 -4.51,4.23 -2.82,2.63 -6.25,5.82 -10.28,9.58 -4.04,3.76 -8.31,7.32 -12.82,10.71 -4.51,3.38 -8.97,6.25 -13.38,8.59 -4.42,2.35 -8.31,3.52 -11.69,3.52 -3.76,0 -6.29,-1.08 -7.61,-3.24 -1.31,-2.16 -1.97,-4.84 -1.97,-8.03 0,-3.38 0.47,-7.04 1.41,-10.99 0.94,-3.94 1.97,-7.8 3.1,-11.55 1.13,-3.76 2.02,-7.14 2.68,-10.14 0.66,-3.01 0.7,-5.07 0.14,-6.2 -1.88,0 -4.23,1.6 -7.04,4.79 -2.82,3.19 -5.64,6.76 -8.45,10.71 -2.82,3.94 -5.54,7.51 -8.17,10.71 -2.63,3.19 -4.79,4.79 -6.48,4.79 -1.13,0 -1.88,-0.66 -2.25,-1.97 0,-0.38 0.19,-1.08 0.56,-2.11 0.38,-1.03 0.8,-2.16 1.27,-3.38 0.47,-1.22 0.89,-2.35 1.27,-3.38 0.38,-1.03 0.56,-1.83 0.56,-2.4 0.56,-1.5 1.27,-3.8 2.11,-6.9 0.84,-3.1 1.69,-6.53 2.54,-10.28 0.85,-3.76 1.6,-7.47 2.25,-11.13 0.66,-3.66 0.99,-6.62 0.99,-8.88 0,-2.25 -0.38,-3.66 -1.13,-4.23 -2.44,1.31 -5.64,4.93 -9.58,10.85 -3.94,5.92 -7.94,12.49 -11.98,19.72 -4.04,7.23 -7.8,14.23 -11.27,20.99 -3.48,6.76 -5.96,11.55 -7.47,14.37 -0.56,1.13 -1.41,2.44 -2.54,3.94 -1.13,1.5 -2.44,2.26 -3.94,2.26 -1.5,0 -2.35,-0.75 -2.54,-2.26 0,-1.31 0.89,-4.79 2.68,-10.42 1.78,-5.64 3.85,-11.79 6.2,-18.46 2.35,-6.67 4.65,-13.01 6.9,-19.02 2.25,-6.01 3.76,-10.05 4.51,-12.12zm129.61 3.66c4.13,0 6.2,1.78 6.2,5.35 0,2.63 -1.03,5.07 -3.1,7.33 -2.07,2.25 -4.55,4.23 -7.47,5.92 -2.91,1.69 -5.92,3.15 -9.02,4.37 -3.1,1.22 -5.68,2.11 -7.75,2.68 -0.38,0.94 -0.56,2.35 -0.56,4.23 0,3.38 1.27,6.15 3.8,8.31 2.54,2.16 5.68,3.24 9.44,3.24 3.38,0 7.14,-0.52 11.27,-1.55 4.13,-1.03 8.36,-2.35 12.68,-3.94 4.32,-1.6 8.55,-3.43 12.68,-5.49 4.13,-2.07 7.89,-4.13 11.27,-6.2 1.69,-1.13 3.29,-2.35 4.79,-3.66 1.5,-1.32 3.1,-2.44 4.79,-3.38 0.94,-0.56 1.69,-0.84 2.25,-0.84 2.07,0 2.82,0.94 2.25,2.82 -0.56,1.32 -1.69,2.58 -3.38,3.8 -1.69,1.22 -3.1,2.3 -4.23,3.24 -3.94,2.82 -8.41,5.49 -13.38,8.03 -4.98,2.54 -10,4.84 -15.07,6.9 -5.07,2.07 -10.1,3.71 -15.07,4.93 -4.98,1.22 -9.53,1.83 -13.67,1.83 -4.88,0 -9.02,-1.46 -12.4,-4.37 -3.38,-2.91 -5.07,-6.81 -5.07,-11.69 0,-2.25 0.56,-4.79 1.69,-7.61 0,-0.56 0.28,-1.13 0.84,-1.69 1.13,-2.44 2.63,-4.98 4.51,-7.61 1.88,-2.63 3.99,-5.07 6.34,-7.33 2.35,-2.25 4.84,-4.08 7.47,-5.49 2.63,-1.41 5.26,-2.11 7.89,-2.11zm-17.19 18.31c0.94,-0.38 2.3,-0.89 4.09,-1.55 1.78,-0.66 3.57,-1.46 5.35,-2.4 1.78,-0.94 3.34,-2.02 4.65,-3.24 1.32,-1.22 1.97,-2.49 1.97,-3.8 0,-0.38 -0.47,-0.56 -1.41,-0.56 -2.63,0 -5.26,1.27 -7.89,3.8 -2.63,2.54 -4.88,5.12 -6.76,7.75zm87.35 -20.85c2.07,0 3.66,0.89 4.79,2.68 1.13,1.78 1.69,3.71 1.69,5.78 0,1.5 -0.28,2.82 -0.85,3.94 -0.38,0.94 -0.99,1.69 -1.83,2.25 -0.85,0.56 -1.74,0.84 -2.68,0.84 -1.5,0 -2.25,-0.66 -2.25,-1.97 0,-1.31 0,-2.72 0,-4.23 0,-1.69 -0.56,-2.54 -1.69,-2.54 -2.25,0 -4.56,1.31 -6.9,3.94 -2.35,2.63 -3.9,4.88 -4.65,6.76 -1.5,3.94 -2.25,8.83 -2.25,14.65 0,5.82 0.19,11.74 0.56,17.75 0.38,-0.19 2.07,-1.13 5.07,-2.82 3,-1.69 6.72,-3.66 11.13,-5.92 4.41,-2.25 9.16,-4.7 14.23,-7.32 5.07,-2.63 9.81,-5.03 14.23,-7.19 4.42,-2.16 8.17,-3.99 11.27,-5.49 3.1,-1.5 4.84,-2.25 5.21,-2.25 2.07,0 2.82,0.94 2.25,2.82 -0.56,1.13 -1.22,1.97 -1.97,2.54 -3,2.25 -6.29,4.13 -9.86,5.64 -3.57,1.5 -6.95,3 -10.14,4.51 -1.5,0.75 -3.76,1.88 -6.76,3.38 -3.01,1.5 -6.39,3.24 -10.14,5.21 -3.76,1.97 -7.75,4.08 -11.98,6.34 -4.23,2.26 -8.31,4.51 -12.26,6.76 0.19,4.13 0.09,8.08 -0.28,11.83 -0.38,3.76 -1.22,7.23 -2.54,10.42 -1.32,3.01 -3.66,5.54 -7.04,7.61 -3.38,2.07 -6.48,3.1 -9.3,3.1 -3.76,0 -6.43,-0.85 -8.03,-2.54 -1.6,-1.69 -2.4,-3.94 -2.4,-6.76 0,-2.25 0.66,-5.17 1.97,-8.73 0.94,-2.26 3.29,-4.88 7.04,-7.89 3.76,-3.01 8.26,-6.11 13.52,-9.3 -0.19,-3.01 -0.38,-6.06 -0.56,-9.16 -0.19,-3.1 -0.28,-6.15 -0.28,-9.16 0,-7.14 0.94,-13.15 2.82,-18.03 0.75,-1.88 1.88,-3.85 3.38,-5.92 1.5,-2.07 3.19,-3.94 5.07,-5.64 1.88,-1.69 3.9,-3.1 6.06,-4.23 2.16,-1.13 4.27,-1.69 6.34,-1.69zm-22.82 60.02c-3.76,2.25 -6.95,4.37 -9.58,6.34 -2.63,1.97 -4.13,3.62 -4.51,4.93 -0.94,2.44 -1.41,4.41 -1.41,5.92 0,3.57 1.97,5.35 5.92,5.35 1.13,0 2.54,-0.42 4.23,-1.27 1.69,-0.84 2.72,-1.92 3.1,-3.24 0.94,-2.44 1.55,-5.21 1.83,-8.31 0.28,-3.1 0.42,-6.34 0.42,-9.72z"/>
 </g>
</svg>
