<?xml version="1.0" encoding="UTF-8"?>
<!DOCTYPE svg PUBLIC "-//W3C//DTD SVG 1.1//EN" "http://www.w3.org/Graphics/SVG/1.1/DTD/svg11.dtd">
<!-- Creator: CorelDRAW -->
<svg xmlns="http://www.w3.org/2000/svg" xml:space="preserve" width="4.8165mm" height="4.8476mm" version="1.1" style="shape-rendering:geometricPrecision; text-rendering:geometricPrecision; image-rendering:optimizeQuality; fill-rule:evenodd; clip-rule:evenodd"
viewBox="0 0 274.92 276.69"
 xmlns:xlink="http://www.w3.org/1999/xlink"
 xmlns:xodm="http://www.corel.com/coreldraw/odm/2003">
 <defs>
  <style type="text/css">
   <![CDATA[
    .fil0 {fill:#434242}
   ]]>
  </style>
 </defs>
 <g id="Layer_x0020_1">
  <metadata id="CorelCorpID_0Corel-Layer"/>
  <path class="fil0" d="M-0 276.69c4.81,-0.59 47.04,-14.77 55.41,-17.4 4.46,-1.41 8.7,-2.83 13.39,-4.34 11.27,-3.64 11.1,4.38 40.19,11.38 78.24,18.79 159.45,-37.04 165.59,-121.86 2.2,-30.5 -6.47,-62.04 -23.09,-85.77 -55.06,-78.64 -165.11,-75.99 -219.02,-5.66 -28.64,37.35 -38.09,93.55 -13.38,142.2 2.48,4.9 5.59,7.52 3.93,12.95 -6.52,21.27 -15.91,45.71 -23.01,68.51zm35.43 -35.19c4.28,-0.11 30.63,-9.33 38.04,-11.7 12.13,-3.89 19.71,17.21 67.62,17.21 59.97,0 110.97,-49.33 110.97,-114.21 0,-80.49 -91.6,-140.29 -169.19,-94.52 -51.17,30.18 -71.49,97.95 -41.01,150.95 7.88,13.7 8.5,7.95 2.71,24.77 -3.18,9.26 -6.23,18.53 -9.13,27.49zm123.34 -72.3c-17.05,1.4 -52.83,-38.03 -51.35,-46.63 4.07,-8.09 15.59,-11.18 10.12,-24.83 -3.61,-9.01 -6.92,-21.92 -11.74,-28.11 -9.89,-1.26 -14.44,-2.39 -20.67,3.48 -37.83,35.59 18.82,95.48 47.01,113.29 7.83,4.95 27.1,12.95 37.64,15.35 14.71,3.36 32.49,-5.94 36.82,-14.61 10.22,-20.49 -2.53,-21.11 -17.19,-29.18 -23.09,-12.72 -14.89,0.92 -30.64,11.23z"/>
 </g>
</svg>
