<?xml version="1.0" encoding="UTF-8"?>
<!DOCTYPE svg PUBLIC "-//W3C//DTD SVG 1.1//EN" "http://www.w3.org/Graphics/SVG/1.1/DTD/svg11.dtd">
<!-- Creator: CorelDRAW -->
<svg xmlns="http://www.w3.org/2000/svg" xml:space="preserve" width="72.0527mm" height="16.7854mm" version="1.1" style="shape-rendering:geometricPrecision; text-rendering:geometricPrecision; image-rendering:optimizeQuality; fill-rule:evenodd; clip-rule:evenodd"
viewBox="0 0 841.38 196.01"
 xmlns:xlink="http://www.w3.org/1999/xlink"
 xmlns:xodm="http://www.corel.com/coreldraw/odm/2003">
 <defs>
  <style type="text/css">
   <![CDATA[
    .fil0 {fill:#0D0D0D;fill-rule:nonzero}
    .fil1 {fill:#CC9933;fill-rule:nonzero}
   ]]>
  </style>
 </defs>
 <g id="Layer_x0020_1">
  <metadata id="CorelCorpID_0Corel-Layer"/>
  <path class="fil0" d="M31.99 0.54l19.34 0 7.02 23.67 7.13 -23.67 19.34 0 -12.97 36.64 5.51 15.67 16.54 -52.31 22.91 0 -28.96 76.73 -18.26 0 -11.24 -27.45 -11.13 27.45 -18.26 0 -28.96 -76.73 22.8 0 16.64 52.31 5.3 -15.67 -12.75 -36.64zm122.31 77.27c-5.84,0 -11.13,-1.1 -15.89,-3.3 -4.76,-2.2 -8.84,-5.15 -12.27,-8.86 -3.42,-3.71 -6.05,-7.89 -7.89,-12.54 -1.84,-4.65 -2.76,-9.46 -2.76,-14.43 0,-5.11 0.97,-9.98 2.92,-14.59 1.95,-4.61 4.67,-8.74 8.16,-12.37 3.5,-3.64 7.64,-6.5 12.43,-8.59 4.79,-2.09 10.03,-3.13 15.72,-3.13 5.84,0 11.13,1.1 15.89,3.3 4.76,2.2 8.83,5.17 12.21,8.92 3.39,3.75 6,7.94 7.84,12.59 1.84,4.65 2.76,9.42 2.76,14.32 0,5.04 -0.95,9.87 -2.86,14.48 -1.91,4.61 -4.61,8.74 -8.11,12.37 -3.5,3.64 -7.62,6.52 -12.37,8.65 -4.76,2.13 -10.01,3.19 -15.78,3.19zm-17.4 -38.91c0,2.59 0.36,5.1 1.08,7.51 0.72,2.41 1.8,4.57 3.24,6.48 1.44,1.91 3.26,3.42 5.46,4.54 2.2,1.12 4.81,1.68 7.84,1.68 3.03,0 5.66,-0.58 7.89,-1.73 2.23,-1.15 4.05,-2.72 5.46,-4.7 1.4,-1.98 2.45,-4.18 3.13,-6.59 0.69,-2.41 1.03,-4.88 1.03,-7.4 0,-2.59 -0.36,-5.08 -1.08,-7.46 -0.72,-2.38 -1.8,-4.52 -3.24,-6.43 -1.44,-1.91 -3.28,-3.4 -5.51,-4.49 -2.23,-1.08 -4.83,-1.62 -7.78,-1.62 -3.03,0 -5.64,0.58 -7.83,1.73 -2.2,1.15 -4.02,2.68 -5.46,4.59 -1.44,1.91 -2.5,4.07 -3.19,6.48 -0.68,2.41 -1.03,4.88 -1.03,7.4zm100.69 38.91c-5.84,0 -11.13,-1.1 -15.89,-3.3 -4.76,-2.2 -8.84,-5.15 -12.27,-8.86 -3.42,-3.71 -6.05,-7.89 -7.89,-12.54 -1.84,-4.65 -2.76,-9.46 -2.76,-14.43 0,-5.11 0.97,-9.98 2.92,-14.59 1.95,-4.61 4.67,-8.74 8.16,-12.37 3.5,-3.64 7.64,-6.5 12.43,-8.59 4.79,-2.09 10.03,-3.13 15.72,-3.13 5.84,0 11.13,1.1 15.89,3.3 4.76,2.2 8.83,5.17 12.21,8.92 3.39,3.75 6,7.94 7.84,12.59 1.84,4.65 2.76,9.42 2.76,14.32 0,5.04 -0.95,9.87 -2.86,14.48 -1.91,4.61 -4.61,8.74 -8.11,12.37 -3.5,3.64 -7.62,6.52 -12.37,8.65 -4.76,2.13 -10.01,3.19 -15.78,3.19zm-17.4 -38.91c0,2.59 0.36,5.1 1.08,7.51 0.72,2.41 1.8,4.57 3.24,6.48 1.44,1.91 3.26,3.42 5.46,4.54 2.2,1.12 4.81,1.68 7.84,1.68 3.03,0 5.66,-0.58 7.89,-1.73 2.23,-1.15 4.05,-2.72 5.46,-4.7 1.4,-1.98 2.45,-4.18 3.13,-6.59 0.69,-2.41 1.03,-4.88 1.03,-7.4 0,-2.59 -0.36,-5.08 -1.08,-7.46 -0.72,-2.38 -1.8,-4.52 -3.24,-6.43 -1.44,-1.91 -3.28,-3.4 -5.51,-4.49 -2.23,-1.08 -4.83,-1.62 -7.78,-1.62 -3.03,0 -5.64,0.58 -7.83,1.73 -2.2,1.15 -4.02,2.68 -5.46,4.59 -1.44,1.91 -2.5,4.07 -3.19,6.48 -0.68,2.41 -1.03,4.88 -1.03,7.4zm66.11 38.37l0 -76.73 29.5 0c8.5,0 15.62,1.71 21.34,5.13 5.73,3.42 10.05,8.03 12.97,13.83 2.92,5.8 4.38,12.23 4.38,19.29 0,7.78 -1.6,14.55 -4.81,20.32 -3.21,5.76 -7.71,10.23 -13.51,13.4 -5.8,3.17 -12.59,4.76 -20.37,4.76l-29.5 0zm46.8 -38.47c0,-3.96 -0.68,-7.44 -2.05,-10.43 -1.37,-2.99 -3.35,-5.31 -5.94,-6.97 -2.59,-1.66 -5.69,-2.49 -9.29,-2.49l-8.43 0 0 39.99 8.43 0c3.67,0 6.79,-0.87 9.35,-2.59 2.56,-1.73 4.52,-4.13 5.89,-7.19 1.37,-3.06 2.05,-6.5 2.05,-10.32zm51.3 -0.65c0,-4.68 0.88,-9.28 2.65,-13.78 1.77,-4.5 4.34,-8.59 7.73,-12.27 3.39,-3.67 7.51,-6.61 12.37,-8.81 4.86,-2.2 10.36,-3.3 16.48,-3.3 7.35,0 13.76,1.53 19.24,4.59 5.48,3.06 9.55,7.11 12.21,12.16l-16.1 11.46c-0.94,-2.52 -2.29,-4.47 -4.05,-5.84 -1.76,-1.37 -3.67,-2.32 -5.73,-2.86 -2.05,-0.54 -4.05,-0.81 -6,-0.81 -3.03,0 -5.64,0.59 -7.84,1.78 -2.2,1.19 -4,2.76 -5.4,4.7 -1.4,1.95 -2.45,4.11 -3.13,6.48 -0.68,2.38 -1.03,4.76 -1.03,7.13 0,2.67 0.4,5.22 1.19,7.67 0.79,2.45 1.94,4.63 3.46,6.54 1.51,1.91 3.37,3.4 5.57,4.49 2.2,1.08 4.67,1.62 7.4,1.62 1.95,0 3.93,-0.31 5.94,-0.92 2.02,-0.61 3.85,-1.6 5.51,-2.97 1.66,-1.37 2.92,-3.21 3.78,-5.51l17.18 10.27c-1.51,3.75 -4.03,6.95 -7.56,9.62 -3.53,2.67 -7.53,4.7 -12,6.11 -4.47,1.4 -8.9,2.11 -13.29,2.11 -5.69,0 -10.9,-1.14 -15.62,-3.41 -4.72,-2.27 -8.79,-5.29 -12.21,-9.08 -3.42,-3.78 -6.07,-8.03 -7.94,-12.75 -1.87,-4.72 -2.81,-9.53 -2.81,-14.43zm113.01 39.66c-6.12,0 -11.38,-1.01 -15.78,-3.03 -4.39,-2.02 -7.98,-4.77 -10.75,-8.3 -2.77,-3.53 -4.81,-7.58 -6.11,-12.14 -1.3,-4.57 -1.95,-9.37 -1.95,-14.41l0 -39.39 21.07 0 0 39.37c0,2.52 0.25,4.92 0.76,7.22 0.5,2.31 1.3,4.36 2.38,6.16 1.08,1.78 2.47,3.21 4.16,4.25 1.69,1.05 3.76,1.57 6.21,1.57 2.52,0 4.65,-0.52 6.38,-1.57 1.73,-1.05 3.12,-2.49 4.16,-4.31 1.04,-1.84 1.82,-3.91 2.32,-6.21 0.5,-2.31 0.76,-4.67 0.76,-7.11l0 -39.37 21.07 0 0 39.39c0,5.33 -0.7,10.28 -2.11,14.9 -1.41,4.59 -3.51,8.63 -6.32,12.09 -2.81,3.46 -6.39,6.12 -10.75,8.03 -4.36,1.91 -9.53,2.86 -15.51,2.86zm93.88 -52.09c0,0 -0.61,-0.36 -1.84,-1.08 -1.22,-0.72 -2.85,-1.53 -4.86,-2.43 -2.02,-0.9 -4.21,-1.71 -6.59,-2.43 -2.38,-0.72 -4.72,-1.08 -7.03,-1.08 -1.8,0 -3.28,0.29 -4.43,0.86 -1.15,0.56 -1.73,1.53 -1.73,2.88 0,1.28 0.58,2.32 1.73,3.12 1.15,0.77 2.79,1.49 4.92,2.13 2.13,0.65 4.67,1.44 7.62,2.36 4.76,1.44 8.86,3.08 12.32,4.93 3.46,1.86 6.12,4.23 8,7.11 1.87,2.9 2.81,6.74 2.81,11.51 0,4.58 -0.83,8.41 -2.48,11.51 -1.66,3.12 -3.89,5.6 -6.7,7.46 -2.81,1.86 -5.94,3.19 -9.4,4.02 -3.46,0.81 -6.99,1.22 -10.59,1.22 -3.67,0 -7.51,-0.38 -11.51,-1.14 -4,-0.76 -7.87,-1.8 -11.62,-3.13 -3.75,-1.33 -7.17,-2.9 -10.27,-4.7l9.08 -18.48c0,0 0.72,0.43 2.16,1.3 1.44,0.87 3.35,1.84 5.73,2.92 2.38,1.08 5.03,2.05 7.94,2.92 2.92,0.86 5.85,1.3 8.81,1.3 2.31,0 3.91,-0.29 4.81,-0.88 0.9,-0.58 1.35,-1.35 1.35,-2.31 0,-1.51 -0.79,-2.67 -2.38,-3.49 -1.58,-0.83 -3.66,-1.62 -6.21,-2.36 -2.56,-0.76 -5.39,-1.64 -8.48,-2.63 -4.47,-1.51 -8.14,-3.21 -11.02,-5.1 -2.88,-1.89 -5.01,-4.16 -6.38,-6.77 -1.37,-2.61 -2.05,-5.76 -2.05,-9.49 0,-5.66 1.33,-10.37 4,-14.16 2.67,-3.8 6.18,-6.68 10.54,-8.65 4.36,-1.96 9.06,-2.95 14.1,-2.95 3.75,0 7.37,0.45 10.86,1.35 3.5,0.9 6.77,2 9.83,3.3 3.06,1.3 5.75,2.52 8.05,3.67l-9.08 17.4zm80.59 -6.81l-22.05 0 0 58.36 -21.07 0 0 -58.36 -22.16 0 0 -18.37 65.28 0 0 18.37zm41.69 58.9c-5.84,0 -11.13,-1.1 -15.89,-3.3 -4.76,-2.2 -8.84,-5.15 -12.27,-8.86 -3.42,-3.71 -6.05,-7.89 -7.89,-12.54 -1.84,-4.65 -2.76,-9.46 -2.76,-14.43 0,-5.11 0.97,-9.98 2.92,-14.59 1.95,-4.61 4.67,-8.74 8.16,-12.37 3.5,-3.64 7.64,-6.5 12.43,-8.59 4.79,-2.09 10.03,-3.13 15.72,-3.13 5.84,0 11.13,1.1 15.89,3.3 4.76,2.2 8.83,5.17 12.21,8.92 3.39,3.75 6,7.94 7.84,12.59 1.84,4.65 2.76,9.42 2.76,14.32 0,5.04 -0.95,9.87 -2.86,14.48 -1.91,4.61 -4.61,8.74 -8.11,12.37 -3.5,3.64 -7.62,6.52 -12.37,8.65 -4.76,2.13 -10.01,3.19 -15.78,3.19zm-17.4 -38.91c0,2.59 0.36,5.1 1.08,7.51 0.72,2.41 1.8,4.57 3.24,6.48 1.44,1.91 3.26,3.42 5.46,4.54 2.2,1.12 4.81,1.68 7.84,1.68 3.03,0 5.66,-0.58 7.89,-1.73 2.23,-1.15 4.05,-2.72 5.46,-4.7 1.4,-1.98 2.45,-4.18 3.13,-6.59 0.69,-2.41 1.03,-4.88 1.03,-7.4 0,-2.59 -0.36,-5.08 -1.08,-7.46 -0.72,-2.38 -1.8,-4.52 -3.24,-6.43 -1.44,-1.91 -3.28,-3.4 -5.51,-4.49 -2.23,-1.08 -4.83,-1.62 -7.78,-1.62 -3.03,0 -5.64,0.58 -7.83,1.73 -2.2,1.15 -4.02,2.68 -5.46,4.59 -1.44,1.91 -2.5,4.07 -3.19,6.48 -0.68,2.41 -1.03,4.88 -1.03,7.4zm124.14 38.37l0 -40.42 -12.86 28.42 -11.24 0 -12.86 -28.42 0 40.42 -21.07 0 0 -76.73 23.02 0 16.54 36.1 16.64 -36.1 22.91 0 0 76.73 -21.07 0z"/>
  <path class="fil1" d="M277.14 63.09c-0.31,0.78 -0.82,1.4 -1.52,1.87 -0.7,0.47 -1.44,0.7 -2.22,0.7 -1.09,0 -1.63,-0.62 -1.63,-1.87 0,-1.25 0.35,-2.76 1.05,-4.56 0.7,-1.79 1.05,-3.31 1.05,-4.56 0,-0.93 -0.39,-1.4 -1.17,-1.4 -0.62,0 -1.32,0.31 -2.1,0.93 -0.78,0.62 -1.32,1.17 -1.64,1.63 -2.96,2.8 -6.11,7.01 -9.46,12.62 -3.35,5.61 -6.62,11.64 -9.81,18.1 -3.19,6.46 -6.11,12.77 -8.76,18.92 -2.65,6.15 -4.83,11.25 -6.54,15.3 0.31,0.31 0.78,0.93 1.4,1.87 2.02,1.71 4.63,3 7.83,3.85 3.19,0.86 6.35,1.28 9.46,1.28 5.92,0 11.56,-1.17 16.94,-3.5 5.37,-2.34 10.55,-5.06 15.53,-8.18 0.47,-0.47 1.09,-0.7 1.87,-0.7 0.78,0 1.32,0.27 1.63,0.82 0.31,0.55 0.31,1.21 0,1.99 -0.31,0.94 -1.01,1.71 -2.1,2.34 -1.09,0.62 -2.02,1.17 -2.8,1.63 -5.14,3.12 -10.71,5.72 -16.7,7.83 -6,2.1 -11.49,3.15 -16.47,3.15 -4.2,0 -8.33,-0.62 -12.38,-1.87 0.16,1.25 0.27,2.53 0.35,3.85 0.08,1.32 0.12,2.69 0.12,4.09 0,1.87 -0.16,4.59 -0.47,8.18 -0.31,3.58 -0.78,7.47 -1.4,11.68 -0.62,4.21 -1.52,8.49 -2.69,12.85 -1.17,4.36 -2.57,8.33 -4.21,11.91 -1.64,3.58 -3.58,6.5 -5.84,8.76 -2.26,2.26 -4.87,3.39 -7.83,3.39 -2.02,0 -3.47,-0.9 -4.32,-2.69 -0.86,-1.79 -1.28,-4.24 -1.28,-7.36 0,-4.36 1.05,-10.82 3.15,-19.39 2.1,-8.57 4.91,-17.95 8.41,-28.15 3.5,-10.2 7.51,-20.67 12.03,-31.42 4.52,-10.75 9.15,-20.52 13.9,-29.32 4.75,-8.8 9.46,-16 14.13,-21.61 4.67,-5.61 8.88,-8.41 12.62,-8.41 1.71,0 2.88,0.51 3.5,1.52 0.62,1.01 0.93,2.22 0.93,3.62 0,1.71 -0.27,3.5 -0.82,5.37 -0.55,1.87 -1.13,3.5 -1.75,4.91zm-60.04 124.98c0.31,0.31 0.58,0.78 0.82,1.4 0.23,0.62 0.66,0.93 1.28,0.93 1.56,0 2.96,-1.09 4.21,-3.27 1.25,-2.18 2.41,-4.91 3.5,-8.18 1.09,-3.27 2.02,-6.89 2.8,-10.86 0.78,-3.97 1.44,-7.75 1.99,-11.33 0.55,-3.58 0.93,-6.81 1.17,-9.69 0.23,-2.88 0.35,-4.79 0.35,-5.72 0,-2.65 -0.12,-5.02 -0.35,-7.12 -0.23,-2.1 -0.74,-4.01 -1.52,-5.72 -1.56,4.21 -3.31,9.23 -5.26,15.07 -1.95,5.84 -3.66,11.64 -5.14,17.4 -1.48,5.76 -2.65,11.1 -3.5,16 -0.86,4.91 -0.97,8.61 -0.35,11.1zm78.02 -77.56c-0.31,0.47 -0.66,1.09 -1.05,1.87 -0.39,0.78 -0.9,1.56 -1.52,2.34 2.34,0.78 4.75,1.52 7.24,2.22 2.49,0.7 4.05,1.67 4.67,2.92 0.31,0.47 0.47,1.17 0.47,2.1 0,0.78 -0.08,1.48 -0.23,2.1 -0.16,0.62 -0.39,1.32 -0.7,2.1 -1.09,2.49 -2.38,4.91 -3.85,7.24 -1.48,2.34 -2.69,4.75 -3.62,7.24 -0.94,2.02 -1.4,4.05 -1.4,6.07 0,3.89 2.18,5.84 6.54,5.84 2.34,0 5.1,-1.09 8.29,-3.27 3.19,-2.18 6.42,-4.71 9.69,-7.59 3.27,-2.88 6.35,-5.88 9.23,-8.99 2.88,-3.12 5.02,-5.61 6.42,-7.48 0.31,-0.47 0.74,-1.09 1.28,-1.87 0.55,-0.78 1.13,-1.63 1.75,-2.57 0.62,-0.93 1.25,-1.79 1.87,-2.57 0.62,-0.78 1.01,-1.25 1.17,-1.4 0.94,-0.93 1.87,-1.4 2.8,-1.4 0.78,0 1.36,0.27 1.75,0.82 0.39,0.55 0.43,1.21 0.12,1.99 -0.47,1.09 -1.48,2.61 -3.04,4.56 -1.56,1.95 -2.73,3.47 -3.5,4.56 -2.02,2.49 -4.67,5.49 -7.94,8.99 -3.27,3.5 -6.77,6.85 -10.51,10.05 -3.74,3.19 -7.48,5.92 -11.21,8.18 -3.74,2.26 -7.16,3.39 -10.28,3.39 -3.58,0 -6.19,-0.86 -7.83,-2.57 -1.63,-1.71 -2.45,-3.89 -2.45,-6.54 0,-2.49 0.62,-5.22 1.87,-8.18 0.94,-2.49 2.18,-4.94 3.74,-7.36 1.56,-2.41 2.8,-4.87 3.74,-7.36 0.31,-0.93 0.47,-1.48 0.47,-1.63 -0.31,-1.25 -1.79,-2.14 -4.44,-2.69 -2.65,-0.55 -5.29,-1.28 -7.94,-2.22 -0.78,0 -1.32,-0.31 -1.63,-0.94 -1.25,-0.62 -2.26,-1.36 -3.04,-2.22 -0.78,-0.86 -1.17,-1.91 -1.17,-3.15 0,-2.49 1.17,-4.91 3.5,-7.24 2.34,-2.34 4.67,-3.5 7.01,-3.5 1.56,0 2.69,0.47 3.39,1.4 0.7,0.93 1.05,2.02 1.05,3.27 0,1.09 -0.23,2.26 -0.7,3.5zm-6.77 2.34c0.62,-0.93 1.09,-1.71 1.4,-2.34 0.16,-0.31 0.27,-0.86 0.35,-1.64 0.08,-0.78 -0.12,-1.17 -0.58,-1.17 -0.62,0 -1.17,0.27 -1.63,0.82 -0.47,0.55 -0.78,1.05 -0.94,1.52 -0.47,1.09 0,2.02 1.4,2.8zm68.21 -6.07c1.71,0 3.5,0.47 5.37,1.4 2.34,-2.18 4.56,-3.97 6.66,-5.37 2.1,-1.4 3.85,-2.1 5.26,-2.1 2.34,0 3.5,2.18 3.5,6.54 0,2.34 -0.27,5.1 -0.82,8.29 -0.55,3.19 -1.17,6.54 -1.87,10.04 -0.7,3.5 -1.32,6.97 -1.87,10.4 -0.55,3.43 -0.82,6.54 -0.82,9.34 0,2.8 0.39,5.06 1.17,6.78 0.78,1.71 2.26,2.57 4.44,2.57 2.34,0 5.1,-1.17 8.29,-3.5 3.19,-2.34 6.39,-5.06 9.58,-8.18 3.19,-3.12 6.19,-6.27 8.99,-9.46 2.8,-3.19 4.91,-5.72 6.31,-7.59 1.25,-1.56 2.45,-3.15 3.62,-4.79 1.17,-1.63 2.38,-3.08 3.62,-4.32 0.78,-0.78 1.63,-1.17 2.57,-1.17 1.71,0 2.34,0.78 1.87,2.34 -0.16,0.47 -0.55,1.13 -1.17,1.99 -0.62,0.86 -1.29,1.75 -1.99,2.69 -0.7,0.93 -1.44,1.87 -2.22,2.8 -0.78,0.93 -1.4,1.63 -1.87,2.1 -2.02,2.49 -4.63,5.57 -7.82,9.23 -3.19,3.66 -6.62,7.2 -10.28,10.63 -3.66,3.43 -7.4,6.39 -11.21,8.88 -3.82,2.49 -7.28,3.74 -10.4,3.74 -3.58,0 -6.03,-1.25 -7.36,-3.74 -1.32,-2.49 -1.99,-5.61 -1.99,-9.34 0,-3.12 0.31,-6.46 0.94,-10.05 0.62,-3.58 1.28,-7.12 1.99,-10.63 0.7,-3.5 1.36,-6.77 1.99,-9.81 0.62,-3.04 0.94,-5.49 0.94,-7.36 0,-1.4 -0.16,-2.34 -0.47,-2.8 -0.78,0.47 -1.64,1.09 -2.57,1.87 -0.93,0.78 -2.02,1.71 -3.27,2.8 0.62,0.62 0.93,1.56 0.93,2.8 0,1.09 -0.43,2.02 -1.28,2.8 -0.86,0.78 -1.83,1.17 -2.92,1.17 -0.62,0 -1.24,-0.55 -1.87,-1.63 -2.02,2.18 -4.13,4.4 -6.31,6.66 -2.18,2.26 -4.24,4.32 -6.19,6.19 -1.95,1.87 -3.7,3.43 -5.26,4.67 -1.56,1.25 -2.73,1.87 -3.5,1.87 -2.34,0 -3.5,-1.25 -3.5,-3.74 0,-2.34 0.62,-4.94 1.87,-7.82 1.25,-2.88 2.88,-5.61 4.91,-8.18 2.02,-2.57 4.28,-4.71 6.78,-6.42 2.49,-1.71 4.91,-2.57 7.24,-2.57zm-14.95 22.43c1.71,-1.56 3.97,-3.93 6.77,-7.13 2.8,-3.19 5.76,-6.35 8.88,-9.46 -0.93,-0.31 -1.87,-0.47 -2.8,-0.47 -1.4,0 -2.73,0.47 -3.97,1.4 -1.25,0.93 -2.34,2.06 -3.27,3.39 -0.93,1.32 -1.75,2.73 -2.45,4.21 -0.7,1.48 -1.29,2.76 -1.75,3.85 -0.62,1.4 -1.09,2.8 -1.4,4.21zm83.4 -30.14c0.31,-0.78 0.78,-1.63 1.4,-2.57 0.62,-0.93 1.56,-1.4 2.8,-1.4 1.71,0 2.34,0.78 1.87,2.34 -2.02,4.83 -3.82,9.58 -5.37,14.25 -1.56,4.67 -3.19,9.34 -4.91,14.02 0.94,-1.87 2.61,-5.06 5.02,-9.58 2.41,-4.52 5.06,-9.03 7.94,-13.55 2.88,-4.52 5.92,-8.53 9.11,-12.03 3.19,-3.5 6.03,-5.26 8.53,-5.26 1.56,0 2.65,0.74 3.27,2.22 0.62,1.48 0.93,3.39 0.93,5.72 0,2.34 -0.23,4.91 -0.7,7.71 -0.47,2.8 -1.01,5.57 -1.63,8.29 -0.62,2.73 -1.25,5.22 -1.87,7.48 -0.62,2.26 -1.17,4.01 -1.63,5.26 1.25,-1.56 2.57,-3.31 3.97,-5.26 1.4,-1.95 2.96,-3.82 4.67,-5.61 1.71,-1.79 3.5,-3.27 5.37,-4.44 1.87,-1.17 3.81,-1.75 5.84,-1.75 2.49,0 3.74,1.64 3.74,4.91 0,2.02 -0.35,4.4 -1.05,7.13 -0.7,2.73 -1.44,5.53 -2.22,8.41 -0.78,2.88 -1.52,5.72 -2.22,8.53 -0.7,2.8 -1.05,5.22 -1.05,7.24 0,3.74 1.4,5.61 4.21,5.61 2.18,0 4.79,-0.9 7.82,-2.69 3.04,-1.79 6.19,-3.89 9.46,-6.31 3.27,-2.41 6.35,-4.95 9.23,-7.59 2.88,-2.65 5.1,-4.75 6.66,-6.31 1.25,-1.25 2.45,-2.49 3.62,-3.74 1.17,-1.25 2.38,-2.41 3.62,-3.5 1.09,-0.78 1.95,-1.17 2.57,-1.17 0.78,0 1.36,0.27 1.75,0.82 0.39,0.55 0.43,1.21 0.12,1.99 -0.31,0.78 -1.32,1.95 -3.04,3.5 -1.71,1.56 -2.96,2.73 -3.74,3.5 -2.34,2.18 -5.18,4.83 -8.53,7.94 -3.35,3.11 -6.89,6.07 -10.63,8.88 -3.74,2.8 -7.44,5.18 -11.1,7.12 -3.66,1.95 -6.89,2.92 -9.69,2.92 -3.11,0 -5.22,-0.9 -6.31,-2.69 -1.09,-1.79 -1.64,-4.01 -1.64,-6.66 0,-2.8 0.39,-5.84 1.17,-9.11 0.78,-3.27 1.63,-6.46 2.57,-9.58 0.93,-3.12 1.67,-5.92 2.22,-8.41 0.54,-2.49 0.58,-4.21 0.12,-5.14 -1.56,0 -3.5,1.32 -5.84,3.97 -2.34,2.65 -4.67,5.61 -7.01,8.88 -2.34,3.27 -4.59,6.23 -6.78,8.88 -2.18,2.65 -3.97,3.97 -5.37,3.97 -0.93,0 -1.56,-0.54 -1.87,-1.63 0,-0.31 0.16,-0.9 0.47,-1.75 0.31,-0.86 0.66,-1.79 1.05,-2.8 0.39,-1.01 0.74,-1.95 1.05,-2.8 0.31,-0.86 0.47,-1.52 0.47,-1.99 0.47,-1.25 1.05,-3.15 1.75,-5.72 0.7,-2.57 1.4,-5.41 2.1,-8.53 0.7,-3.12 1.32,-6.19 1.87,-9.23 0.54,-3.04 0.82,-5.49 0.82,-7.36 0,-1.87 -0.31,-3.04 -0.93,-3.5 -2.02,1.09 -4.67,4.09 -7.94,8.99 -3.27,4.91 -6.58,10.36 -9.93,16.35 -3.35,6 -6.46,11.8 -9.34,17.4 -2.88,5.61 -4.95,9.58 -6.19,11.91 -0.47,0.94 -1.17,2.02 -2.1,3.27 -0.93,1.25 -2.02,1.87 -3.27,1.87 -1.25,0 -1.95,-0.62 -2.1,-1.87 0,-1.09 0.74,-3.97 2.22,-8.64 1.48,-4.67 3.19,-9.77 5.14,-15.3 1.95,-5.53 3.85,-10.79 5.72,-15.77 1.87,-4.98 3.12,-8.33 3.74,-10.04zm107.46 3.04c3.43,0 5.14,1.48 5.14,4.44 0,2.18 -0.86,4.21 -2.57,6.07 -1.71,1.87 -3.78,3.5 -6.19,4.91 -2.41,1.4 -4.91,2.61 -7.48,3.62 -2.57,1.01 -4.71,1.75 -6.42,2.22 -0.31,0.78 -0.47,1.95 -0.47,3.5 0,2.8 1.05,5.1 3.15,6.89 2.1,1.79 4.71,2.69 7.83,2.69 2.8,0 5.92,-0.43 9.34,-1.28 3.43,-0.86 6.93,-1.95 10.51,-3.27 3.58,-1.32 7.09,-2.84 10.51,-4.56 3.43,-1.71 6.54,-3.43 9.34,-5.14 1.4,-0.93 2.73,-1.95 3.97,-3.04 1.25,-1.09 2.57,-2.02 3.97,-2.8 0.78,-0.47 1.4,-0.7 1.87,-0.7 1.71,0 2.34,0.78 1.87,2.34 -0.47,1.09 -1.4,2.14 -2.8,3.15 -1.4,1.01 -2.57,1.91 -3.5,2.69 -3.27,2.34 -6.97,4.56 -11.1,6.66 -4.13,2.1 -8.29,4.01 -12.5,5.72 -4.21,1.71 -8.37,3.08 -12.5,4.09 -4.13,1.01 -7.9,1.52 -11.33,1.52 -4.05,0 -7.47,-1.21 -10.28,-3.62 -2.8,-2.41 -4.21,-5.65 -4.21,-9.69 0,-1.87 0.47,-3.97 1.4,-6.31 0,-0.47 0.23,-0.93 0.7,-1.4 0.93,-2.02 2.18,-4.13 3.74,-6.31 1.56,-2.18 3.31,-4.2 5.26,-6.07 1.95,-1.87 4.01,-3.39 6.19,-4.56 2.18,-1.17 4.36,-1.75 6.54,-1.75zm-14.25 15.18c0.78,-0.31 1.91,-0.74 3.39,-1.28 1.48,-0.55 2.96,-1.21 4.44,-1.99 1.48,-0.78 2.76,-1.67 3.85,-2.69 1.09,-1.01 1.63,-2.06 1.63,-3.15 0,-0.31 -0.39,-0.47 -1.17,-0.47 -2.18,0 -4.36,1.05 -6.54,3.15 -2.18,2.1 -4.05,4.24 -5.61,6.42zm72.42 -17.29c1.71,0 3.04,0.74 3.97,2.22 0.93,1.48 1.4,3.08 1.4,4.79 0,1.25 -0.23,2.34 -0.7,3.27 -0.31,0.78 -0.82,1.4 -1.52,1.87 -0.7,0.47 -1.44,0.7 -2.22,0.7 -1.25,0 -1.87,-0.55 -1.87,-1.63 0,-1.09 0,-2.26 0,-3.5 0,-1.4 -0.47,-2.1 -1.4,-2.1 -1.87,0 -3.78,1.09 -5.72,3.27 -1.95,2.18 -3.23,4.05 -3.85,5.61 -1.25,3.27 -1.87,7.32 -1.87,12.15 0,4.83 0.16,9.73 0.47,14.72 0.31,-0.16 1.71,-0.93 4.21,-2.34 2.49,-1.4 5.57,-3.04 9.23,-4.91 3.66,-1.87 7.59,-3.89 11.8,-6.07 4.21,-2.18 8.14,-4.17 11.8,-5.96 3.66,-1.79 6.78,-3.31 9.34,-4.56 2.57,-1.25 4.01,-1.87 4.32,-1.87 1.71,0 2.34,0.78 1.87,2.34 -0.47,0.93 -1.01,1.64 -1.64,2.1 -2.49,1.87 -5.22,3.43 -8.18,4.67 -2.96,1.25 -5.76,2.49 -8.41,3.74 -1.25,0.62 -3.12,1.56 -5.61,2.8 -2.49,1.25 -5.29,2.69 -8.41,4.32 -3.11,1.64 -6.42,3.39 -9.93,5.26 -3.5,1.87 -6.89,3.74 -10.16,5.61 0.16,3.43 0.08,6.7 -0.23,9.81 -0.31,3.11 -1.01,6 -2.1,8.64 -1.09,2.49 -3.04,4.59 -5.84,6.31 -2.8,1.71 -5.37,2.57 -7.71,2.57 -3.11,0 -5.33,-0.7 -6.66,-2.1 -1.32,-1.4 -1.99,-3.27 -1.99,-5.61 0,-1.87 0.54,-4.28 1.63,-7.24 0.78,-1.87 2.73,-4.05 5.84,-6.54 3.12,-2.49 6.85,-5.06 11.21,-7.71 -0.16,-2.49 -0.31,-5.02 -0.47,-7.59 -0.16,-2.57 -0.23,-5.1 -0.23,-7.59 0,-5.92 0.78,-10.9 2.34,-14.95 0.62,-1.56 1.56,-3.19 2.8,-4.91 1.25,-1.71 2.65,-3.27 4.21,-4.67 1.56,-1.4 3.23,-2.57 5.02,-3.5 1.79,-0.94 3.54,-1.4 5.26,-1.4zm-18.92 49.76c-3.12,1.87 -5.76,3.62 -7.94,5.26 -2.18,1.64 -3.43,3 -3.74,4.09 -0.78,2.02 -1.17,3.66 -1.17,4.91 0,2.96 1.63,4.44 4.91,4.44 0.93,0 2.1,-0.35 3.5,-1.05 1.4,-0.7 2.26,-1.6 2.57,-2.69 0.78,-2.02 1.29,-4.32 1.52,-6.89 0.23,-2.57 0.35,-5.26 0.35,-8.06z"/>
 </g>
</svg>
